<?xml version="1.0" encoding="UTF-8"?><svg id="Ebene_1" xmlns="http://www.w3.org/2000/svg" viewBox="0 0 992.13 563.76"><defs><style>.cls-1{fill:#755446;}.cls-1,.cls-2,.cls-3,.cls-4{stroke-width:0px;}.cls-2{fill:#83a9de;}.cls-3{fill:#bc714b;}.cls-4{fill:#876351;}</style></defs><path class="cls-2" d="m276.49,284.96c-93.38,20.79-407.89,146.6-215.09,193.74,75.1,18.36,153.84,8.07,223.24,29.12,52.17,15.82,85.54,30.4,142.15,42.28,130.14,27.31,220.9,9.07,348.48-14.68,162.61-30.28,328.23-54.25,117.6-137.78-153.95-61.06-145.32-163.65-616.37-112.67Z"/><path class="cls-4" d="m527.58,391.58c2.45,4.77,4.67,9.26,6.44,13.06-.31.33-11.73,12.45-25.82,27.29-20.23,21.31-45.95,48.23-52.17,54.06-5.5,5.13-50.67,50.31-59.3,17.38-1.77-6.75,28.06-54.41,28.06-54.41-.61.29-30.78,44.98-36.57,50.39-18.32,17.1-43.82,31.07-48.1,6.21-1.32-7.64,44.97-85.09,42.54-84.1-1.35.55-49.95,78.29-55.95,82.55-8.71,6.18-19.32,6.8-28.33-.66-10.05-8.33-7.47-19.68-4.69-29.89,5.46-20.04,47.72-102.83,48.22-105.07,0,0-39.13,55.46-48.25,60.93-7.81,4.67-15.51,9.23-24.5,4.54-8.87-4.62-11.01-13.29-10.48-22.47.87-15.12,14.7-41.32,14.7-41.32,3.35-7.31,6.42-14.75,10.07-21.9,21.33-41.95,70.83-83.77,116.08-118.87,2.03-1.58,4.05-3.14,6.07-4.69,15.62,17.87,76.15,87.96,96.51,120.31l25.46,46.66Z"/><path class="cls-1" d="m522.42,391.03c-17.32-9.84-32.02-15.4-50.33-22.92-17.83-7.32-38.36-8.73-54.54-18.97-14.3-9.04-33.7-11.42-48.48-19.25,1.41,4.09,2.92,8.16,4.69,12.11,6.9,15.39,74.78,63.2,97.65,75.91,12.35,6.87,25.8,15.3,37.24,13.54h0l25.36-26.81c.14-3.49-5.65-10.21-11.61-13.6Z"/><path class="cls-3" d="m598.01,243.06c2.19.39,19.13,2.35,34.37,2.61,14.65.25,23.68-5.01,30.18-15.55,9.43-16.08-11.85-31.31-28.69-33.97,0,0-139.33-33.38-210.38-6.11-7.69,2.95-71.52,19.92-91.36,61.12-7.34,15.24-9.45,32.46-4.72,48.23,3.23,10.77,9.8,28.83,67.7,46.49.04,0,152.5,65.64,166.33,75.34,1.19.83,2.28,1.62,3.23,2.33,14.69,11.05,62.99,42.76,72.97,48.66,5.19,3.07,47.2,29.39,50.22,3.73.65-5.5-51.67-55.2-51.67-55.2.53.13,52.41,47.47,57.88,50.7,17.31,10.22,33.87,21.19,39.54-3.09,1.4-6-69.6-68.31-67.5-67.94,1.16.2,74.75,63.23,78.02,64.55,8,3.22,16.54,2.09,22.62-5.15,6.79-8.09,3-16.44-.79-23.88-7.45-14.63-80.08-81.82-76.13-84.08,0,0,61.27,47.21,69.43,49.94,6.98,2.34,13.84,4.6,20.35-.5,6.41-5.03,7.34-12.25,4.98-19.1-9.48-27.52-128.07-100.29-186.57-139.11Z"/></svg>