<?xml version="1.0" encoding="UTF-8"?><svg id="Ebene_1" xmlns="http://www.w3.org/2000/svg" xmlns:xlink="http://www.w3.org/1999/xlink" viewBox="0 0 992.13 553.58"><defs><style>.cls-1{fill:url(#Unbenannter_Verlauf_15);}.cls-1,.cls-2,.cls-3,.cls-4,.cls-5{stroke-width:0px;}.cls-2{fill:url(#Unbenannter_Verlauf_11);}.cls-3{fill:#a45f41;}.cls-4{fill:#83a9de;}.cls-5{fill:#bb714b;}</style><linearGradient id="Unbenannter_Verlauf_15" x1="523.16" y1="183.5" x2="537.68" y2="494.19" gradientUnits="userSpaceOnUse"><stop offset=".2" stop-color="#a45f41"/><stop offset=".66" stop-color="#bb714b"/><stop offset=".88" stop-color="#bb714b"/></linearGradient><linearGradient id="Unbenannter_Verlauf_11" x1="431.27" y1="146.9" x2="458.44" y2="165.24" gradientUnits="userSpaceOnUse"><stop offset=".2" stop-color="#a45f41"/><stop offset="1" stop-color="#bb714b"/></linearGradient></defs><path class="cls-4" d="m982.24,489.83c-13.97,8.7-30.91,12.85-47.87,16.77-26.74,6.19-54.17,10.29-81.64,14.15-32.58,4.59-65.24,8.81-97.9,13.09-24.66,3.24-49.32,6.54-74.07,9.4-18.94,2.19-37.93,4.18-57.07,5.3-9.73.57-19.47,1.06-29.21,1.54-1.2.06-2.39.12-3.59.18-15.49.77-30.98.61-46.44.3-14.28-.28-28.56-1.32-42.8-2.54-21.74-1.87-43.18-4.88-64.42-8.64-3.26-.57-6.52-1.17-9.77-1.78-31.31-5.89-61.53-14.23-91.37-23.39-21.95-6.74-43.74-13.83-66.35-19.27-18.34-4.42-37.22-6.97-56.28-8.96-14.31-1.49-28.68-2.49-43.02-3.74-12.98-1.13-26.04-1.79-39.01-2.96-31.41-2.81-62.49-6.85-91.95-15.91-11.12-3.42-21.63-7.65-30.13-14.32-9.72-7.62-12.04-17.33-6.11-26.9,5.72-9.22,14.92-16.34,24.85-22.94,13.01-8.64,27.37-15.93,42.24-22.68,20.97-9.51,42.88-17.68,65.02-25.54,18.85-6.69,38.08-12.74,57.54-18.35,28.68-8.28,56.98-19.12,87.57-21.37,21.11-1.55,42.79-2.16,64.63-2,19.24.13,38.61.85,57.85,2.03,41.74,2.55,82.88,7.24,120.76,12.75,41.9,6.11,79.8,13.2,110.11,19.49,44.7,9.27,72.86,16.8,72.88,16.82,6.42,1.54,179.97,54.36,210.21,65.99,18.78,7.23,37.1,15.11,53.51,25.16,7.43,4.56,14.28,9.58,18.83,16.14,6.04,8.73,2.09,16.52-7,22.18Z"/><path class="cls-1" d="m657.18,266.12c-1.76-17.97-2.92-58.93-8.19-67.58h-.01c-.14-.24-.28-.44-.42-.62-9.08-11.39-45.07.3-57.81-6.56-14.93-8.05-28.11-11.24-44.48-15.77-28.61-7.9-51.32-8.7-80.5-13.79-.43-.07-.91-.14-1.45-.19-3.83-.37-10.29-.2-16.38.33-1.33.11-2.65.24-3.91.38-3.95.46-7.43,1.06-9.5,1.73-2.19.72-4.28,1.66-6.27,2.81-18.3,10.53-27.91,37.83-26.02,58.48,2.6,28.46,1.19,57.23.7,85.96-.2,11.51-.25,23,.16,34.47.77,21.44-2.67,39.46,1.35,59.64,1.01,5.01,3,10.34,5,15.55,1.31,3.39,2.61,6.73,3.65,9.9,1.25,3.8,10.91,48.16,13.07,57.43,3.74,16.06,8.4,31.94,10.56,48.33.12.93.29,1.85.5,2.76,21.24,3.76,42.68,6.77,64.42,8.64,14.24,1.22,28.52,2.26,42.8,2.54,15.46.31,30.95.47,46.44-.3,1.2-.06,2.39-.12,3.59-.18,3.47-11.73,4.76-23.94,5.31-36.25.77-17.33.52-34.69-.17-52.02-1.09-26.91,3.52-52.27,18.43-75.19,2.79-5.49,9.06-23.31,15.76-43.08,8.85-26.08,18.45-55.58,21.78-64.75,1.47-4.05,2.01-8.38,1.59-12.67Z"/><path class="cls-5" d="m650.27,203.43c-.03,22.17-15.72,52.13-21.59,62.44-15.17,26.75-40.93,19.04-44.43,18.51-6.4-.98-9.96-5.02-10.47-11.43-.46-5.74.7-10.72.7-10.72,0,0-17.17,11.66-27.19,14.17-12.15,3.06-24.74-8.08-24.41-20.62.07-2.98,2.27-6.95,2.4-7.2-.7.53-25.23,18.85-34.16,15.25-19.19-7.74-19.6-31.51-19.6-31.51,0,0-16.39,6.97-29.59,4.13-5.36-1.16-11.33-9-11.6-14.44-.44-8.74-.55-16.28.17-25.01.17-1.97.95-5.42,1.8-8.98.4-1.71.81-3.44,1.19-5.04.55-2.39,1-4.5,1.13-5.86,2.6-3.66,9.44-15.05,11.96-18.77,1.91-2.84,6.63-8.29,10.75-12.92,3.91-4.36,7.28-7.99,7.28-7.99.5-.52,1.02-1,1.55-1.45,17.19-15.2,45.21-5.27,46.46,3.49.64,4.47,2.87,4.19,5.42,1.99,14-12.09,51.6,7.35,41.65,20.24,13.27-17.19,52.25,5.58,49.15,18.81.96-4.1,41.45,7.24,41.43,22.92Z"/><path class="cls-3" d="m469.39,237.55c-.62,0-1.24-.23-1.73-.69-1-.95-1.03-2.54-.08-3.53l16.61-17.38c2.42-2.54,4.3-5.63,5.43-8.95l11.14-32.8c.44-1.31,1.86-2.01,3.17-1.56,1.31.44,2.01,1.86,1.56,3.17l-11.14,32.8c-1.36,4.01-3.63,7.74-6.55,10.8l-16.61,17.38c-.49.51-1.15.77-1.81.77Z"/><path class="cls-3" d="m518.49,260.2c-.61,0-1.23-.22-1.71-.68-1.01-.94-1.06-2.53-.11-3.53l19.9-21.22c2.4-2.56,4.19-5.55,5.32-8.87l11.16-32.88c.44-1.31,1.86-2.01,3.17-1.56,1.31.44,2.01,1.86,1.56,3.17l-11.16,32.88c-1.36,4-3.52,7.6-6.41,10.69l-19.9,21.22c-.49.52-1.16.79-1.82.79Z"/><path class="cls-3" d="m572.32,268.31c-.7,0-1.39-.29-1.89-.86-.91-1.04-.8-2.62.24-3.53l17.21-14.99c3.77-3.28,6.61-7.52,8.22-12.25l7.38-21.72c.44-1.31,1.86-2.01,3.17-1.56,1.31.44,2.01,1.86,1.56,3.17l-7.38,21.72c-1.89,5.57-5.23,10.55-9.67,14.42l-17.21,14.99c-.47.41-1.06.61-1.64.61Z"/><path class="cls-2" d="m458.86,172.73c-3.21,3.72-7.56,18.43-26.56,15.29.4-1.71.81-3.44,1.19-5.04-1.45,1.72-2.86,3.22-4.2,4.43l-.28-.07c-18.24-4.99,24.56-60.99,25.73-66.86,4.88,2.67,8.04,6.55,9.95,11.02-.29.54-.55,1.09-.82,1.64-1.21,2.3-3.54,6.79-6.54,12.3,3.91-4.36,7.28-7.99,7.28-7.99.5-.52,1.02-1,1.55-1.45,3.38,14.13-2.94,31.69-7.31,36.75Z"/><path class="cls-5" d="m410.09,422.27c-3.94-8.44-11.09-17.21-15.58-25.4-9.38-17.12-18.99-34.11-28.5-51.18-6.84-13.63-28.94-43.77-28.3-59.89.7-17.31-.25-62.05.76-79.4,1.31-22.44,3.63-47.88,23.4-59.38,45.67-26.57,42.48-23.49,62.64-46.2,4.87-5.48,21.67-14.06,28.97-15.01,14.73-1.9,22.43,5.92,20.22,20.51-1.35,8.96-4.98,17.01-8.99,25.15-.29.54-.55,1.09-.82,1.64-1.21,2.3-3.54,6.79-6.54,12.3-6.36,11.7-15.73,27.96-23.84,37.55-1.45,1.72-2.86,3.22-4.2,4.43-.84.76-1.64,1.41-2.42,1.94-13.5,9.16-7.72,59.09,54.37,77.82,19.8,5.97,35.2,38.87,42.94,58.13,39.2,97.59-76.26,145.48-114.11,96.98Z"/></svg>