<svg width="167" height="156" viewBox="0 0 167 156" fill="none" xmlns="http://www.w3.org/2000/svg">
<g id="Group 318">
<g id="Group 317">
<path id="Vector" d="M45.3406 84.7695C30.0274 90.0364 -21.549 121.901 10.0677 133.839C22.3831 138.489 35.2966 135.884 46.6763 141.214C55.2318 145.222 60.7047 148.915 69.9865 151.923C91.3272 158.839 106.212 154.221 127.132 148.205C153.799 140.536 180.957 134.465 146.416 113.308C121.171 97.8432 95.8285 85.6828 45.3387 84.7695H45.3406Z" fill="#83A9DE"/>
<path id="Vector_2" d="M148.949 9.68589C131.966 -3.65861 105.63 -3.65301 92.1505 13.1616L84.9269 27.5016L73.285 15.1451C59.8056 -1.67141 38.5913 -5.89048 22.9084 9.68589C5.92562 23.0304 3.05995 47.7061 16.5394 64.5188L77.4977 137.537C81.9046 142.817 90.0508 142.901 94.5691 137.713L110.703 119.187C114.633 116.1 160.066 66.8945 160.066 66.8945C173.546 50.0817 165.932 23.0323 148.949 9.68589Z" fill="#E35045"/>
<path id="Vector_3" d="M154.337 14.8162C148.157 20.3371 135.191 37.1424 130.035 40.6144C124.798 44.1424 117.438 48.9629 106.708 45.0669C97.9596 40.5042 85.7894 37.4095 84.7028 37.2768C81.8597 36.9332 81.3221 37.4337 81.3051 40.3454C81.339 42.2766 82.1408 43.6718 84.15 44.7289C85.4102 45.3919 86.8063 46.0157 87.7873 46.4303C87.625 46.4135 75.304 45.4218 73.4721 45.3881C72.5194 45.3713 64.6808 45.0314 66.4089 48.7499C66.7786 49.5456 73.6702 51.4674 73.6702 51.4674C73.5891 51.4917 66.9522 49.8575 65.9485 49.8407C62.7716 49.7865 59.6305 49.5717 60.8888 53.3052C61.2001 54.2278 70.2838 56.8089 69.9707 56.921C69.7971 56.9826 60.3059 54.5024 59.7569 54.5752C58.4136 54.7545 57.3591 55.5651 57.144 57.0163C56.9044 58.6374 58.1099 59.4797 59.2381 60.1988C61.4567 61.6107 72.4911 65.7906 72.7005 65.9475C72.7005 65.9475 64.3054 64.0611 62.981 64.3189C61.8491 64.5392 60.736 64.7596 60.287 65.9531C59.8437 67.1297 60.3776 68.1177 61.2076 68.9301C62.5735 70.2674 66.0995 71.5486 66.0995 71.5486C67.0352 71.9502 67.9577 72.3853 68.9085 72.7458C74.3833 74.8282 82.4106 74.6135 89.5625 74.1055C114.833 72.0547 141.954 67.1951 158.746 47.0709C169.247 32.5797 160.095 20.6023 154.337 14.8125V14.8162Z" fill="#FFCDBD"/>
<path id="Vector_4" d="M8.16845 37.1562C7.42138 44.7147 10.7568 50.1123 13.63 54.5331C17.3201 60.2108 34.25 74.9112 39.8588 78.6802C50.2782 85.6802 51.6101 86.3843 62.1559 86.7952C71.5321 83.6874 81.8534 82.634 81.8534 82.634C82.9495 82.6266 84.0475 82.5743 85.1417 82.6172C88.0036 82.7312 88.4526 83.312 87.9942 86.1863C87.647 88.0876 86.6283 89.3371 84.472 90.058C83.1193 90.5119 81.6421 90.9041 80.6064 91.1581C80.7705 91.1674 80.9234 91.1749 81.0611 91.1805C83.9796 91.2776 93.0897 92.1554 94.9027 92.415C95.846 92.5495 103.637 93.4665 101.326 96.8582C100.832 97.5847 93.718 98.3822 93.718 98.3822C93.7953 98.4196 100.61 97.8649 101.604 98.0087C104.749 98.4607 107.882 98.7502 106.033 102.235C105.577 103.096 96.1893 104.194 96.4799 104.355C96.6402 104.445 106.413 103.509 106.943 103.67C108.239 104.06 109.148 105.029 109.124 106.497C109.095 108.137 107.769 108.774 106.539 109.304C104.119 110.345 92.5502 112.709 92.3163 112.831C92.3163 112.831 100.91 112.309 102.174 112.775C103.256 113.172 104.317 113.568 104.566 114.818C104.811 116.05 104.122 116.939 103.173 117.608C101.608 118.71 97.9193 119.412 97.9193 119.412C96.9308 119.659 95.9498 119.941 94.9518 120.146C89.2091 121.328 81.3214 119.836 74.3468 118.193C73.5092 117.81 56.3699 111.906 55.5341 111.732C52.0346 110.978 36.5799 103.481 35.8555 102.183C28.5715 97.5978 21.9403 91.3392 15.609 85.8446C3.12381 75.0065 -3.19992 51.9743 8.16845 37.1562Z" fill="#FFCDBD"/>
</g>
</g>
</svg>
