<?xml version="1.0" encoding="UTF-8"?>
<svg id="Ebene_1" data-name="Ebene 1" xmlns="http://www.w3.org/2000/svg" version="1.1" viewBox="0 0 398.8 103">
  <defs>
    <style>
      .cls-1 {
        fill: #d50c2f;
        stroke-width: 0px;
      }
    </style>
  </defs>
  <path class="cls-1" d="M44.7,22.6c3.5,0,5.1-1.2,5.1-3.6s-1.1-3.2-3.5-3.5c-1.1-.2-2.3-.3-3.5-.5-2.3-.3-3.9-1.2-5.1-2.6-1.2-1.4-1.8-3-1.8-4.8s.8-4.1,2.3-5.6C39.7.8,41.9,0,44.6,0s6,.9,8.4,2.7l-2.3,3.3c-2-1.4-4.1-2-6.5-2s-2.3.3-3,.9c-.9.6-1.4,1.5-1.4,2.9s.3,1.5.9,2.1,1.5,1.1,2.9,1.4c.8.2,1.7.3,3,.5,2.4.3,4.2,1.2,5.4,2.7,1.2,1.4,1.8,3,1.8,4.8-.2,5-3.2,7.5-9.2,7.7-3.9,0-7.2-1.2-9.9-3.6l2.6-3c2.1,1.4,4.5,2.3,7.4,2.3M60.2,7.7h-2v2.9h1.8v11.1c0,1.5.5,2.6,1.4,3.3s2,1.2,3.2,1.2h2v-3.5h-1.4c-.9,0-1.4-.5-1.4-1.4v-10.8h2.7v-2.9h-2.7V2h-3.8v5.7h.2ZM82.2,19.9c0,1.4-.3,2.3-.9,2.7s-1.8.6-3.3.6-2.1-.3-2.7-.8-.9-1.1-.9-1.7c0-1.5,1.1-2.3,3.2-2.3h4.5v1.4h.2ZM82.2,26.3h3.8v-12.8c0-2.3-.8-3.9-2.1-4.8s-3.3-1.4-5.6-1.4-4.8.9-6.3,2.7l3,2.3c.3-.6.8-.9,1.4-1.2.6-.2,1.2-.3,2.3-.3,2.6,0,3.9.8,3.8,2.4v2h-5.1c-2,0-3.5.6-4.5,1.7s-1.5,2.3-1.5,3.9.6,3,1.8,4.1c1.1,1.1,2.7,1.7,4.8,1.7s2.3-.2,3-.5c.8-.3,1.2-.8,1.7-1.4h0v1.7h-.3ZM92.9,26.3h3.8v-11.3c0-1.4.5-2.4,1.2-3s1.5-.9,2.4-.9,1.7.3,2.4.9l2.7-3.3c-1.1-.9-2.4-1.4-3.9-1.5-2,0-3.6.8-4.8,2.3h0v-2h-3.8v18.8ZM109.6,7.7h-1.8v2.9h1.8v11.1c0,1.5.5,2.6,1.4,3.3.9.8,2,1.2,3.2,1.2h2v-3.5h-1.4c-.9,0-1.4-.5-1.4-1.4v-10.8h2.7v-2.9h-2.7V2h-3.8v5.7h0ZM121.9,20.2c0,2.1.8,3.8,2.1,4.8,1.2,1.1,2.7,1.7,4.2,1.7s3.6-.8,4.8-2.3h0v2h3.8V7.7h-3.8v11.1c0,1.2-.3,2.3-1.1,3s-1.5,1.1-2.7,1.1-2-.3-2.7-1.1-1.1-1.7-1.1-3V7.7h-3.8v12.5h.2ZM151.3,22.9c-.9,0-1.5-.2-2-.6-.5-.3-.9-.8-1.2-1.4s-.5-1.2-.5-2-.2-1.4-.2-2,0-1.4.2-2.1c0-.6.2-1.2.5-1.8.3-.6.6-1.1,1.2-1.4.5-.3,1.2-.5,2-.5s1.7.2,2.1.5c.5.3.9.8,1.1,1.4.3.6.5,1.2.5,1.8v4.2c-.2.8-.3,1.4-.5,1.8-.2.6-.6,1.1-1.1,1.4-.6.5-1.2.6-2.1.6M143.8,33.9h3.8v-9.5c.8.6,1.4,1.2,2.3,1.5.8.5,1.7.6,2.6.6s2.1-.3,3-.8,1.5-1.1,2-1.7.9-1.4,1.1-2.4c.2-.9.3-2.6.3-4.7s-.2-3.9-.3-4.8c-.2-.9-.6-1.7-1.1-2.3-1.1-1.5-2.7-2.4-5-2.4s-3.6.8-4.8,2.1v-2h-3.8v26.2ZM0,64.1h3.9v-26H0v26ZM11.3,64.1h3.8v-11.1c0-1.4.3-2.3,1.1-3s1.5-1.1,2.7-1.1,2,.3,2.7,1.1,1.1,1.7,1.1,3v11.1h3.8v-12.3c0-2.1-.8-3.8-2-4.8-1.4-1.1-2.7-1.7-4.2-1.7s-3.6.8-4.8,2.3h0v-2h-3.8v18.5h-.3ZM44.3,58.7c-.9,1.2-2.3,2-3.8,2-3.2,0-4.8-1.8-4.8-5.7s1.7-5.9,4.8-5.9,2.9.8,3.8,2l2.7-2.4c-.8-1.1-1.8-1.8-2.9-2.4-1.1-.6-2.4-.9-3.8-.9-2.3,0-4.1.8-5.9,2.3-1.7,1.5-2.6,3.9-2.7,7.4,0,3.3.9,5.7,2.7,7.2,1.7,1.5,3.6,2.3,5.9,2.3s2.7-.3,3.8-.9,2.1-1.4,2.9-2.3l-2.7-2.6ZM51.8,58c0,2.1.8,3.8,2.1,4.8,1.2,1.1,2.7,1.7,4.2,1.7s3.6-.8,4.8-2.3h0v2h3.8v-18.5h-3.8v11.1c0,1.2-.3,2.3-1.1,3s-1.5,1.1-2.7,1.1-2-.3-2.7-1.1-1.1-1.7-1.1-3v-11.1h-3.8v12.3h.2ZM81.1,49.1c.9,0,1.7.2,2.1.5.5.3.9.8,1.1,1.4.3.6.5,1.2.5,1.8v4.2c-.2.8-.3,1.4-.5,2-.2.6-.6,1.1-1.1,1.4-.5.3-1.2.5-2.1.5s-1.5-.2-2-.6c-.5-.3-.9-.8-1.2-1.4-.3-.6-.5-1.2-.5-2s-.2-1.4-.2-2,0-1.4.2-2.1c0-.6.2-1.2.5-1.8.3-.6.6-1.1,1.2-1.4.5-.3,1.1-.5,2-.5M73.8,64.1h3.8v-2c1.2,1.4,2.9,2.1,4.8,2.1s2.1-.3,3-.8,1.5-1.1,2-1.7.9-1.4,1.1-2.4c.2-.9.3-2.6.3-4.7s-.2-3.8-.3-4.8c-.2-.9-.6-1.7-1.1-2.3-1.1-1.5-2.7-2.4-5-2.4s-1.8.2-2.6.6-1.5.9-2.3,1.7v-9.5h-3.8v26ZM104.8,57.7c0,1.4-.3,2.3-.9,2.7-.6.5-1.8.6-3.3.6s-2.1-.3-2.7-.8c-.6-.5-.9-1.1-.9-1.7,0-1.5,1.1-2.3,3.2-2.3h4.5v1.4h.2ZM104.8,64.1h3.8v-12.8c0-2.3-.8-3.9-2.1-4.8s-3.3-1.4-5.6-1.4-4.8.9-6.3,2.7l3,2.3c.3-.6.8-.9,1.4-1.2.6-.2,1.2-.3,2.3-.3,2.6,0,3.9.8,3.8,2.4v2h-5.1c-2,0-3.5.6-4.5,1.7s-1.5,2.3-1.5,3.9.6,3,1.8,4.1c1.1,1.1,2.7,1.7,4.8,1.7s2.3-.2,3-.5c.8-.3,1.2-.8,1.7-1.4h0v1.7h-.3ZM115.8,45.6h-1.8v2.9h1.8v11.1c0,1.5.5,2.6,1.4,3.3.9.8,2,1.2,3.2,1.2h2v-3.5h-1.4c-.9,0-1.4-.5-1.4-1.4v-10.8h2.7v-2.9h-2.7v-5.7h-3.8v5.7h0ZM138.7,54.9c0,1.2,0,2.3-.2,2.9s-.3,1.2-.8,1.7c-.3.3-.8.6-1.2.9s-1.1.5-1.8.5-1.2-.2-1.8-.5c-.5-.3-.9-.6-1.2-.9-.3-.5-.6-1.1-.8-1.7s-.2-1.5-.2-2.9,0-2.3.2-2.9.3-1.1.8-1.5c.3-.5.8-.8,1.2-1.1.6-.3,1.1-.3,1.8-.3s1.4.2,1.8.3c.6.3.9.6,1.2,1.1.3.5.6.9.8,1.5.2.5.2,1.5.2,2.9M127.1,54.8c0,2,.2,3.5.5,4.5s.9,2,1.5,2.7c.5.6,1.2,1.1,2.1,1.5.9.5,2.1.8,3.5.8s2.7-.3,3.6-.8c.5-.2.9-.5,1.2-.8s.6-.6.9-.8c.8-.8,1.2-1.7,1.5-2.7.3-1.1.5-2.6.5-4.5s-.2-3.5-.5-4.5-.9-2-1.5-2.6c-.5-.6-1.2-1.2-2.1-1.7s-2.1-.8-3.6-.8-2.6.3-3.5.8-1.7,1.1-2.1,1.7c-.8.8-1.2,1.5-1.5,2.6-.3,1.1-.5,2.6-.5,4.5M148.6,64.1h3.8v-11.3c0-1.4.5-2.4,1.2-3s1.5-.9,2.4-.9,1.7.3,2.4.9l2.7-3.3c-1.1-.9-2.4-1.4-3.9-1.5-2,0-3.6.8-4.8,2.3h0v-2h-3.8v18.8ZM69.1,90.5c1.5,0,2.6.5,3.2,1.2.8.8,1.1,1.7,1.1,2.7s-.3,2-1.1,2.7-1.8,1.2-3.2,1.2h-6.2v-7.8s6.2,0,6.2,0ZM68.8,79.3c1.5,0,2.6.3,3.2,1.1.8.8,1.1,1.7,1.1,2.7s-.3,2-1.1,2.6c-.8.8-1.8,1.2-3.2,1.2h-5.7v-7.5h5.7ZM59,102.1h11c2.1,0,3.8-.8,5.1-2.1s2.1-3.2,2.1-5.4-.3-2.6-1.1-3.8c-.8-1.1-1.8-1.8-3.2-2.3h0c.8-.3,1.4-.8,2-1.2.5-.5.9-.9,1.2-1.4.6-1.1.8-2,.8-3.2,0-2.1-.6-3.8-2-5.1-1.4-1.2-3.2-2-5.9-2h-10.1v26.3h0ZM86.3,91.1c0-1.5.5-2.6,1.2-3.3s1.7-1.1,2.7-1.1,2.1.3,2.7,1.1c.8.8,1.1,1.8,1.2,3.3h-7.8ZM97.9,94.1v-3.2c0-2.4-.8-4.4-2.3-5.7s-3.3-2.1-5.4-2.1-1.8.2-2.7.5c-.9.3-1.8.9-2.6,1.5-.8.8-1.4,1.7-1.8,3-.5,1.2-.8,2.7-.8,4.7s.3,3.5.8,4.7,1.2,2.3,2,2.9c.5.3.9.6,1.4.9.5.3.9.5,1.4.6.9.3,2,.5,2.9.5,2.6,0,4.8-1.1,6.8-3l-2.7-2.3c-1.2,1.2-2.6,1.8-4.1,1.8s-2.4-.5-3.2-1.2c-.9-.8-1.4-2-1.4-3.5h11.7ZM103.9,102.1h3.8v-11.3c0-1.4.5-2.4,1.2-3s1.5-.9,2.4-.9,1.7.3,2.4.9l2.7-3.3c-1.1-.9-2.4-1.4-3.9-1.5-2,0-3.6.8-4.8,2.3h0v-2h-3.8v18.8h0ZM120.4,97.6c0,1.7.5,2.9,1.4,3.5.9.8,2,1.1,3.3,1.1h1.7v-3.5h-1.4c-.9,0-1.4-.5-1.4-1.2v-21.4h-3.8v21.5h.2ZM132.2,83.4h3.8v18.7h-3.8v-18.7ZM132.2,75.9h3.8v3.8h-3.8v-3.8ZM143.2,102.1h3.8v-11.1c0-1.4.3-2.3,1.1-3s1.5-1.1,2.7-1.1,2,.3,2.7,1.1,1.1,1.7,1.1,3v11.1h3.8v-12.3c0-2.1-.8-3.8-2-4.8-1.4-1.1-2.7-1.7-4.2-1.7s-3.6.8-4.8,2.3h0v-2h-3.8v18.5h-.3ZM288.9,102.1h19V.8h-19v101.3ZM246,42.6h0c-4.5-.6-8.3-1.1-10.8-1.5-4.4-.8-7.4-2.3-9.3-4.2s-2.7-3.9-2.7-6c.2-3.9,1.4-6.9,3.9-8.9,2.6-2,6-3,9.9-3,8.3.2,16,2.6,22.9,7.1l1.8,1.2,10.5-15.7-1.7-1.2C261.4,3.8,250.4.2,237.9,0c-10.5.2-18.8,2.9-24.7,8.4-6,5.6-9.2,12.9-9.2,22.1s2.4,14.2,7.2,19.4c4.7,5.1,11.4,8.4,20.3,9.9,4.7.6,8.9,1.2,12.8,1.8,9.8,1.7,10.8,7.1,10.8,10.8-.2,4.8-2,11.1-17,11.4-10.1-.2-18.8-3.2-26.2-9.2l-1.7-1.4-12.5,14.3,1.7,1.4c10.7,9.2,23.6,13.9,38.5,13.9,23.5-.3,35.7-10.5,36.1-30.4,0-7.4-2.4-13.9-6.9-19.4-4.4-5.7-11.6-9.3-21.2-10.5M375,38.2c2.3-2.3,3.3-5,3.3-8.3s-1.1-6.2-3.3-8.4c-2.1-2.1-5.6-3.2-10.2-3.3h-19v23.5h19.1c4.5,0,8-1.2,10.1-3.5M345.8,83.9h20.5c4.8-.2,8.3-1.4,10.4-3.8h0c2.3-2.4,3.3-5.3,3.3-8.7s-1.1-6.3-3.3-8.7c-2.1-2.3-5.6-3.5-10.4-3.6h-20.5v24.8ZM394.7,57.4c2.7,4.7,4.1,9.6,4.1,15.1-.2,9-3,16.3-8.6,21.5-5.4,5.4-12.3,8.3-20.6,8.3h-43.1V.8h39.7c10.1.2,17.8,2.7,23,7.8,5.3,5.1,7.8,12,7.8,20.3.2,4.4-.9,8.6-3.2,12.5-1.2,2-2.9,3.9-5,5.6-1.1.9-2.1,1.7-3.5,2.6,4.1,1.8,6.9,4.4,9.2,7.8h0"/>
</svg>