<?xml version="1.0" encoding="UTF-8"?><svg id="Calque_1" xmlns="http://www.w3.org/2000/svg" viewBox="0 0 51.17 35"><defs><style>.cls-1{fill:#164194;}.cls-1,.cls-2,.cls-3{stroke-width:0px;}.cls-2{fill:#1d1d1b;}.cls-3{fill:#ffed00;}</style></defs><rect class="cls-1" width="34.29" height="22.86"/><polygon class="cls-3" points="16.41 4.98 17.14 4.45 17.86 4.98 17.59 4.13 18.32 3.6 17.41 3.6 17.14 2.73 16.86 3.6 15.95 3.6 16.69 4.13 16.41 4.98"/><polygon class="cls-3" points="12.67 6.21 13.39 5.68 14.12 6.21 13.84 5.36 14.58 4.83 13.67 4.83 13.39 3.96 13.12 4.83 12.21 4.83 12.94 5.36 12.67 6.21"/><polygon class="cls-3" points="12.67 19.19 13.39 18.66 14.12 19.19 13.84 18.34 14.58 17.81 13.67 17.81 13.39 16.94 13.12 17.81 12.21 17.81 12.94 18.34 12.67 19.19"/><polygon class="cls-3" points="10.65 6.71 10.38 7.57 9.47 7.57 10.21 8.1 9.93 8.96 10.65 8.43 11.38 8.96 11.1 8.1 11.84 7.57 10.93 7.57 10.65 6.71"/><polygon class="cls-3" points="9.65 12.17 10.37 12.69 10.1 11.84 10.83 11.31 9.93 11.31 9.65 10.45 9.37 11.31 8.47 11.31 9.2 11.84 8.92 12.69 9.65 12.17"/><polygon class="cls-3" points="10.93 15.06 10.65 14.2 10.38 15.06 9.47 15.06 10.21 15.59 9.93 16.45 10.65 15.92 11.38 16.45 11.1 15.59 11.84 15.06 10.93 15.06"/><polygon class="cls-3" points="17.42 18.58 17.14 17.72 16.86 18.58 15.96 18.58 16.69 19.11 16.41 19.96 17.14 19.43 17.86 19.96 17.59 19.11 18.32 18.58 17.42 18.58"/><polygon class="cls-3" points="21.15 17.59 20.88 16.72 20.6 17.59 19.7 17.59 20.43 18.11 20.15 18.97 20.88 18.44 21.6 18.97 21.33 18.11 22.06 17.59 21.15 17.59"/><polygon class="cls-3" points="23.9 14.84 23.62 13.98 23.35 14.84 22.44 14.84 23.18 15.37 22.9 16.22 23.62 15.69 24.35 16.22 24.07 15.37 24.81 14.84 23.9 14.84"/><polygon class="cls-3" points="22.9 8.72 23.62 8.19 24.35 8.72 24.07 7.87 24.81 7.34 23.9 7.34 23.62 6.47 23.35 7.34 22.44 7.34 23.18 7.87 22.9 8.72"/><polygon class="cls-3" points="23.89 12.46 24.62 11.93 25.34 12.46 25.06 11.61 25.8 11.08 24.89 11.08 24.62 10.21 24.34 11.08 23.43 11.08 24.17 11.61 23.89 12.46"/><polygon class="cls-3" points="20.89 3.74 20.61 4.61 19.71 4.6 20.44 5.13 20.16 5.99 20.89 5.46 21.61 5.99 21.34 5.13 22.07 4.6 21.17 4.6 20.89 3.74"/><path class="cls-2" d="M.02,28.62v-3.42h2.47v.4H.47v1.05h1.89v.4H.47v1.16h2.1v.4H.02Z"/><path class="cls-2" d="M5.44,25.2h.45v1.98c0,.34-.04.62-.12.82-.08.2-.22.37-.42.49-.2.13-.47.19-.8.19s-.58-.06-.79-.17c-.2-.11-.35-.27-.44-.48-.09-.21-.13-.49-.13-.86v-1.98h.45v1.97c0,.3.03.52.08.66.06.14.15.25.28.33.13.08.3.11.49.11.33,0,.57-.08.71-.23.14-.15.21-.44.21-.87v-1.97Z"/><path class="cls-2" d="M6.65,28.62v-3.42h1.52c.3,0,.54.03.7.09.16.06.29.17.38.33.09.16.14.33.14.52,0,.24-.08.45-.24.61-.16.17-.4.27-.73.32.12.06.21.11.27.17.13.12.26.27.38.45l.59.93h-.57l-.45-.71c-.13-.21-.24-.36-.33-.47-.09-.11-.16-.18-.23-.23-.07-.04-.14-.07-.21-.09-.05-.01-.14-.02-.25-.02h-.52v1.52h-.45ZM7.1,26.71h.97c.21,0,.37-.02.49-.06.12-.04.21-.11.27-.21.06-.09.09-.2.09-.31,0-.16-.06-.29-.18-.4-.12-.1-.3-.16-.56-.16h-1.08v1.13Z"/><path class="cls-2" d="M9.96,26.95c0-.57.15-1.01.46-1.33.3-.32.7-.48,1.18-.48.32,0,.6.08.85.23.25.15.45.36.58.63.13.27.2.58.2.92s-.07.66-.21.93c-.14.27-.34.48-.59.62-.26.14-.53.21-.83.21-.32,0-.61-.08-.86-.23-.25-.16-.45-.37-.58-.64-.13-.27-.2-.55-.2-.85ZM10.42,26.96c0,.41.11.74.33.97.22.24.5.36.83.36s.62-.12.84-.36c.22-.24.33-.58.33-1.02,0-.28-.05-.52-.14-.73-.09-.21-.23-.37-.41-.48-.18-.11-.38-.17-.61-.17-.32,0-.6.11-.83.33-.23.22-.35.59-.35,1.1Z"/><path class="cls-2" d="M13.81,28.62v-3.42h1.29c.23,0,.4.01.52.03.17.03.31.08.42.16.11.08.2.19.27.33.07.14.1.3.1.47,0,.29-.09.54-.28.74-.19.2-.52.3-1,.3h-.88v1.39h-.45ZM14.26,26.83h.88c.29,0,.5-.05.62-.16.12-.11.18-.26.18-.46,0-.14-.04-.27-.11-.37-.07-.1-.17-.17-.29-.2-.08-.02-.22-.03-.42-.03h-.87v1.22Z"/><path class="cls-2" d="M16.62,28.62l1.31-3.42h.49l1.4,3.42h-.52l-.4-1.04h-1.43l-.38,1.04h-.48ZM17.51,24.99v-.48h.44v.48h-.44ZM17.61,27.21h1.16l-.36-.95c-.11-.29-.19-.52-.24-.71-.04.22-.1.44-.18.65l-.38,1ZM18.38,24.99v-.48h.44v.48h-.44Z"/><path class="cls-2" d="M20.26,28.62v-3.42h.45v3.42h-.45Z"/><path class="cls-2" d="M21.35,27.52l.43-.04c.02.17.07.31.14.42.07.11.19.2.34.27.16.07.33.1.52.1.17,0,.33-.03.46-.08s.23-.12.3-.21c.06-.09.1-.19.1-.29s-.03-.2-.09-.28c-.06-.08-.16-.15-.31-.2-.09-.04-.29-.09-.61-.17-.31-.08-.53-.15-.66-.21-.16-.09-.28-.19-.37-.32-.08-.13-.12-.27-.12-.43,0-.17.05-.33.15-.48.1-.15.24-.26.43-.34.19-.08.4-.12.63-.12.25,0,.48.04.67.12.19.08.34.2.45.36.1.16.16.34.17.54l-.43.03c-.02-.22-.1-.38-.24-.49-.13-.11-.33-.17-.6-.17s-.47.05-.6.15c-.13.1-.19.22-.19.36,0,.12.04.22.13.3.09.08.31.16.68.24.37.08.62.16.76.22.2.09.35.21.44.35.09.14.14.3.14.49s-.05.35-.16.51-.25.29-.45.38c-.2.09-.41.13-.66.13-.31,0-.57-.05-.78-.14-.21-.09-.37-.23-.49-.41-.12-.18-.18-.39-.19-.61Z"/><path class="cls-2" d="M27.13,27.42l.45.11c-.09.37-.27.66-.51.85-.25.2-.55.29-.9.29s-.67-.07-.9-.23c-.23-.15-.41-.37-.53-.65-.12-.28-.18-.59-.18-.92,0-.36.07-.67.2-.93.14-.27.33-.47.58-.6.25-.14.53-.21.83-.21.34,0,.63.09.86.26.23.17.4.42.49.73l-.45.1c-.08-.25-.19-.43-.35-.54-.15-.11-.34-.17-.57-.17-.26,0-.48.06-.66.19-.18.13-.3.3-.37.51-.07.21-.11.43-.11.66,0,.29.04.54.13.76.08.22.22.38.4.49.18.11.37.16.58.16.25,0,.47-.07.64-.22.18-.15.29-.36.36-.65Z"/><path class="cls-2" d="M28.16,28.62v-3.42h.45v1.4h1.78v-1.4h.45v3.42h-.45v-1.61h-1.78v1.61h-.45Z"/><path class="cls-2" d="M31.6,28.62v-3.42h2.47v.4h-2.02v1.05h1.89v.4h-1.89v1.16h2.1v.4h-2.55Z"/><path class="cls-2" d="M38.35,25.2h.45v1.98c0,.34-.04.62-.12.82-.08.2-.22.37-.42.49-.2.13-.47.19-.8.19s-.58-.06-.79-.17c-.2-.11-.35-.27-.44-.48-.09-.21-.13-.49-.13-.86v-1.98h.45v1.97c0,.3.03.52.08.66.06.14.15.25.28.33.13.08.3.11.49.11.33,0,.57-.08.71-.23.14-.15.21-.44.21-.87v-1.97Z"/><path class="cls-2" d="M39.55,28.62v-3.42h.46l1.8,2.68v-2.68h.43v3.42h-.46l-1.8-2.69v2.69h-.43Z"/><path class="cls-2" d="M43.08,28.62v-3.42h.45v3.42h-.45Z"/><path class="cls-2" d="M44.19,26.95c0-.57.15-1.01.46-1.33.3-.32.7-.48,1.18-.48.32,0,.6.08.85.23.25.15.45.36.58.63.13.27.2.58.2.92s-.07.66-.21.93c-.14.27-.34.48-.59.62-.26.14-.53.21-.83.21-.32,0-.61-.08-.86-.23-.25-.16-.45-.37-.58-.64-.13-.27-.2-.55-.2-.85ZM44.66,26.96c0,.41.11.74.33.97.22.24.5.36.83.36s.62-.12.84-.36c.22-.24.33-.58.33-1.02,0-.28-.05-.52-.14-.73-.09-.21-.23-.37-.41-.48-.18-.11-.38-.17-.61-.17-.32,0-.6.11-.83.33-.23.22-.35.59-.35,1.1Z"/><path class="cls-2" d="M48.04,28.62v-3.42h.46l1.8,2.68v-2.68h.43v3.42h-.46l-1.8-2.69v2.69h-.43Z"/><path class="cls-2" d="M0,34.09v-3.26h2.36v.39H.43v1h1.81v.38H.43v1.11h2v.39H0Z"/><path class="cls-2" d="M4.53,34.09v-.35c-.18.27-.43.4-.75.4-.14,0-.27-.03-.39-.08-.12-.05-.21-.12-.27-.2-.06-.08-.1-.18-.12-.3-.02-.08-.02-.2-.02-.37v-1.46h.4v1.31c0,.21,0,.35.02.42.03.11.08.19.16.25.08.06.18.09.3.09s.23-.03.34-.09c.11-.06.18-.15.22-.25.04-.11.07-.26.07-.46v-1.27h.4v2.36h-.36Z"/><path class="cls-2" d="M5.51,34.09v-2.36h.36v.36c.09-.17.18-.28.25-.33.08-.05.16-.08.26-.08.14,0,.27.04.41.13l-.14.37c-.1-.06-.2-.09-.29-.09-.09,0-.17.03-.24.08-.07.05-.12.13-.15.22-.04.14-.07.3-.07.47v1.24h-.4Z"/><path class="cls-2" d="M6.89,32.91c0-.44.12-.76.37-.97.2-.18.45-.26.74-.26.33,0,.59.11.8.32.21.21.31.51.31.88,0,.3-.05.54-.14.72-.09.17-.22.31-.4.41s-.36.14-.57.14c-.33,0-.6-.11-.8-.32-.2-.21-.31-.52-.31-.92ZM7.3,32.91c0,.3.07.53.2.68.13.15.3.23.5.23s.36-.08.5-.23c.13-.15.2-.38.2-.69,0-.29-.07-.51-.2-.66-.13-.15-.3-.23-.5-.23s-.37.07-.5.22c-.13.15-.2.38-.2.68Z"/><path class="cls-2" d="M9.57,35v-3.27h.37v.31c.09-.12.18-.21.29-.27.11-.06.24-.09.39-.09.2,0,.38.05.53.16.15.1.27.25.35.44.08.19.12.4.12.62,0,.24-.04.46-.13.65-.09.19-.21.34-.38.45-.17.1-.34.15-.52.15-.13,0-.25-.03-.36-.08-.11-.06-.19-.13-.26-.21v1.15h-.4ZM9.93,32.92c0,.3.06.53.18.67.12.15.27.22.45.22s.33-.08.46-.23c.13-.15.19-.38.19-.7s-.06-.53-.19-.68c-.12-.15-.27-.22-.44-.22s-.32.08-.45.24c-.13.16-.2.39-.2.7Z"/><path class="cls-2" d="M13.65,33.8c-.15.13-.29.22-.43.27-.14.05-.28.08-.44.08-.26,0-.46-.06-.6-.19-.14-.13-.21-.29-.21-.49,0-.12.03-.22.08-.32.05-.1.12-.17.21-.23.09-.06.18-.1.29-.13.08-.02.2-.04.36-.06.32-.04.56-.08.71-.14,0-.05,0-.09,0-.1,0-.16-.04-.28-.11-.35-.1-.09-.25-.14-.46-.14-.19,0-.33.03-.42.1-.09.07-.16.18-.2.35l-.39-.05c.04-.17.09-.3.18-.41.08-.1.2-.18.35-.24.15-.06.33-.08.54-.08s.37.02.49.07c.13.05.22.11.28.18.06.07.1.16.12.27.01.07.02.19.02.37v.53c0,.37,0,.61.03.71.02.1.05.19.1.28h-.42c-.04-.08-.07-.18-.08-.29ZM13.62,32.9c-.15.06-.36.11-.65.15-.16.02-.28.05-.35.08-.07.03-.12.07-.16.13-.04.06-.06.12-.06.19,0,.11.04.2.12.27.08.07.2.11.36.11s.29-.03.41-.1c.12-.07.21-.16.26-.28.04-.09.06-.22.06-.4v-.15ZM12.44,31.26v-.46h.42v.46h-.42ZM13.27,31.26v-.46h.42v.46h-.42Z"/><path class="cls-2" d="M14.65,31.29v-.46h.4v.46h-.4ZM14.65,34.09v-2.36h.4v2.36h-.4Z"/><path class="cls-2" d="M15.5,33.38l.4-.06c.02.16.08.28.19.37.1.08.24.13.43.13s.32-.04.41-.11c.09-.07.13-.16.13-.26,0-.09-.04-.16-.12-.21-.06-.04-.19-.08-.41-.14-.29-.07-.5-.14-.61-.19-.11-.05-.2-.13-.26-.22-.06-.1-.09-.2-.09-.32,0-.11.02-.2.07-.29.05-.09.11-.16.2-.22.06-.05.15-.08.25-.12.11-.03.22-.05.35-.05.19,0,.35.03.49.08.14.05.24.13.31.22.07.09.11.21.14.37l-.39.05c-.02-.12-.07-.22-.15-.28-.09-.07-.21-.1-.36-.1-.18,0-.32.03-.39.09-.08.06-.12.13-.12.21,0,.05.02.1.05.14.03.04.08.08.15.11.04.01.16.05.35.1.28.08.48.14.59.19.11.05.2.12.26.21.06.09.1.21.1.34s-.04.26-.12.38c-.08.12-.19.21-.34.27-.15.06-.31.1-.5.1-.31,0-.54-.06-.7-.19-.16-.13-.26-.32-.31-.57Z"/><path class="cls-2" d="M19.48,33.22l.39.05c-.04.27-.15.48-.33.64-.18.15-.4.23-.65.23-.32,0-.58-.11-.78-.32-.2-.21-.29-.51-.29-.91,0-.26.04-.48.13-.67.08-.19.21-.34.39-.43.17-.1.36-.14.56-.14.26,0,.47.06.63.19.16.13.27.31.31.55l-.39.06c-.04-.16-.1-.28-.2-.36-.09-.08-.21-.12-.34-.12-.2,0-.37.07-.49.22-.13.14-.19.37-.19.69s.06.55.18.69c.12.14.28.22.48.22.16,0,.29-.05.39-.14.11-.1.17-.24.2-.45Z"/><path class="cls-2" d="M20.22,34.09v-3.26h.4v1.17c.19-.22.42-.33.71-.33.18,0,.33.03.46.1.13.07.22.16.28.29.06.12.08.3.08.53v1.5h-.4v-1.5c0-.2-.04-.35-.13-.44-.09-.09-.21-.14-.37-.14-.12,0-.23.03-.34.09-.1.06-.18.15-.22.25-.04.11-.07.25-.07.44v1.29h-.4Z"/><path class="cls-2" d="M24.37,33.33l.41.05c-.07.24-.19.43-.36.56-.18.13-.4.2-.68.2-.35,0-.62-.11-.82-.32-.2-.21-.3-.51-.3-.9s.1-.71.31-.93c.2-.22.47-.33.8-.33s.57.11.77.32c.2.22.3.52.3.91,0,.02,0,.06,0,.11h-1.76c.01.26.09.46.22.6.13.14.3.21.49.21.15,0,.27-.04.38-.12.1-.08.19-.2.25-.37ZM23.05,32.68h1.32c-.02-.2-.07-.35-.15-.45-.13-.15-.29-.23-.5-.23-.18,0-.34.06-.46.18-.13.12-.19.29-.21.49Z"/><path class="cls-2" d="M25.28,34.09v-2.36h.36v.36c.09-.17.18-.28.25-.33.08-.05.16-.08.26-.08.14,0,.27.04.41.13l-.14.37c-.1-.06-.2-.09-.29-.09-.09,0-.17.03-.24.08-.07.05-.12.13-.15.22-.04.14-.07.3-.07.47v1.24h-.4Z"/><path class="cls-2" d="M27.98,33.04l.41-.04c.02.16.06.3.13.4.07.1.18.19.33.25.15.06.32.1.5.1.16,0,.31-.02.44-.07.13-.05.22-.12.28-.2.06-.09.09-.18.09-.28s-.03-.19-.09-.27c-.06-.08-.16-.14-.29-.19-.09-.03-.28-.09-.58-.16-.3-.07-.51-.14-.63-.2-.16-.08-.27-.18-.35-.3-.08-.12-.11-.26-.11-.41,0-.16.05-.32.14-.46.09-.14.23-.25.41-.33.18-.07.38-.11.6-.11.24,0,.46.04.64.12.18.08.33.19.43.34.1.15.15.32.16.51l-.41.03c-.02-.21-.1-.36-.23-.47-.13-.11-.32-.16-.57-.16s-.45.05-.57.14c-.12.1-.18.21-.18.35,0,.12.04.21.13.29.08.08.3.15.65.23.35.08.59.15.72.21.19.09.33.2.42.33.09.13.14.29.14.46s-.05.34-.15.49c-.1.15-.24.27-.43.36-.19.09-.4.13-.63.13-.3,0-.54-.04-.74-.13-.2-.09-.36-.22-.47-.39-.11-.17-.17-.37-.18-.59Z"/><path class="cls-2" d="M30.96,32.91c0-.44.12-.76.37-.97.2-.18.45-.26.74-.26.33,0,.59.11.8.32.21.21.31.51.31.88,0,.3-.05.54-.14.72-.09.17-.22.31-.4.41-.17.1-.36.14-.57.14-.33,0-.6-.11-.8-.32-.2-.21-.31-.52-.31-.92ZM31.38,32.91c0,.3.07.53.2.68.13.15.3.23.5.23s.36-.08.5-.23c.13-.15.2-.38.2-.69,0-.29-.07-.51-.2-.66-.13-.15-.3-.23-.5-.23s-.37.07-.5.22c-.13.15-.2.38-.2.68Z"/><path class="cls-2" d="M33.44,34.09v-.33l1.5-1.73c-.17,0-.32.01-.45.01h-.96v-.33h1.93v.26l-1.28,1.5-.25.27c.18-.01.35-.02.51-.02h1.09v.35h-2.09Z"/><path class="cls-2" d="M35.93,31.29v-.46h.4v.46h-.4ZM35.93,34.09v-2.36h.4v2.36h-.4Z"/><path class="cls-2" d="M38.48,33.8c-.15.13-.29.22-.43.27-.14.05-.28.08-.44.08-.26,0-.46-.06-.6-.19-.14-.13-.21-.29-.21-.49,0-.12.03-.22.08-.32.05-.1.12-.17.21-.23.09-.06.18-.1.29-.13.08-.02.2-.04.36-.06.32-.04.56-.08.71-.14,0-.05,0-.09,0-.1,0-.16-.04-.28-.11-.35-.1-.09-.25-.14-.46-.14-.19,0-.33.03-.42.1-.09.07-.16.18-.2.35l-.39-.05c.04-.17.09-.3.18-.41.08-.1.2-.18.35-.24.15-.06.33-.08.54-.08s.37.02.49.07c.13.05.22.11.28.18.06.07.1.16.12.27.01.07.02.19.02.37v.53c0,.37,0,.61.03.71.02.1.05.19.1.28h-.42c-.04-.08-.07-.18-.08-.29ZM38.45,32.9c-.15.06-.36.11-.65.15-.16.02-.28.05-.35.08-.07.03-.12.07-.16.13-.04.06-.06.12-.06.19,0,.11.04.2.12.27.08.07.2.11.36.11s.29-.03.41-.1c.12-.07.21-.16.27-.28.04-.09.06-.22.06-.4v-.15Z"/><path class="cls-2" d="M39.47,34.09v-3.26h.4v3.26h-.4Z"/><path class="cls-2" d="M40.59,34.09v-2.05h-.35v-.31h.35v-.25c0-.16.01-.28.04-.35.04-.1.11-.19.2-.25.1-.06.23-.1.41-.1.11,0,.24.01.37.04l-.06.35c-.08-.01-.16-.02-.24-.02-.12,0-.21.03-.26.08-.05.05-.08.15-.08.29v.22h.46v.31h-.46v2.05h-.4Z"/><path class="cls-2" d="M41.61,32.91c0-.44.12-.76.37-.97.2-.18.45-.26.74-.26.33,0,.59.11.8.32.21.21.31.51.31.88,0,.3-.05.54-.14.72-.09.17-.22.31-.4.41-.17.1-.36.14-.57.14-.33,0-.6-.11-.8-.32-.2-.21-.31-.52-.31-.92ZM42.02,32.91c0,.3.07.53.2.68.13.15.3.23.5.23s.36-.08.5-.23c.13-.15.2-.38.2-.69,0-.29-.07-.51-.2-.66-.13-.15-.3-.23-.5-.23s-.37.07-.5.22c-.13.15-.2.38-.2.68Z"/><path class="cls-2" d="M44.29,34.09v-2.36h.36v.34c.17-.26.42-.39.75-.39.14,0,.27.03.39.08.12.05.21.12.27.2.06.08.1.18.12.3.01.07.02.2.02.39v1.45h-.4v-1.44c0-.16-.02-.29-.05-.37-.03-.08-.09-.15-.17-.19-.08-.05-.17-.07-.28-.07-.17,0-.32.05-.44.16-.12.11-.19.31-.19.62v1.29h-.4Z"/><path class="cls-2" d="M48.36,34.09v-.3c-.15.23-.37.35-.66.35-.19,0-.36-.05-.52-.16-.16-.1-.28-.25-.37-.44-.09-.19-.13-.4-.13-.64s.04-.45.12-.64c.08-.19.2-.34.35-.44.16-.1.33-.15.53-.15.14,0,.27.03.38.09.11.06.2.14.27.23v-1.17h.4v3.26h-.37ZM47.1,32.91c0,.3.06.53.19.68.13.15.28.22.45.22s.32-.07.45-.21c.12-.14.18-.36.18-.66,0-.32-.06-.56-.19-.71-.12-.15-.28-.23-.46-.23s-.33.07-.45.22c-.12.15-.18.37-.18.69Z"/><path class="cls-2" d="M49.2,33.38l.4-.06c.02.16.08.28.19.37.1.08.24.13.43.13s.32-.04.41-.11c.09-.07.13-.16.13-.26,0-.09-.04-.16-.12-.21-.06-.04-.19-.08-.41-.14-.29-.07-.5-.14-.61-.19-.11-.05-.2-.13-.26-.22-.06-.1-.09-.2-.09-.32,0-.11.02-.2.07-.29.05-.09.11-.16.2-.22.06-.05.15-.08.25-.12.11-.03.22-.05.35-.05.19,0,.35.03.49.08.14.05.24.13.31.22.07.09.11.21.14.37l-.39.05c-.02-.12-.07-.22-.15-.28-.09-.07-.21-.1-.36-.1-.18,0-.32.03-.39.09-.08.06-.12.13-.12.21,0,.05.02.1.05.14.03.04.08.08.15.11.04.01.16.05.35.1.28.08.48.14.59.19.11.05.2.12.26.21.06.09.1.21.1.34s-.04.26-.12.38c-.08.12-.19.21-.34.27-.15.06-.31.1-.5.1-.31,0-.54-.06-.7-.19-.16-.13-.26-.32-.31-.57Z"/></svg>