<?xml version="1.0" encoding="UTF-8"?>
<svg id="Ebene_1" data-name="Ebene 1" xmlns="http://www.w3.org/2000/svg" version="1.1" viewBox="0 0 343 72.8">
  <defs>
    <style>
      .cls-1 {
        fill: #da1f3d;
      }

      .cls-1, .cls-2 {
        stroke-width: 0px;
      }

      .cls-2 {
        fill: #6c6e70;
      }
    </style>
  </defs>
  <path class="cls-2" d="M87.9,4.3c-2,.2-2.2.3-2.2,2.3v9.7c0,2,.2,2.1,2.1,2.3v.7h-6.5v-.7c2-.1,2.3-.3,2.3-2.3v-4.8h-8.2v4.8c0,2,.2,2.1,2.2,2.3v.7h-6.3v-.7c1.9-.1,2.1-.3,2.1-2.3V6.6c0-2-.2-2.1-2.2-2.3v-.7h6.2v.7c-1.8.2-2,.3-2,2.3v3.9h8.2v-3.9c0-2-.2-2.1-2.1-2.3v-.7h6.3v.7M94.8,9.3c-1.5,0-2.8,1.5-2.8,4.2s1.3,5.3,3.3,5.3,2.7-1.1,2.7-4.4-1.1-5.1-3.2-5.1c0,0,0,0,0,0ZM95.1,8.5c3,0,5.2,2.4,5.2,5.4s-2.8,5.7-5.2,5.7-5.3-2.6-5.3-5.3c0-4,3.1-5.8,5.3-5.8h0M111,17.1c-1.1,1.4-2.7,2.5-4.1,2.5-3,0-4.8-2.5-4.8-5s.8-3.5,2.4-4.7c1.3-1,2.7-1.3,3.6-1.3h0c1,0,1.8.3,2.1.6.3.3.4.5.4.7,0,.5-.5,1-.8,1s-.2,0-.5-.3c-.7-.7-1.6-1-2.4-1-1.6,0-3,1.3-3,3.9s2.3,4.5,3.6,4.5,1.8-.3,2.9-1.3l.4.5M118.7,19.3v-.6c1.4-.1,1.6-.3,1.6-1.9v-4c0-2-.7-3-2.4-3s-1.8.5-2.5,1.2v5.7c0,1.5.1,1.7,1.5,1.9v.6h-5.1v-.6c1.5-.1,1.7-.3,1.7-1.9V5.3c0-1.5,0-1.6-1.6-1.8v-.6c1.2-.2,2.6-.6,3.5-.8v8.1c.8-.9,2.1-1.8,3.4-1.8,2,0,3.3,1.2,3.3,4.1v4.2c0,1.6.2,1.7,1.6,1.9v.6h-5.1M131.4,11.6c-.5-1.4-1.3-2.4-2.5-2.4s-1.6.7-1.6,1.7,1,1.6,2.1,2.1c1.8.7,3,1.6,3,3.3s-2,3.3-4,3.3-2.3-.5-2.8-.8c-.2-.3-.4-2-.4-2.8h.6c.4,1.5,1.5,2.9,3,2.9s1.7-.7,1.7-1.7-.7-1.6-1.9-2.2c-1.4-.7-3-1.5-3-3.3s1.4-3.1,3.7-3.1c1,0,1.6.2,2.1.4.2.6.5,2,.5,2.6h-.6M143.1,17.1c-1.1,1.4-2.7,2.5-4.1,2.5-3,0-4.8-2.5-4.8-5s.8-3.5,2.4-4.7c1.3-1,2.7-1.3,3.6-1.3h0c1,0,1.8.3,2.1.6.3.3.4.5.4.7,0,.5-.5,1-.8,1s-.2,0-.5-.3c-.7-.7-1.6-1-2.4-1-1.6,0-3,1.3-3,3.9s2.3,4.5,3.6,4.5,1.8-.3,2.9-1.3l.4.5M150.8,19.3v-.6c1.4-.1,1.6-.3,1.6-1.9v-4c0-2-.7-3-2.4-3s-1.8.5-2.5,1.2v5.7c0,1.5.1,1.7,1.5,1.9v.6h-5.1v-.6c1.5-.1,1.7-.3,1.7-1.9V5.3c0-1.5,0-1.6-1.6-1.8v-.6c1.2-.2,2.6-.6,3.5-.8v8.1c.8-.9,2.1-1.8,3.4-1.8,2,0,3.3,1.2,3.3,4.1v4.2c0,1.6.2,1.7,1.6,1.9v.6h-5.1M168.9,18.7c-.5,0-1.2.2-1.9.4-.6.2-1.2.4-1.7.5h-.1v-1.9c-.6.4-1.1.8-1.8,1.2-.7.4-1.2.6-1.9.6-1.6,0-3-1-3-3.6v-4.7c0-1.3-.2-1.4-.8-1.5h-.7v-.7c.5,0,1.1,0,1.7-.2.6,0,1.3-.2,1.7-.3,0,.7,0,1.9,0,3.5v3.3c0,2.1,1,2.7,2.1,2.7s1.8-.4,2.6-1.2v-5.6c0-1.3-.2-1.4-1-1.6h-.9v-.7c.6,0,1.5,0,2.2-.2.7,0,1.3-.2,1.6-.2v8c0,1.2.2,1.4,1.1,1.4h.7v.7M169.6,19.3v-.6c1.5-.1,1.7-.3,1.7-1.9V5.4c0-1.6-.1-1.7-1.7-1.8v-.6c1.2-.1,2.7-.6,3.6-.8v14.7c0,1.6.2,1.7,1.7,1.9v.6h-5.4M180.8,9.4c-1.1,0-2.1,1-2.5,3,1.4,0,2.7,0,4.1,0,.4,0,.6-.1.6-.5,0-1.3-.8-2.4-2.1-2.4h0ZM184.9,17.2c-1.5,1.9-3.2,2.3-3.9,2.3-3,0-4.7-2.4-4.7-5.1s.6-3.1,1.6-4.2c1-1.1,2.3-1.8,3.5-1.8h0c2,0,3.6,1.8,3.6,3.7s-.1.7-.6.8c-.4,0-3.4.3-6.3.4,0,3.3,1.9,4.6,3.6,4.6s1.9-.4,2.7-1.2l.4.5M193.6,8.8v-.5c0-.7,0-1.4.3-2,.2-.5.6-1.7,1.9-2.8.8-.7,1.7-1.2,2.6-1.3.8,0,1.5.4,1.9.8.2.3.2.6.1.8,0,.2-.2.4-.5.6-.2.2-.4.2-.6,0-.5-.4-1.2-.9-2-.9s-1,.3-1.3.7c-.3.5-.6,1.6-.6,3.7v1h2.8c.1.2,0,.8-.2.9h-2.6v6.9c0,1.8.2,1.9,2.1,2v.6h-5.7v-.6c1.5-.1,1.7-.3,1.7-1.9v-7.1h-1.7v-.2c0,0,.6-.7.6-.7h1.1"/>
  <path class="cls-2" d="M205.5,5.2c0-.7.5-1.2,1.2-1.2s1.1.5,1.1,1.2-.5,1.2-1.2,1.2-1.1-.6-1.1-1.2h0ZM201.4,5.2c0-.7.5-1.2,1.2-1.2s1.1.5,1.1,1.2-.5,1.2-1.1,1.2-1.2-.6-1.2-1.2h0ZM210.9,18.7c-.5,0-1.2.2-1.9.4-.6.2-1.2.4-1.7.5h-.1v-1.9c-.6.4-1.1.8-1.8,1.2-.7.4-1.2.6-1.9.6-1.6,0-3-1-3-3.6v-4.7c0-1.3-.2-1.4-.8-1.5h-.7v-.7c.5,0,1.1,0,1.7-.2.6,0,1.3-.2,1.7-.3,0,.7,0,1.9,0,3.5v3.3c0,2.1,1,2.7,2.1,2.7s1.8-.4,2.6-1.2v-5.6c0-1.3-.2-1.4-1-1.6h-.9v-.7c.6,0,1.5,0,2.2-.2.7,0,1.3-.2,1.6-.2v8c0,1.2.2,1.4,1.1,1.4h.7v.7M215.6,11c.7-1.2,1.8-2.6,2.9-2.6s1.4.6,1.4,1.2-.3,1-.8,1.2c-.3.1-.5,0-.6,0-.3-.4-.6-.5-1-.5-.6,0-1.4.7-1.9,2.1v4.4c0,1.6.1,1.7,2,1.9v.6h-5.5v-.6c1.5-.1,1.7-.3,1.7-1.9v-5c0-1.6-.1-1.7-1.5-1.9v-.5c1.2-.2,2.2-.5,3.4-1v2.6h0M93.4,31c-1.7.2-1.9.4-2.6,2.4-.6,1.5-2,6.1-4,12.8h-.7c-1.3-3.9-3-8.5-4.2-12h0c-1.3,4.2-2.7,8.1-3.9,12h-.7c-1.3-4.4-2.6-8.6-4-12.9-.6-2-1-2.2-2.4-2.4v-.7h5.9v.7c-1.8.2-1.8.4-1.4,1.6.9,3.3,1.9,6.5,2.9,9.9h0c1.3-4.1,2.7-8.1,3.9-12h.7c1.3,4,2.7,7.9,4.2,12h0c1-3.2,2.3-8,2.7-9.7.3-1.4.2-1.7-1.7-1.9v-.7h5.3v.7M95,31.9c0-.7.6-1.3,1.2-1.3s1.2.5,1.2,1.3-.5,1.2-1.2,1.2-1.2-.6-1.2-1.2h0ZM93.7,46v-.6c1.5-.1,1.7-.3,1.7-1.9v-5c0-1.5,0-1.6-1.5-1.8v-.6c1.2-.2,2.4-.5,3.4-.9v8.3c0,1.6.2,1.8,1.7,1.9v.6h-5.3M103.9,37.7c.7-1.2,1.8-2.6,2.9-2.6s1.4.6,1.4,1.2-.3,1-.8,1.2c-.3.1-.5,0-.7,0-.3-.4-.6-.5-1-.5-.6,0-1.4.7-1.9,2.1v4.4c0,1.6.1,1.7,2,1.9v.6h-5.5v-.6c1.5-.1,1.7-.3,1.7-1.9v-5c0-1.6-.1-1.7-1.5-1.9v-.5c1.2-.2,2.2-.5,3.4-1v2.6h0M114,46c-.4.2-.8.3-1,.3-1.5,0-2.4-1-2.4-2.9v-7h-1.7v-.2c0,0,.6-.7.6-.7h1.1v-1.8l1.6-1.6h.3v3.4h2.7c.2.2.1.8-.1.9h-2.6v6.2c0,2,.8,2.3,1.4,2.3s1.2-.2,1.5-.4l.2.6-1.6.8M122.9,38.3c-.5-1.4-1.3-2.4-2.5-2.4s-1.6.7-1.6,1.7,1,1.6,2.1,2.1c1.8.7,3,1.6,3,3.3s-2,3.3-4,3.3-2.3-.5-2.8-.8c-.2-.3-.4-2-.4-2.8h.6c.4,1.5,1.5,2.9,3,2.9s1.7-.7,1.7-1.7-.7-1.6-1.9-2.2c-1.4-.7-3-1.5-3-3.3s1.4-3.1,3.7-3.1c1,0,1.6.2,2.1.4.2.6.5,2,.5,2.6h-.6M134.6,43.8c-1.1,1.4-2.7,2.5-4.1,2.5-3,0-4.8-2.5-4.8-5s.8-3.5,2.4-4.7c1.3-1,2.7-1.3,3.6-1.3h0c1,0,1.8.3,2.1.6.3.3.4.5.4.7,0,.5-.5,1-.8,1s-.2,0-.5-.3c-.7-.7-1.6-1-2.4-1-1.6,0-3,1.3-3,3.9s2.3,4.5,3.6,4.5,1.8-.3,2.9-1.3l.4.5M142.3,46v-.6c1.4-.1,1.6-.3,1.6-1.9v-4c0-2-.7-3-2.4-3s-1.8.5-2.5,1.2v5.7c0,1.5.1,1.7,1.5,1.9v.6h-5.1v-.6c1.5-.1,1.7-.3,1.7-1.9v-11.5c0-1.5,0-1.6-1.6-1.8v-.6c1.2-.2,2.6-.6,3.5-.8v8.1c.8-.9,2.1-1.8,3.4-1.8,2,0,3.3,1.2,3.3,4.1v4.2c0,1.6.2,1.7,1.6,1.9v.6h-5.1M154.5,40.2c-.5.3-1.7.8-2.2,1-.9.4-1.5.9-1.5,1.8,0,1.3,1,1.9,1.7,1.9.6,0,1.5-.4,1.9-.9v-3.8ZM156.3,46.3c-.4,0-.9-.2-1.1-.5-.3-.3-.5-.7-.6-1.1-1,.7-2.1,1.5-2.8,1.5-1.7,0-2.9-1.4-2.9-2.9s.6-1.9,2-2.4c1.4-.5,3.2-1.1,3.7-1.6v-.4c0-1.7-.8-2.7-2-2.7s-.8.2-1.1.5c-.3.3-.5.8-.7,1.6,0,.4-.4.6-.7.6s-1.1-.5-1.1-1,.3-.6.8-1c.7-.5,2.2-1.4,3.6-1.7.7,0,1.4.2,2,.7.8.7,1.1,1.7,1.1,2.9v4.5c0,1.1.4,1.4.8,1.4s.6-.1.9-.3l.2.6-2.1,1.2M170.8,46c-.4.2-.8.3-1,.3-1.5,0-2.4-1-2.4-2.9v-7h-4.6v7c0,1.6.2,1.8,1.8,1.9v.6h-5.4v-.6c1.5-.2,1.7-.4,1.7-1.9v-7.1h-1.7v-.3c-.1,0,.5-.7.5-.7h1.2v-.6c0-.7,0-1.3.2-1.9.2-.6.6-1.8,1.9-2.9.9-.7,1.8-1.2,2.6-1.3.9,0,1.5.4,1.8.7.2.3.3.6.2.9-.1.2-.3.5-.6.6-.2.1-.4.1-.6,0-.4-.4-1.2-.8-1.9-.8s-1,.2-1.3.7c-.3.5-.6,1.6-.6,4v.6h4.6v-1.6l1.5-1.6h.3v3.3h2.7c.2.2.1.8-.2,1h-2.6v6.2c0,2,.8,2.3,1.4,2.3s1.2-.2,1.5-.4l.2.7-1.7.8M190.6,45.4c-.5,0-1.2.2-1.9.4-.6.2-1.2.4-1.7.5h-.1v-1.9c-.6.4-1.1.8-1.8,1.2-.7.4-1.2.6-1.9.6-1.6,0-3-1-3-3.6v-4.7c0-1.3-.2-1.4-.8-1.5h-.7v-.7c.5,0,1.1,0,1.7-.2.6,0,1.3-.2,1.7-.3,0,.7,0,1.9,0,3.5v3.3c0,2.1,1,2.7,2.1,2.7s1.8-.4,2.6-1.2v-5.6c0-1.3-.2-1.4-1-1.6h-.9v-.7c.6,0,1.5,0,2.2-.2.7,0,1.3-.2,1.6-.2v8c0,1.2.2,1.4,1.1,1.4h.7v.7M198.6,46v-.6c1.4-.1,1.6-.3,1.6-2v-4c0-1.7-.6-2.7-2.2-2.7s-1.9.6-2.6,1.2v5.7c0,1.6.1,1.7,1.6,1.9v.6h-5.2v-.6c1.6-.2,1.8-.3,1.8-1.9v-5c0-1.5-.1-1.6-1.4-1.9v-.6c1.2-.2,2.3-.5,3.4-1v1.9c.5-.4,1-.7,1.6-1.1.7-.4,1.3-.7,2-.7,1.9,0,3.1,1.3,3.1,3.7v4.7c0,1.6.1,1.7,1.5,1.9v.6h-5M212.9,37.3c-.6-.8-1.6-1.2-2.5-1.2s-3.1.9-3.1,4.4,1.8,4.3,3.3,4.3,1.7-.4,2.3-.8v-6.7h0ZM216.7,45.4c-.5,0-2.3.4-3.7.9v-1.6l-1.5.9c-.9.6-1.6.7-1.9.7-1.9,0-4.5-1.8-4.5-5.1s2.9-6,6.2-6,1,0,1.6.3v-3.4c0-1.6-.1-1.7-1.9-1.8v-.6c1.3-.2,2.9-.5,3.8-.8v14.4c0,1.3.2,1.4,1.1,1.5h.8v.7M228.7,38.4c1.2,0,2-.2,2.6-.7.9-.7,1.3-1.7,1.3-3,0-2.6-1.7-3.6-3.5-3.6s-1.1,0-1.3.2c-.2.1-.3.4-.3,1.1v5.9h1.2,0ZM237.6,46.2c-.3,0-.6,0-.8,0-1.8,0-2.8-.6-3.9-2.2-.8-1.2-1.7-2.7-2.4-3.9-.4-.7-.8-1-2.1-1h-.8v3.8c0,2,.2,2.2,2.1,2.3v.7h-6.3v-.7c2-.1,2.2-.3,2.2-2.3v-9.7c0-2-.2-2.1-2.1-2.3v-.7h6c1.8,0,2.9.2,3.9.8,1,.6,1.6,1.7,1.6,3.2,0,2.1-1.3,3.3-3.1,4.1.4.8,1.4,2.4,2.1,3.5.9,1.3,1.4,1.9,2,2.5.6.7,1.2,1,1.7,1.1v.6M242.9,36.1c-1.1,0-2.1,1-2.5,3,1.4,0,2.7,0,4.1,0,.4,0,.6-.1.6-.5,0-1.3-.8-2.4-2.1-2.4h0ZM247,44c-1.5,1.9-3.2,2.3-3.9,2.3-3,0-4.7-2.4-4.7-5.1s.6-3.1,1.6-4.2c1-1.1,2.3-1.8,3.5-1.8h0c2,0,3.6,1.8,3.6,3.7s-.1.7-.6.8c-.4,0-3.4.3-6.3.4,0,3.3,1.9,4.6,3.6,4.6s1.9-.4,2.7-1.2l.4.5M257.6,43.8c-1.1,1.4-2.7,2.5-4.1,2.5-3,0-4.8-2.5-4.8-5s.8-3.5,2.4-4.7c1.3-1,2.7-1.3,3.6-1.3h0c1,0,1.8.3,2.1.6.3.3.4.5.4.7,0,.5-.5,1-.8,1s-.2,0-.5-.3c-.7-.7-1.6-1-2.4-1-1.6,0-3,1.3-3,3.9s2.3,4.5,3.6,4.5,1.8-.3,2.9-1.3l.4.5M265.3,46v-.6c1.4-.1,1.6-.3,1.6-1.9v-4c0-2-.7-3-2.4-3s-1.8.5-2.5,1.2v5.7c0,1.5.1,1.7,1.5,1.9v.6h-5.1v-.6c1.5-.1,1.7-.3,1.7-1.9v-11.5c0-1.5,0-1.6-1.6-1.8v-.6c1.2-.2,2.6-.6,3.5-.8v8.1c.8-.9,2.1-1.8,3.5-1.8,1.9,0,3.3,1.2,3.3,4.1v4.2c0,1.6.2,1.7,1.6,1.9v.6h-5.1M276.5,46c-.4.2-.8.3-1,.3-1.5,0-2.4-1-2.4-2.9v-7h-1.7v-.2c0,0,.6-.7.6-.7h1.1v-1.8l1.6-1.6h.3v3.4h2.7c.2.2.1.8-.1.9h-2.6v6.2c0,2,.8,2.3,1.4,2.3s1.2-.2,1.5-.4l.2.6-1.6.8M289,43c0,1.7.5,2.2,2,2.2,2,0,3.7-1,3.7-3.5s-1.7-3.6-4.6-3.6h-1.1v4.9h0ZM290.1,37.3c2.6,0,3.8-1.1,3.8-3.1s-.9-3.1-3.2-3.1-1.1,0-1.4.2c-.2.1-.3.4-.3,1.2v4.7h1.1,0ZM292.8,37.6c2.4.4,4.3,1.4,4.3,3.8s-.9,2.8-2.3,3.6c-1.2.7-2.8,1-4.7,1h-5.3v-.7c2.1-.1,2.2-.3,2.2-2.3v-9.7c0-2,0-2.1-2-2.3v-.7h6.2c1.8,0,2.9.3,3.6.8.9.6,1.3,1.6,1.3,2.7,0,2.3-1.9,3.2-3.3,3.6h0M303.5,36.1c-1.1,0-2.1,1-2.5,3,1.4,0,2.7,0,4.1,0,.4,0,.6-.1.6-.5,0-1.3-.8-2.4-2.1-2.4h0ZM307.6,44c-1.5,1.9-3.2,2.3-3.9,2.3-3,0-4.7-2.4-4.7-5.1s.6-3.1,1.6-4.2c1-1.1,2.3-1.8,3.5-1.8h0c2,0,3.6,1.8,3.6,3.7s-.1.7-.6.8c-.4,0-3.4.3-6.3.4,0,3.3,1.9,4.6,3.6,4.6s1.9-.4,2.7-1.2l.4.5M312.8,37.7c.7-1.2,1.8-2.6,2.9-2.6s1.4.6,1.4,1.2-.3,1-.8,1.2c-.3.1-.5,0-.6,0-.3-.4-.6-.5-1-.5-.6,0-1.4.7-1.9,2.1v4.4c0,1.6.1,1.7,2,1.9v.6h-5.5v-.6c1.5-.1,1.7-.3,1.7-1.9v-5c0-1.6-.1-1.7-1.5-1.9v-.5c1.2-.2,2.2-.5,3.4-1v2.6h0M317.7,46v-.6c1.5-.1,1.7-.3,1.7-1.9v-11.4c0-1.6-.1-1.7-1.7-1.8v-.6c1.2-.1,2.7-.6,3.6-.8v14.7c0,1.6.2,1.7,1.7,1.9v.6h-5.4M325.5,31.9c0-.7.6-1.3,1.2-1.3s1.2.5,1.2,1.3-.5,1.2-1.2,1.2-1.2-.6-1.2-1.2ZM324.3,46v-.6c1.5-.1,1.7-.3,1.7-1.9v-5c0-1.5,0-1.6-1.5-1.8v-.6c1.2-.2,2.4-.5,3.4-.9v8.3c0,1.6.2,1.8,1.7,1.9v.6h-5.3M337.6,46v-.6c1.4-.1,1.6-.3,1.6-2v-4c0-1.7-.6-2.7-2.2-2.7s-1.9.6-2.6,1.2v5.7c0,1.6.1,1.7,1.6,1.9v.6h-5.2v-.6c1.6-.2,1.8-.3,1.8-1.9v-5c0-1.5-.1-1.6-1.4-1.9v-.6c1.2-.2,2.3-.5,3.4-1v1.9c.5-.4,1-.7,1.6-1.1.7-.4,1.3-.7,2-.7,1.9,0,3.1,1.3,3.1,3.7v4.7c0,1.6.1,1.7,1.5,1.9v.6h-5"/>
  <path class="cls-1" d="M78.1,67.5h-2.8v3.6h2.8c1.3,0,2-.8,2-1.8s-.7-1.8-2-1.8h0ZM77.9,62.4h-2.7v3.4h2.7c1.2,0,1.9-.6,1.9-1.7s-.8-1.7-1.9-1.7h0ZM78.3,72.7h-4.8v-11.9h4.6c2.2,0,3.6,1.2,3.6,3.3s-.8,2.2-1.6,2.5c.9.4,1.8,1.3,1.8,2.8,0,2.2-1.5,3.4-3.6,3.4M89.2,66.6c-.3-.6-.9-1.1-1.7-1.1s-1.4.4-1.7,1.1c-.2.4-.2.6-.2,1.2h3.8c0-.5,0-.8-.2-1.2ZM85.6,69c0,1.5.8,2.4,2.2,2.4s1.5-.3,2.1-.9l1.1,1c-.9.9-1.7,1.3-3.2,1.3-2.1,0-3.8-1.1-3.8-4.3s1.4-4.3,3.6-4.3,3.6,1.7,3.6,4.1v.8h-5.5M98,66.2c-.4-.4-.7-.6-1.3-.6-.9,0-1.7.7-1.7,1.9v5.2h-1.7v-8.5h1.7v.9c.4-.6,1.3-1,2.3-1s1.4.2,2,.8l-1.3,1.3M102.9,72.7c-1.6,0-2.3-1.1-2.3-2.3v-9.6h1.7v9.5c0,.6.2,1,.9,1h.8v1.5h-1.1M107.6,72.7h-1.7v-8.5h1.7v8.5ZM107.6,62.6h-1.8v-1.8h1.8v1.8h0ZM115.4,72.7v-5.2c0-1.3-.8-1.9-1.7-1.9s-1.8.6-1.8,1.9v5.2h-1.7v-8.5h1.7v.9c.6-.6,1.4-1,2.3-1s1.6.3,2.1.8c.7.6.9,1.4.9,2.4v5.4h-1.7M127.1,72.8c-1.8,0-3.1-.4-4.2-1.6l1.2-1.2c.9.9,1.8,1.1,3,1.1s2.5-.7,2.5-1.8-.1-1-.5-1.2c-.3-.3-.6-.4-1.3-.5l-1.4-.2c-1-.1-1.7-.5-2.3-.9-.6-.6-.9-1.3-.9-2.3,0-2.1,1.5-3.5,4-3.5s2.7.4,3.7,1.4l-1.2,1.1c-.7-.7-1.6-.9-2.6-.9s-2.2.8-2.2,1.9.1.8.5,1.1c.3.3.8.5,1.3.6l1.4.2c1.1.2,1.7.4,2.2.9.7.6,1,1.4,1,2.4,0,2.2-1.8,3.5-4.3,3.5M137,72.8c-1.9,0-3.8-1.2-3.8-4.3s1.9-4.3,3.8-4.3,2,.3,2.8,1.2l-1.2,1.1c-.5-.6-1-.8-1.6-.8s-1.2.3-1.6.8c-.4.5-.5,1.1-.5,2.1s.1,1.6.5,2.1c.4.5.9.8,1.6.8s1.1-.2,1.6-.8l1.2,1.1c-.8.8-1.6,1.2-2.8,1.2M146.9,72.7v-5.2c0-1.3-.8-1.9-1.7-1.9s-1.7.6-1.7,1.9v5.2h-1.7v-11.9h1.7v4.3c.6-.6,1.4-1,2.2-1,1.9,0,2.9,1.3,2.9,3.1v5.5h-1.7M155.6,66.2c-.3-.3-.7-.5-1.3-.5s-.9.2-1.2.5c-.5.5-.6,1.4-.6,2.3s0,1.8.6,2.3c.3.3.7.5,1.2.5s.9-.2,1.3-.5c.5-.5.6-1.4.6-2.3s0-1.8-.6-2.3h0ZM156.9,71.8c-.6.6-1.4,1-2.5,1s-2-.4-2.5-1c-.8-.8-1-1.9-1-3.3s.2-2.5,1-3.3c.6-.6,1.4-1,2.5-1s2,.4,2.5,1c.8.8,1,1.9,1,3.3s-.2,2.5-1,3.3M164.6,66.2c-.3-.3-.8-.5-1.3-.5s-.9.2-1.2.5c-.5.5-.6,1.4-.6,2.3s0,1.8.6,2.3c.3.3.7.5,1.2.5s.9-.2,1.3-.5c.5-.5.6-1.4.6-2.3s0-1.8-.6-2.3h0ZM165.8,71.8c-.6.6-1.4,1-2.5,1s-2-.4-2.5-1c-.8-.8-1-1.9-1-3.3s.2-2.5,1-3.3c.6-.6,1.4-1,2.5-1s2,.4,2.5,1c.8.8,1,1.9,1,3.3s-.2,2.5-1,3.3M171.4,72.7c-1.6,0-2.3-1.1-2.3-2.3v-9.6h1.7v9.5c0,.6.2,1,.9,1h.8v1.5h-1.1M182.7,66.2c-.3-.3-.8-.5-1.3-.5s-.9.2-1.2.5c-.5.5-.6,1.4-.6,2.3s0,1.8.6,2.3c.3.3.7.5,1.2.5s.9-.2,1.3-.5c.5-.5.6-1.4.6-2.3s0-1.8-.6-2.3ZM184,71.8c-.6.6-1.4,1-2.5,1s-2-.4-2.5-1c-.8-.8-1-1.9-1-3.3s.2-2.5,1-3.3c.6-.6,1.4-1,2.5-1s2,.4,2.5,1c.8.8,1,1.9,1,3.3s-.2,2.5-1,3.3M189.3,65.7v7h-1.7v-7h-1v-1.3h1v-1.3c0-1.2.7-2.4,2.3-2.4h1.1v1.5h-.8c-.6,0-.9.4-.9,1v1.2h1.7v1.3h-1.7M197,72.7v-11.9h7.6v1.6h-5.8v3.5h4.9v1.6h-4.9v3.6h5.8v1.6h-7.6M210.2,72.8c-1.9,0-3.8-1.2-3.8-4.3s1.9-4.3,3.8-4.3,2,.3,2.8,1.2l-1.2,1.1c-.5-.6-1-.8-1.6-.8s-1.2.3-1.6.8c-.4.5-.5,1.1-.5,2.1s.1,1.6.5,2.1c.4.5.9.8,1.6.8s1.1-.2,1.6-.8l1.2,1.1c-.8.8-1.6,1.2-2.8,1.2M219.4,66.2c-.3-.3-.7-.5-1.3-.5s-.9.2-1.2.5c-.5.5-.6,1.4-.6,2.3s0,1.8.6,2.3c.3.3.7.5,1.2.5s.9-.2,1.3-.5c.5-.5.6-1.4.6-2.3s0-1.8-.6-2.3h0ZM220.7,71.8c-.6.6-1.4,1-2.5,1s-2-.4-2.5-1c-.8-.8-1-1.9-1-3.3s.2-2.5,1-3.3c.6-.6,1.4-1,2.5-1s2,.4,2.5,1c.8.8,1,1.9,1,3.3s-.2,2.5-1,3.3M229.1,72.7v-5.2c0-1.3-.8-1.9-1.7-1.9s-1.8.6-1.8,1.9v5.2h-1.7v-8.5h1.7v.9c.6-.6,1.4-1,2.3-1s1.6.3,2.1.8c.6.6.9,1.4.9,2.4v5.4h-1.7M237.9,66.2c-.3-.3-.8-.5-1.3-.5s-.9.2-1.2.5c-.5.5-.6,1.4-.6,2.3s0,1.8.6,2.3c.3.3.7.5,1.2.5s.9-.2,1.3-.5c.5-.5.6-1.4.6-2.3s0-1.8-.6-2.3h0ZM239.1,71.8c-.6.6-1.4,1-2.5,1s-2-.4-2.5-1c-.8-.8-1-1.9-1-3.3s.2-2.5,1-3.3c.6-.6,1.4-1,2.5-1s2,.4,2.5,1c.8.8,1,1.9,1,3.3s-.2,2.5-1,3.3M252.8,72.7v-5.2c0-1.3-.8-1.9-1.7-1.9s-1.8.6-1.8,1.8v5.3h-1.7v-5.2c0-1.3-.7-1.9-1.7-1.9s-1.8.6-1.8,1.9v5.2h-1.7v-8.5h1.7v.9c.6-.6,1.4-1,2.3-1s1.9.4,2.4,1.2c.7-.8,1.5-1.2,2.7-1.2s1.6.3,2.1.8c.6.6.9,1.4.9,2.4v5.4h-1.7M258.8,72.7h-1.7v-8.5h1.7v8.5h0ZM258.9,62.6h-1.8v-1.8h1.8v1.8h0ZM264.9,72.8c-1.9,0-3.8-1.2-3.8-4.3s1.9-4.3,3.8-4.3,2,.3,2.8,1.2l-1.2,1.1c-.5-.6-1-.8-1.6-.8s-1.2.3-1.6.8c-.4.5-.5,1.1-.5,2.1s.1,1.6.5,2.1c.4.5.9.8,1.6.8s1.1-.2,1.6-.8l1.2,1.1c-.8.8-1.6,1.2-2.8,1.2M272.4,72.8c-1.4,0-2.6-.2-3.6-1.2l1.1-1.1c.7.7,1.6.9,2.4.9s1.9-.4,1.9-1.2-.3-.9-1.1-1h-1.4c-1.6-.3-2.5-1-2.5-2.5s1.4-2.6,3.2-2.6,2.4.3,3.1,1l-1.1,1.1c-.5-.5-1.3-.6-2.1-.6s-1.5.4-1.5,1.1.3.9,1.2,1h1.3c1.6.2,2.5,1,2.5,2.5s-1.5,2.7-3.5,2.7M286.5,69h-2c-1,0-1.5.4-1.5,1.2s.5,1.2,1.6,1.2,1.1,0,1.6-.5c.3-.3.4-.7.4-1.3v-.7h0ZM286.5,72.7v-.8c-.6.6-1.2.9-2.3.9s-1.8-.2-2.3-.8c-.4-.4-.7-1.1-.7-1.8,0-1.4,1-2.4,2.9-2.4h2.2v-.6c0-1.1-.5-1.6-1.9-1.6s-1.4.2-1.9.8l-1.1-1.1c.8-.9,1.6-1.2,3-1.2,2.3,0,3.5,1,3.5,2.9v5.7h-1.7M296,72.7v-5.2c0-1.3-.8-1.9-1.7-1.9s-1.8.6-1.8,1.9v5.2h-1.7v-8.5h1.7v.9c.6-.6,1.4-1,2.3-1s1.6.3,2.1.8c.7.6.9,1.4.9,2.4v5.4h-1.7M303.4,65.7c-1.5,0-1.8,1.3-1.8,2.8s.2,2.8,1.8,2.8,1.8-1.3,1.8-2.8-.2-2.8-1.8-2.8ZM305.2,72.7v-.9c-.6.8-1.3,1-2.2,1s-1.6-.3-2.1-.7c-.9-.9-1-2.3-1-3.6s.1-2.7,1-3.6c.5-.5,1.2-.7,2.1-.7s1.6.2,2.2,1v-4.3h1.7v11.9h-1.7M313.8,72.7v-11.9h1.8v10.3h5.7v1.6h-7.5M327.7,69h-2c-1,0-1.5.4-1.5,1.2s.5,1.2,1.6,1.2,1.1,0,1.6-.5c.2-.3.4-.7.4-1.3v-.7h0ZM327.7,72.7v-.8c-.6.6-1.2.9-2.3.9s-1.8-.2-2.3-.8c-.4-.4-.7-1.1-.7-1.8,0-1.4,1-2.4,2.9-2.4h2.2v-.6c0-1.1-.5-1.6-1.9-1.6s-1.4.2-1.9.8l-1.1-1.1c.8-.9,1.6-1.2,3-1.2,2.3,0,3.5,1,3.5,2.9v5.7h-1.7M340.3,72.7h-1.5l-2-5.9-2,5.9h-1.5l-2.6-8.5h1.8l1.6,6,2-6h1.3l2,6,1.6-6h1.8l-2.6,8.5M17.9,40.5H7.7c-4.3,0-6.9-2.6-7.6-6.5-.1-.7-.1-1.2-.1-1.2,0-.3.3-.5.5-.5h16.6L.2,15.3c-1.3-1.3,6.4-5.9,11.5-.8l7.2,7.2c.7.7,1.9.8,2.7.1v-2.7c-2-.3-3.6-2.2-3.6-4.3s.3-.5.5-.5h6.6c-.3-1.4-1.5-2.5-3-2.5h-3.6c-2.3,0-4.1-1.8-4.1-4.1s.3-.5.5-.5h6.7c.3-2,2-3.6,4.1-3.6h3V.6c0-.6.5-.8.9-.4l3.5,3.4c4.1.1,7.5,3.5,7.5,7.7v3.4c2.9,3.1,2.9,8,0,11.2,0,9.3,0,21.7,0,24.4,2,.3,3.6,2,3.6,4.1v10.7c0,0-.1.3-.2.4l-7.2,7.2s-.3.2-.4.2h-10.8c-.3,0-.5-.3-.5-.5,0-4,3.3-7.4,7.2-7.7-.3-3.4-3.3-6.1-6.7-6.1s-3,1.4-3,3.1v3.6c0,0-.1.3-.2.4l-7.3,7.2s-.3.2-.4.2H4c-.3,0-.5-.2-.5-.5,0-4,3.4-7.4,7.4-7.7v-6.6c0-4.1,3.1-7.4,7.1-7.7v-9.7"/>
</svg>