<?xml version="1.0" encoding="UTF-8"?>
<svg id="Ebene_1" data-name="Ebene 1" xmlns="http://www.w3.org/2000/svg" version="1.1" viewBox="0 0 850.4 283.5">
  <defs>
    <style>
      .cls-1 {
        fill: none;
      }

      .cls-1, .cls-2, .cls-3, .cls-4 {
        stroke-width: 0px;
      }

      .cls-2 {
        fill: #1d1d1b;
      }

      .cls-3 {
        fill: #e40521;
      }

      .cls-4 {
        fill: #020a0a;
      }
    </style>
  </defs>
  <g id="Hintergrund_weiß" data-name="Hintergrund weiß">
    <rect class="cls-1" x="1.4" y="1.4" width="847.6" height="280.6"/>
  </g>
  <g id="Frame">
    <path class="cls-2" d="M0,0v283.5h850.4V0H0ZM566.9,277.8H5.7V5.7h561.3v272.1h0ZM844.7,277.8h-272.1V5.7h272.1v272.1h0Z"/>
  </g>
  <g id="Berlin">
    <path class="cls-3" d="M485.5,96v62.4c0,.8-.5,1.1-1,.3l-35.6-63.2c-.4-.7-1.2-1.1-2-1.1h-15.2c-1,0-1.6.7-1.6,1.6v91.2c0,.9.7,1.6,1.6,1.6h13.2c1,0,1.6-.7,1.6-1.6v-62.3c0-.8.5-1.1,1-.3l35.6,63.1c.4.7,1.2,1.1,2,1.1h15.2c1,0,1.6-.7,1.6-1.6v-91.2c0-.9-.7-1.6-1.6-1.6h-13.2c-.9,0-1.6.7-1.6,1.6M390.2,188.8h13.4c.9,0,1.6-.7,1.6-1.6v-91.2c0-.9-.7-1.6-1.6-1.6h-13.4c-.9,0-1.6.7-1.6,1.6v91.2c0,.9.7,1.6,1.6,1.6M336.9,172.3v-76.3c0-.9-.7-1.6-1.6-1.6h-13.4c-.9,0-1.6.7-1.6,1.6v91.2c0,.9.7,1.6,1.6,1.6h46c1,0,1.6-.7,1.6-1.6v-12.4c0-.9-.7-1.6-1.6-1.6h-30.2c-.5,0-.8-.4-.8-.8M249.6,110h12.3c10.9,0,19.7,5.8,19.7,17.8s-8.8,17.8-19.8,17.8h-12.1c-.5,0-.8-.4-.8-.8v-34c0-.5.3-.8.8-.8M280.9,188.8h17c1.4,0,1.8-.9,1-2l-20.2-27.4c-.3-.4-.3-.9.3-1.2,12-4.9,20-15.5,20-30.3,0-21-15.9-33.4-36.2-33.4h-28.9c-.9,0-1.6.7-1.6,1.6v91.2c0,.9.7,1.6,1.6,1.6h13.4c.9,0,1.6-.7,1.6-1.6v-25.1c0-.5.4-.8.8-.8h10.3c.4,0,.8.3,1.1.5l18.1,25.9c.4.7,1.1,1.1,1.9,1.1M207.7,108.4v-12.4c0-.9-.7-1.6-1.6-1.6h-49.1c-.9,0-1.6.7-1.6,1.6v91.2c0,.9.7,1.6,1.6,1.6h49.1c.9,0,1.6-.7,1.6-1.6v-12.4c0-.9-.7-1.6-1.6-1.6h-33.5c-.5,0-.8-.4-.8-.8v-22.7c0-.5.4-.8.8-.8h33.5c.9,0,1.6-.7,1.6-1.6v-12.3c0-.9-.7-1.6-1.6-1.6h-33.5c-.5,0-.8-.3-.8-.8v-21.7c0-.5.4-.8.8-.8h33.5c.9,0,1.6-.7,1.6-1.6M102.4,173.1h-14.3c-.5,0-.8-.4-.8-.8v-22.7c0-.5.3-.8.8-.8h14.3c8.8,0,13.6,5,13.6,12.1s-4.9,12.1-13.6,12.1M101.1,110c8.5,0,13.2,4.6,13.2,11.6s-4.7,11.7-13.2,11.7h-13c-.5,0-.8-.3-.8-.8v-21.7c0-.5.3-.8.8-.8h13ZM120.8,139.7c6.8-4.3,10.8-11.1,10.8-19.8,0-14.4-10-25.5-28.3-25.5h-30.8c-.9,0-1.6.7-1.6,1.6v91.2c0,.9.7,1.6,1.6,1.6h32c18.9,0,28.9-11.5,28.9-26.6s-4.7-17.3-12.6-21.4c-.5-.4-.5-.8,0-1.1"/>
  </g>
  <g id="Bär">
    <path class="cls-4" d="M750.3,222.2s-5-32.9-7.3-46.7c.7-.1,1-.2,1-.2,2.2-.4,3-2.9,2-4.5-5.6-9.7-7.6-21.7-7.6-33.6s1.2-14.4,3.5-21.1c.1-.4.3-.8.4-1.1,0-.2.2-.7.3-.8,1.5-3.3,4.2-10.4,5-18.4.7-6.5-.2-11.9-1.3-16.9-.5-2.4-1.9-6.5-2.8-8.3-.2-.3-.3-.5-.5-.8,2-2,2.4-5.3.9-8-1.8-3.2-5.6-4.4-8.4-2.8-.3.2-1,.7-1.3.9-.5-.4-.8-.6-.8-.6,0,0-.8-.5-1.5-.9,0,0-.3-.1-.3-.1-2.9-1.3-6-2-9.4-2s-3.2.2-4.8.5c-3.3.7-6.4,2.1-9.1,4.1-1.4.4-2.9.5-2.9.5l-3.8.2c-1.8,0-3.8,0-3.8,0-.9,0-1.6.7-1.6,1.6s.6,5.3.6,5.3c.1,1.3.7,2.5,1.8,3.2h.1c.3.3.5.5.6.7.4,1.1,1.3,2.3,1.8,2.6.3.2.7,0,.7-.2.7-2.8,2.4.2,5.7-1.5.8-.4,1.3,1.6.9,2.4l-.3.8c-.7,1.7-2.2,2.9-4,3.2-1.4.2-2.3.3-2.2.6.2,1.6,0,3,1.6,4,.5.3.7.3.7.3,2.5.7,9.8,3.5.5,14.5,0,0-.9,1-1.6,2-.2.3-.4.6-.5.9l-.2.4-28-10.5c-.8-.3-1.9-1.2-2.5-2l-2.8-4.7c-1.7-2.4-3.2-3.3-6.2-3.5-2.2-.2-3.9,0-3.9,0-.8,0-1.3.2-1.5.7-.2.5-.2,1.8.6,3.5l2.4,4.4c.2.3,3.2,7.1,3.2,7.1.3.8.8,1.6,1.5,2.1,0,0,28.7,21.7,28.7,21.7l-30.3,15.1c-.9.5-1.9.6-2.8.3-1.1-.3-2.7-.8-2.7-.8-5-2.2-8.7-.7-10.9,1.2,0,0-.9.8-.9.8-.8.8-.5,1.9.4,2.4,0,0,4.8,2.8,5.8,3.5l7.4,4.4c1.2.7,2.5.9,3.8.6l29.4-5.9c.7,11.3,3.5,20.6,3.5,20.6-5.3,5.1-12.6,14.8-15,28.2-1.4,7.9-1,15.1,1.2,23.6-4.1.2-8.1.8-11.4,3.1-3.1,2.2-3.8,6.1-3.8,8h23c0,0,1.9,0,1.9,0,2.4,0,3-2.4,3-2.4.2-.7.3-1.7.4-2.4.7-4.6,1.3-9.4,5.4-17.6,3.3-6.7,9.1-12.6,9.2-12.6,0,0,9.7,14.3,26,24.1-3.1.2-7.2,1.2-9.6,2.6-3.8,2.1-4.8,6.4-4.8,8.5h23.8c1.6,0,3-1.1,3.5-2.5,0-.1,0-.3.1-.5,0-.1,0-.2,0-.3,0-.2,0-.5,0-.8h0Z"/>
  </g>
</svg>