<?xml version="1.0" encoding="UTF-8"?><svg id="Ebene_1" xmlns="http://www.w3.org/2000/svg" viewBox="0 0 992.13 563.76"><defs><style>.cls-1{fill:#fabc9e;}.cls-1,.cls-2,.cls-3,.cls-4,.cls-5,.cls-6,.cls-7{stroke-width:0px;}.cls-2{fill:#f9ee8f;}.cls-3{fill:#5c81f7;}.cls-4{fill:#83a9de;}.cls-5{fill:#e35045;}.cls-6{fill:#a55f41;}.cls-7{fill:#bc714b;}</style></defs><path class="cls-4" d="m276.49,299.95c-93.38,19.68-407.89,138.72-215.09,183.32,75.1,17.37,153.84,7.64,223.24,27.55,52.17,14.97,85.54,28.77,142.15,40.01,130.14,25.84,220.9,8.58,348.48-13.89,162.61-28.65,328.23-51.33,117.6-130.37-153.95-57.77-308.48-103.2-616.37-106.62Z"/><path class="cls-7" d="m773.99,316.49c1-9.72,2.53-19.41.82-29.02-3.45-19.34-9.1-38.44-22.92-52.13-9.44-9.35-26.41-24.42-94.85-11.64-.38.13-107.01,16.54-147.91,16.28-5-.03-50.26-2.7-67.42-5.55-21.14-3.51-87.98-10.31-101.41-11.05-6.99-.39-64.39-5-52.72,23.01,2.5,6,64,27.95,64,27.95-.61.15-60.31-19.59-67.67-19.99-23.29-1.26-46.27-3.69-38.05,24.31,2.03,6.92,80.72,32.84,78.39,33.58-1.29.41-82.99-24.87-87.04-24.47-9.9.97-17.86,6.69-19.83,17.39-2.2,11.95,6.41,18.51,14.5,24.14,15.9,11.06,111.88,49.12,113.38,50.34,0,0-77.26-20.36-87.04-18.81-8.37,1.33-16.58,2.67-20.2,11.39-3.57,8.6.08,16.06,5.94,22.3,9.65,10.28,35.18,20.71,35.18,20.71,6.75,3.22,13.4,6.69,20.28,9.63,56.27,24.02,151.64,15.04,212.27,13.03-2.43.77-20.61,7.81-36.11,15.69-14.9,7.57-20.97,17.81-21.47,32.12-.27,21.57,3.62,25.37,24.52,23.19,7.99-.83,15.91-2.37,23.86-3.58,0,0,159.48-40.13,215.38-106.15,6.05-7.14,53.48-56.98,56.11-82.67Z"/><path class="cls-6" d="m354.55,341.5c-24.9,12.43,23.05,29.22,29.57,30.86,19.57,4.92,42.05,5.65,62.2,3.64,10.99-1.09,41.39-3.08,48.48-12.87,8.87-12.26-7.17-23.64-17.38-25.36l-122.87,3.72Z"/><path class="cls-6" d="m562.26,339.77c-24.9,12.43,23.05,29.22,29.57,30.86,19.57,4.92,42.05,5.65,62.2,3.64,10.99-1.09,41.39-3.08,48.48-12.87,8.87-12.26-7.17-23.64-17.38-25.36l-122.87,3.72Z"/><path class="cls-3" d="m531.24,216.36c76.95,0,139.32,62.38,139.32,139.32h29.64c0-93.32-75.65-168.96-168.97-168.96s-168.96,75.65-168.96,168.96h29.64c0-76.95,62.38-139.32,139.32-139.32Z"/><path class="cls-1" d="m531.24,216.36c-76.95,0-139.32,62.38-139.32,139.32h27.86c0-61.56,49.9-111.46,111.46-111.46s111.46,49.9,111.46,111.46h27.86c0-76.95-62.38-139.32-139.32-139.32Z"/><path class="cls-2" d="m531.24,277.66c43.09,0,78.02,34.93,78.02,78.02h33.44c0-61.56-49.9-111.46-111.46-111.46s-111.46,49.9-111.46,111.46h33.44c0-43.09,34.93-78.02,78.02-78.02Z"/><path class="cls-5" d="m531.24,277.66c-43.09,0-78.02,34.93-78.02,78.02h27.31c0-28.01,22.71-50.71,50.71-50.71s50.71,22.71,50.71,50.71h27.31c0-43.09-34.93-78.02-78.02-78.02Z"/></svg>