<svg width="173" height="175" viewBox="0 0 173 175" fill="none" xmlns="http://www.w3.org/2000/svg">
<g clip-path="url(#clip0_4824_8842)">
<mask id="mask0_4824_8842" style="mask-type:luminance" maskUnits="userSpaceOnUse" x="0" y="0" width="173" height="150">
<path d="M155.22 0.21875H17.7801C7.9604 0.21875 0 8.17915 0 17.9988V131.889C0 141.709 7.9604 149.669 17.7801 149.669H155.22C165.04 149.669 173 141.709 173 131.889V17.9988C173 8.17915 165.04 0.21875 155.22 0.21875Z" fill="white"/>
</mask>
<g mask="url(#mask0_4824_8842)">
<path d="M5.67188 123.319L16.2885 115.914L36.5718 114.91L46.0291 121.323C46.0291 121.323 54.0292 139.025 27.9535 140.323C27.9535 140.323 7.09618 143.017 5.67188 123.318" fill="#634A44"/>
<path d="M-10.4475 186.612L-6.23909 227.914H58.3619L66.1175 138.93C64.075 126.962 57.0044 122.784 57.0044 122.784L37.5261 113.834L37.0641 113.621L37.7672 126.84H32.2636L15.4901 114.573L-11.1562 127.069C-11.1562 127.069 -19.1869 130.523 -17.1716 139.843L-10.4475 186.612Z" fill="#3AA99C"/>
<path d="M8.55332 85.1334C8.27254 88.0567 9.61532 91.5088 12.1265 92.9399C15.5333 94.8839 17.1648 91.7217 17.4298 88.5164C17.6437 85.9339 16.8829 81.3858 14.0524 80.2287C11.3872 79.1361 8.78656 82.7343 8.55445 85.1345" fill="#634A44"/>
<path d="M14.4062 91.9608L35.9758 90.9102L37.2676 117.944L15.7015 118.992L14.4062 91.9608Z" fill="#634A44"/>
<path d="M21.7084 106.606C19.3228 102.135 17.8113 97.5686 17.8917 91.7899L35.9763 90.9102L37.0983 114.407C31.3773 113.808 24.249 111.369 21.7072 106.606" fill="#634A44"/>
<path d="M15.884 93.5562C17.3604 98.3906 19.5795 102.441 23.7392 105.507C27.8128 108.505 32.131 110.22 36.5421 107.112C40.0474 104.639 42.4986 100.816 44.0146 96.8893C47.5051 87.8521 46.425 74.8624 41.1762 66.9257C35.4144 58.2078 22.8742 59.032 17.357 67.7896C12.8633 74.9213 13.4984 85.7474 15.8851 93.555" fill="#634A44"/>
<path d="M15.9867 85.2565C16.5053 86.7815 16.7668 90.1125 17.9533 91.8787C19.6811 94.4499 23.4898 96.472 25.6297 94.1793C27.4933 92.1833 30.1075 92.3327 32.8769 92.2976C35.2998 92.2659 38.0102 91.5572 39.3496 93.6189C40.0652 94.7171 41.9231 93.1128 42.7202 92.2082C43.6701 91.1314 44.6302 90.5484 45.6854 90.1668C45.3594 92.5422 44.8125 94.8235 44.0132 96.8921C42.4972 100.819 40.0459 104.641 36.5407 107.114C32.1307 110.221 27.8125 108.505 23.7389 105.508C19.5792 102.442 17.3601 98.3922 15.8837 93.5578C15.1127 91.0329 14.3212 87.1438 14.0303 84.2148C14.5726 84.3156 15.7773 84.6383 15.9878 85.2576" fill="#323736"/>
<path d="M7.61805 74.1056C8.00979 76.9894 8.87819 79.5934 9.60506 82.373C10.1429 81.1887 11.7517 79.6749 13.2236 81.534C13.9414 82.4432 13.8406 87.195 15.9397 85.628C16.6621 79.6885 17.5033 79.3455 17.4625 75.7654L20.4402 72.4323C20.7821 72.0349 18.6151 69.8305 18.9106 68.8647C19.7722 66.0546 25.2611 66.298 27.4044 66.084C31.0659 65.7206 34.852 65.6866 38.4331 66.6377C39.9672 67.0441 41.9463 67.6385 42.4184 69.4127C43.0683 71.8526 44.9002 74.9831 45.6509 79.3817L46.0336 74.5166C47.1861 69.9324 48.17 68.0337 48.2278 66.2765C48.3172 65.8746 47.1861 56.7094 36.925 55.4583C36.925 55.4583 14.4441 53.7748 12.9881 62.5153C12.9881 62.5153 6.31829 64.5137 7.61692 74.1045" fill="#323736"/>
<path d="M44.1658 227.916L45.966 225.155L37.6636 137.277H33.5413L28.5166 225.155L30.2851 227.916H44.1658Z" fill="#408CFF"/>
<path d="M39.239 227.919H63.1058L62.2227 196.523L66.3654 140.452C66.6315 128.053 57.0032 122.788 57.0032 122.788L42.2598 115.875L43.2278 154.918L38.9209 187.617L39.2379 227.916" fill="#408CFF"/>
<path d="M42.261 115.876L42.9109 154.318L41.6055 167.247L54.8884 147.355C54.8884 147.355 56.0501 144.04 53.3498 142.751L47.1883 138.294L50.7865 136.088C50.7865 136.088 53.4754 134.641 52.3014 131.144L48.9116 118.993L42.2621 115.875" fill="#408CFF"/>
<path d="M45.7031 129.446L45.0691 120.573C42.2941 120.421 40.8584 123.043 39.4941 125.506L45.7031 129.446Z" fill="#17A68A"/>
<path d="M47.6962 118.662C47.6962 118.662 43.8853 115.066 36.9268 110.387L37.8336 129.477C37.8336 129.477 41.6978 119.71 45.3084 120.604" fill="#3AA99C"/>
<path d="M-11.7163 183.51L-13.0591 227.915H39.2315L38.9224 189.786L28.3126 162.421L14.9741 114.816L-7.91441 125.356C-7.91441 125.356 -16.2757 131.436 -15.8862 141.469L-11.7186 183.511" fill="#408CFF"/>
<path d="M14.9745 114.816L28.313 162.421L28.2552 164.676L11.356 147.24C11.356 147.24 9.58073 144.216 11.9855 142.425L15.9777 138.576L13.1313 136.516C13.1313 136.516 9.13917 134.565 9.62149 130.907L10.868 116.679L14.9745 114.819" fill="#408CFF"/>
<path d="M32.2627 120.23L31.9717 133.451L27.1406 128.689L32.2627 120.23Z" fill="#17A68A"/>
<path d="M32.2627 119.932C32.2627 119.932 18.8246 114.323 15.188 108.301L8.62012 116.633L24.9023 132.372L32.2627 120.231" fill="#3AA99C"/>
<path d="M30.7452 125.01L30.1757 123.938L26.29 129.944L29.6289 131.142L30.7452 125.01Z" fill="#408CFF"/>
<path d="M39.7305 125.54L40.8219 123.859C40.8219 123.859 44.9692 127.374 40.6125 131.145C40.6125 131.145 40.6125 128.037 39.7305 125.541" fill="#408CFF"/>
<path d="M30.745 125.013C30.745 125.013 34.0386 127.961 39.7301 125.54C40.9767 127.141 40.9733 129.174 40.6121 131.145L37.6627 137.279H33.5404L29.6275 131.145C29.6275 131.145 29.2245 129.793 30.7439 125.012" fill="#408CFF"/>
<path d="M58.1375 123.781C58.1375 123.781 69.4256 125.002 75.904 145.63C75.904 145.63 92.8451 175.323 87.6155 199.126C87.6155 199.126 69.7856 210.556 41.3516 213.815V191.412L62.6856 182.356C62.6856 182.356 67.8337 146.467 58.1375 123.781Z" fill="#408CFF"/>
<path d="M-5.5169 124.254C-5.5169 124.254 17.1735 144.216 23.9214 187.822H63.0332L65.061 205.464C65.061 205.464 32.6314 213.104 17.0308 212.066C17.0308 212.066 -15.4327 178.999 -20.4936 149.679C-20.4936 149.679 -23.5223 126.938 -5.5169 124.254Z" fill="#408CFF"/>
<path d="M124.026 76.2779C125.965 72.1317 127.327 67.4965 126.501 63.0096C125.73 58.9009 123.202 55.3639 120.69 52.0431C116.355 46.3504 111.752 40.8163 108.196 34.596C107.124 32.7176 106.133 30.7612 105.131 28.7912C104.875 28.2058 104.603 27.6307 104.306 27.0623C104.112 26.7057 103.894 26.349 103.708 25.9969C101.093 20.9971 98.2133 16.2294 93.6766 13.0287C88.8795 9.64115 82.7781 8.4931 76.9586 9.0275C71.1391 9.5619 64.2711 12.0754 60.2745 14.2435C58.6701 15.0904 57.1575 16.0788 55.7378 17.2076C54.2648 18.3772 52.8506 19.7619 52.2393 21.5451C52.1 21.9527 52.0128 22.3716 51.9777 22.8007C51.9426 23.2298 51.9607 23.6566 52.0321 24.0824C51.3007 25.1591 50.7685 26.3264 50.4323 27.5854C50.2534 27.8197 50.0881 28.062 49.9375 28.3156L50.2183 28.4606C49.9194 29.7184 49.865 30.9865 50.053 32.267C50.6474 35.3307 52.3174 38.0922 52.9899 41.1389C53.9919 45.7006 53.4643 48.3827 52.7012 52.9851C51.9381 57.5875 51.8758 62.7696 54.8003 66.3813C57.3251 69.4869 61.5199 70.7097 64.3945 73.4926C66.9069 75.9223 68.1931 79.3223 69.9672 82.3362C71.7402 85.3502 74.4507 88.2735 77.9481 88.4682C79.66 88.5679 81.3311 87.9871 82.9479 87.4153L85.4512 86.5276C85.5338 87.8002 85.8429 88.9868 86.6887 89.9027C87.4314 90.6862 88.4662 91.1131 89.3663 91.7097C91.7915 93.331 93.1162 96.1219 94.4601 98.7203C96.4256 102.517 98.6605 106.145 101.163 109.608C101.777 110.462 102.516 111.369 103.555 111.506C103.851 111.527 104.669 121.428 104.96 121.37C105.251 121.312 113.882 135.422 114.148 135.291C118.272 133.575 110.386 120.934 120.087 110.399C123.112 107.119 124.947 102.057 124.212 97.6492C121.906 83.8919 122.083 80.4217 124.026 76.2756V76.2779Z" fill="#F1E0C3"/>
<path d="M82.4467 63.2148C82.3425 63.8885 82.1806 64.5474 81.9609 65.1928L82.4467 63.2148Z" fill="#3AA99C"/>
<path d="M126.795 169.346C122.837 155.815 118.775 138.701 111.07 126.913C109.243 124.116 107.197 121.404 106.059 118.256C104.365 113.554 104.873 108.327 106.059 103.469C107.245 98.6107 109.061 93.9133 109.981 88.9995C110.203 87.7903 110.369 86.5732 110.481 85.3482C110.593 84.1231 110.649 82.897 110.65 81.6663C110.65 80.4367 110.597 79.2094 110.486 77.9843C110.376 76.7593 110.211 75.5422 109.991 74.3319C109.771 73.1227 109.497 71.9248 109.169 70.7405C108.841 69.5563 108.459 68.389 108.025 67.2386C107.592 66.0883 107.107 64.9618 106.572 63.8556C106.036 62.7506 105.452 61.6716 104.818 60.6187C102.802 60.3798 98.1878 59.5646 95.3596 56.9492C94.6519 57.1021 93.9545 57.2911 93.2661 57.5153C92.5777 57.7395 91.9018 57.9988 91.2395 58.292C90.5771 58.5852 89.9307 58.9113 89.3023 59.2702C88.6739 59.6291 88.0637 60.0186 87.4727 60.4398C86.8828 60.861 86.3156 61.3104 85.7698 61.7894C85.2252 62.2683 84.7056 62.7733 84.2119 63.3054C83.7183 63.8364 83.2518 64.3923 82.8148 64.9708C82.3766 65.5494 81.969 66.1495 81.5909 66.7699L81.9611 65.2086C80.5447 69.4249 76.9319 72.7445 73.507 75.729L64.5671 83.5004C63.1066 84.7741 61.6019 86.1079 60.8977 87.9375C60.3271 89.4275 60.3791 91.0896 60.5275 92.6837C60.7165 94.6277 61.0369 96.549 61.4921 98.4466C61.9472 100.345 62.2099 102.165 62.9232 103.981C51.36 109.822 40.9551 119.226 39.9543 138.024C39.2716 150.839 44.5533 160.823 50.0059 172.409C50.2244 172.791 50.3411 173.202 50.358 173.642C50.3286 174.263 49.8871 174.759 49.4987 175.255C47.4087 177.841 45.9447 183.823 50.2177 182.978C58.6016 180.686 66.9663 182.638 75.5868 183.723C81.8354 184.513 88.1542 186.185 94.3406 184.998C103.039 183.321 104.974 176.802 120.385 176.388C122.978 176.317 126.193 175.677 127.085 173.218C127.537 171.982 127.166 170.611 126.796 169.344L126.795 169.346Z" fill="#3AA99C"/>
<path d="M105.666 111.511C105.384 117.163 105.366 121.521 103.736 126.934C103.306 128.364 102.29 130.585 101.275 131.677C100.937 132.039 100.55 132.337 100.115 132.571C98.6807 133.688 96.5715 133.991 94.7011 133.752C91.1312 133.305 87.9033 131.454 84.8272 129.572C78.8118 125.884 64.4057 115.453 60.255 112.54C58.2907 111.475 57.1641 110.513 55.5813 110.532C55.0741 110.532 54.5476 110.684 54.0732 110.509C53.095 110.136 52.7644 108.71 52.872 107.667C52.9795 106.624 53.1426 105.432 53.9249 104.687C54.2793 104.405 54.6495 104.147 55.0367 103.913C56.4452 102.896 55.7228 101.071 58.1129 100.079C59.3176 99.5798 61.6227 100.217 62.216 101.382C62.6202 102.179 62.7312 103.476 63.0278 104.318C63.5022 105.66 64.6887 106.595 65.9591 107.257C69.4983 108.375 73.0749 109.347 76.707 110.283C81.8325 111.608 86.436 112.584 90.7905 115.289C90.4406 108.256 89.665 101.271 88.4627 94.3344C87.5773 88.9247 86.5062 84.5329 86.1496 79.224C85.819 74.359 86.3975 69.315 88.5442 64.9595C88.7559 64.2892 91.2603 60.0197 95.2151 59.6619C100.526 59.1853 102.427 62.2694 103.707 66.4155C106.134 74.291 105.156 82.9037 105.478 96.8965C105.593 100.945 105.868 107.417 105.668 111.511H105.666Z" fill="#FFC2A1"/>
<path d="M58.1667 40.7354C58.5856 42.3114 58.6705 43.8976 58.4712 46.8221C58.3637 48.3936 58.041 49.8881 58.5007 50.0896C60.3054 51.0056 61.3504 49.4375 62.8959 50.4847C63.5548 50.932 63.8039 51.7698 64.2081 52.4593C65.4161 54.512 67.1733 54.8697 68.5852 56.7922C69.0709 57.4523 69.3822 58.2267 69.8747 58.8823C70.3684 59.5378 71.1236 60.0858 71.9353 59.9997C72.3939 59.9126 72.8117 59.7291 73.1887 59.4518C75.461 57.9946 77.8477 56.4378 80.0521 54.6977C80.3714 55.3419 80.6261 55.8978 80.7937 56.2624C82.7682 60.6542 81.2896 63.7133 80.3895 67.6659C80.274 68.1606 80.0192 68.8422 80.3555 69.2192C80.5559 69.4434 81.3224 68.8467 81.5602 68.6497C82.8577 67.6545 84.4846 64.6678 85.6372 63.3714C86.9936 61.8294 88.8617 60.8568 90.6778 59.9035C91.5552 59.4416 94.4276 57.724 95.125 56.7175C94.5035 56.1027 94.0087 55.3974 93.643 54.6014C93.5547 54.3965 93.4596 54.195 93.3588 53.998C93.2569 53.7998 93.1494 53.6062 93.0339 53.4149C92.9195 53.2247 92.7984 53.0378 92.6704 52.8556C92.5425 52.6733 92.41 52.4955 92.2696 52.3223C92.1304 52.1491 91.9855 51.9804 91.8337 51.8173C91.6832 51.6543 91.5269 51.4958 91.365 51.3441C91.2031 51.1912 91.0367 51.0452 90.8646 50.9037C90.6925 50.7621 90.517 50.6274 90.3358 50.4983C90.1547 50.3693 89.9701 50.2458 89.7811 50.1304C89.592 50.0149 89.3995 49.9039 89.2025 49.8009C89.0055 49.6979 88.8062 49.6016 88.6036 49.511C88.4009 49.4205 88.1949 49.339 87.9865 49.2631C87.7782 49.1872 87.5676 49.1193 87.3536 49.0582C87.1396 48.997 86.9257 48.9438 86.7083 48.8974C86.492 48.851 86.2735 48.8113 86.0539 48.7808C85.8342 48.7491 85.6134 48.7253 85.3927 48.7095H84.3771C84.2367 48.7095 84.0997 48.7355 83.9729 48.7581C81.6202 49.1306 78.9957 49.3061 77.0687 48.0131C76.9431 47.9271 76.8276 47.8422 76.6985 47.7482L76.5876 47.652C76.5094 47.5886 76.4358 47.5218 76.3611 47.4538L76.2535 47.3463C76.1868 47.2795 76.1166 47.2082 76.0531 47.138L75.9569 47.0338L75.7497 46.7881L75.6829 46.7066C74.7783 45.5585 74.1488 44.1659 73.2113 43.0292C72.9758 42.7371 72.7177 42.4688 72.4369 42.2208C69.6019 39.7764 65.0244 40.3063 61.6255 38.6476C57.4455 36.6096 57.4013 34.9861 56.1548 31.4502C55.9328 30.7777 55.6362 30.1414 55.2648 29.5391C55.2207 31.517 55.3758 33.8346 55.977 35.7311C56.6178 37.7498 57.6255 38.6895 58.1667 40.7376V40.7354Z" fill="#FFC2A1"/>
<path d="M66.458 92.9715V92.9375C66.4693 92.9635 66.4648 92.9715 66.458 92.9715Z" fill="#543F33"/>
<path d="M57.4856 119.922L57.4414 119.974C57.4414 119.974 57.4595 119.963 57.4856 119.922Z" fill="#543F33"/>
<path d="M101.664 139.801V139.856C101.664 139.856 101.672 139.83 101.664 139.793V139.801Z" fill="#543F33"/>
<path d="M103.739 136.688V136.725C103.739 136.725 103.746 136.688 103.739 136.688Z" fill="#543F33"/>
<path fill-rule="evenodd" clip-rule="evenodd" d="M114.657 120.493V129.91L110.598 133.205L114.657 154.433V227.982H166.335V168.103L168.056 169.008C169.035 169.66 171.875 170.602 171.875 170.602L178.659 150.115C181.275 141.626 179.962 132.963 179.962 132.963C177.776 119.164 174.04 106.181 174.04 106.181C170.645 95.159 164.743 92.2934 164.743 92.2934L141.481 88.3477L134.798 113.563L126.258 120.493H114.655H114.657Z" fill="#3AA99C"/>
<path fill-rule="evenodd" clip-rule="evenodd" d="M115.772 67.3825C110.608 43.0765 127.337 39.7535 127.337 39.7535C140.558 36.8596 146.221 43.7898 146.221 43.7898C161.102 51.6563 158.396 89.9518 158.396 89.9518C163.006 91.6297 164.75 92.2966 164.75 92.2966C160.109 95.8551 149.455 96.3906 149.455 96.3906C150.176 121.254 149.451 137.016 140.428 144.022C129.803 152.27 119.721 153.975 115.717 148.477C97.3883 123.309 123.361 85.1626 123.361 85.1626L115.773 67.3837L115.772 67.3825Z" fill="#408CFF"/>
<path fill-rule="evenodd" clip-rule="evenodd" d="M115.618 66.1688C115.618 76.5941 118.494 86.6854 125.528 86.6854C132.56 86.6854 137.416 80.1322 135.346 70.0364C133.995 63.4538 129.14 55.8205 124.021 52.5586C117.789 48.5846 115.618 55.7458 115.618 66.1688Z" fill="#DBA798"/>
</g>
</g>
<defs>
<clipPath id="clip0_4824_8842">
<rect width="173" height="174.45" fill="white" transform="translate(0 0.21875)"/>
</clipPath>
</defs>
</svg>
