<?xml version="1.0" encoding="UTF-8"?><svg xmlns="http://www.w3.org/2000/svg" xmlns:xlink="http://www.w3.org/1999/xlink" viewBox="0 0 992.13 874.67"><defs><style>.cls-1,.cls-2,.cls-3,.cls-4{stroke:#000;stroke-miterlimit:10;}.cls-1,.cls-2,.cls-3,.cls-4,.cls-5,.cls-6,.cls-7,.cls-8,.cls-9,.cls-10,.cls-11,.cls-12,.cls-13,.cls-14,.cls-15,.cls-16,.cls-17,.cls-18,.cls-19,.cls-20,.cls-21,.cls-22,.cls-23,.cls-24,.cls-25,.cls-26,.cls-27,.cls-28{stroke-width:0px;}.cls-1,.cls-13{fill:#474747;}.cls-2{fill:#bc623d;}.cls-3{fill:#e8946a;}.cls-4{fill:#fdeedd;}.cls-5{fill:#e5e8a7;}.cls-5,.cls-8{mix-blend-mode:multiply;}.cls-29{clip-path:url(#clippath);}.cls-6{fill:none;}.cls-30,.cls-8,.cls-17{fill:#408cff;}.cls-31{clip-path:url(#clippath-1);}.cls-32{clip-path:url(#clippath-2);}.cls-7{opacity:.1;}.cls-7,.cls-26{fill:#fff;}.cls-8{opacity:.2;}.cls-33{isolation:isolate;}.cls-10{fill:#f3fc9d;}.cls-11{fill:#775a50;}.cls-12{fill:#7c7474;}.cls-14{fill:#634a44;}.cls-15{fill:#38332d;}.cls-16{fill:#17a58a;}.cls-18{fill:#22201b;}.cls-19{fill:#159bff;}.cls-20{fill:#168e77;}.cls-21{fill:#e2a388;}.cls-22{fill:#d69d51;}.cls-23{fill:#ceab82;}.cls-24{fill:#b6b7b6;}.cls-25{fill:#f2bea7;}.cls-27{fill:#e5ac93;}.cls-28{fill:#e5e5e5;}</style><clipPath id="clippath"><path class="cls-6" d="m818.66,872.91H177.8c-68.29,0-124.16-55.74-124.16-123.88L0,667.91V158.47C0,90.33,109.52,48.7,177.8,48.7h640.86c68.29,0,173.46,54.98,173.46,123.11l.13,529.81-49.44,2.24v45.17c0,68.13-55.87,123.88-124.16,123.88Z"/></clipPath><clipPath id="clippath-1"><path class="cls-17" d="m302.26,766.7c-1.62-8.04-1.64-16.69-2.5-24.98,1.45-26.03-4.25-52.44-9.04-78.42-3.32-14.74-6.56-30.38-15.24-43.09-1.3-1.73-3.11-3.55-3.14-6.08,7.2-1.8,15.22,2.4,21.69-.67,2.53-1.81,5.14-2.23,7.91-.42,5.29,3.46,10.7,6.54,16.94,6.45,45.37,2.56,64.49,9.5,109.96,7.91,14.86-3.35,29.41-5.23,44.49-8.01,12.53-.96,24.51-.72,36.28-5.8-2.95-38.49,10.19-71.68-7.17-111.89-23.07-64.91-37.49-85.09-96.83-110.99-18.25-5.66-37.27-7.65-56.04-10.78-17.1-3.08-42.87-15.09-58.07-20.27-15.19,5.48-23.53,12.26-21.61,27.39-41.89-4.45-46.33-38.66-84.98-12.27-8.97,5-119.43,35-135.2,61.54-8.65,14.56-7.21,43.25-10.4,60.08-3.41,17.94-8.93,34.49-13.33,51.71-22.7,68.12-50.86,93.03,22.83,139.12,4.84,3.03,5.15,26.57,5.3,38.52.46,37.15,10.31,117.04,5.86,154.33-16.68,139.84,195.79,39.51,281.61,40.32-4.16-34.41-21.84-121.32-21.7-121.21-.37-.31-3.95-4.64-4.7-6.53-6.74-2.02-10.19-7.9-12.79-13.92l-.15-12.02Z"/></clipPath><clipPath id="clippath-2"><path class="cls-17" d="m267.57,380.44c-3.11-1.25-6.22-2.51-9.31-3.78-5.33-2.19-10.41-4.75-15.69-7.02-5.91-2.54-11.95-4.93-18.23-6.88-6.13-1.91-12.54-3.43-19.18-4.01-3.13-.28-6.23-.22-9.41-.12-3.5.12-6.99.56-10.39,1.49-11.46,3.12-19.54,10.86-25.02,19.41-33,35.39-82.96,152.91-91.59,169.74-13.67,26.67-41.02,49.85-59.27,74.62-20.94,28.41,5.57,57.4,30.68,80.22,78.53,71.36,121.32-49.45,144.99-91.01,30.32-53.23,52.5-110.75,75.75-166.04,5.83-13.88,12.15-28,18.28-42.26,4.2-9.76-.78-20.03-11.61-24.37Z"/></clipPath></defs><g class="cls-33"><g id="Ebene_1"><g class="cls-29"><path class="cls-28" d="m827.1,501.38c3.9-.24,4.4-31.82,6.47-49.3.66-5.57-6.03-13.33-9.77-9.14-13.53,15.16-55.6,12.06-77.97,8.75-2.55,14.91-6.12,29.62-10.15,44.2-4.75,17.19-8.89,34.45-12.23,51.97-4.91,25.76-8.66,51.73-13.34,77.53,1.68-.09,3.35-.19,5.03-.26.35-.01,13.36-.57,19.66-.08,3.56.28,19.52,3.89,22.76,3.63-1.43,2.25-4.71,4.46-5.6,7.04-1.43,4.15-3.82,7.99-4.99,12.19-2.93,10.57-4.23,21.51-4.58,32.39-.63,19.77-.31,39.57.69,59.34,0,0,0,0,0,0,7.57-1.76,16.82-5.86,23.45-4.86.77,14.54,8.07,35.41-3.79,46.28,0,.2,0,.36,0,.37-.55.38-22.35,1.82-29.18,5.03-.35.18-16.17,11.39-19.43,17.91l-13.67,105.39c-.15,3.57-.18,7.09-.13,10.59h119.88c1.28,0,9.6-2.04,10.87-2.07,2.27-39-1-79.49-2.54-118.32-4.09-102.72,18.79-200.8-1.46-298.6Z"/><path class="cls-10" d="m948.22,509.7c-4.32-5.5-18.21-37.43-23.07-43.33-7.34-8.91,2.22-18.39-26.82-3.5-30.41,15.59-68.34,34.59-104.62,36.83,20.24,97.8,25.44,198.07,29.53,300.79,1.55,38.83-3.42,106.7-5.69,145.71,61.77-1.56,154.55,32.49,176.19-21.97,0,.02-40.65-175.46-50.91-220.36l.04-9.86c.12-13.32,5.36-184.3,5.36-184.3Z"/><path class="cls-5" d="m942.85,685.06c-4.08.52-7.65.21-9.72-1.77-10.76-10.31-8.91-4.87-19.74-15.17-7.46-7.09-13.94-14.18-19.57-21.6-.61,2.53-1.13,5.09-1.53,7.65-1.04,6.55-1.42,13.22-1.07,19.85.34,6.54-1.07,29.69,46.58,30.46,1.7.03,3.39-.19,5.06-.59v-18.83Z"/><path class="cls-27" d="m848.8,184.44l-.28-.14c.09.09.17.18.25.27,0-.04.02-.08.02-.13Z"/><path class="cls-27" d="m838.59,401.99c2.15-3.59,4.02-7.35,6-10.92,9.77-17.61,20.8-33.81,28.72-52.46,11.63-27.38,7.91-63.44,4.47-92.29-2.12-17.8-8.46-35.96-19.12-50.48-1.17-1.59-2.41-3.11-3.7-4.58-1.63-2.13-3.6-4.09-5.65-6.13-.18-.19-.36-.38-.54-.57,0,0,0,.02,0,.03-.12-.12-.24-.24-.36-.36l.11.06c-2.03-2.15-4.04-4.33-5.92-6.63-5.49-6.73-10.39-14.72-18.05-19.27-12.62-7.49-48.63-10.6-63.85-7.86-18.98,3.42-39.49,15.08-53.56,26.57-17.83,14.55-16.33,33.8-28.89,51.55-3.46,4.88-7.99,9.45-6.34,16.06,1.14,4.54.77,9.17.7,13.79.19,0,.34,0,.35.01.93,9.91,2.16,19.79,3.76,29.62,1.6,9.84,2.43,76.84,37.83,93.86,8.49,4.08,5.3,10.58,4.24,20.28-13.73,2.41-30.12,7.03-42.26,11.17,11.67,70.3,102.22,85.6,156.96,64,17.36-6.85,61.67-50.85,41.17-70.74-8.43-8.18-22-7.35-36.07-4.72Z"/><path class="cls-30" d="m302.26,766.7c-1.62-8.04-1.64-16.69-2.5-24.98,1.45-26.03-4.25-52.44-9.04-78.42-3.32-14.74-6.56-30.38-15.24-43.09-1.3-1.73-3.11-3.55-3.14-6.08,7.2-1.8,15.22,2.4,21.69-.67,2.53-1.81,5.14-2.23,7.91-.42,5.29,3.46,10.7,6.54,16.94,6.45,45.37,2.56,64.49,9.5,109.96,7.91,14.86-3.35,29.41-5.23,44.49-8.01,12.53-.96,24.51-.72,36.28-5.8-2.95-38.49,10.19-71.68-7.17-111.89-23.07-64.91-37.49-85.09-96.83-110.99-18.25-5.66-37.27-7.65-56.04-10.78-17.1-3.08-42.87-15.09-58.07-20.27-15.19,5.48-23.53,12.26-21.61,27.39-41.89-4.45-46.33-38.66-84.98-12.27-8.97,5-119.43,35-135.2,61.54-8.65,14.56-7.21,43.25-10.4,60.08-3.41,17.94-8.93,34.49-13.33,51.71-22.7,68.12-50.86,93.03,22.83,139.12,4.84,3.03,5.15,26.57,5.3,38.52.46,37.15,10.31,117.04,5.86,154.33-16.68,139.84,195.79,39.51,281.61,40.32-4.16-34.41-21.84-121.32-21.7-121.21-.37-.31-3.95-4.64-4.7-6.53-6.74-2.02-10.19-7.9-12.79-13.92l-.15-12.02Z"/><g class="cls-31"><polygon class="cls-19" points="168.97 372.01 163.51 381.3 170.46 390.91 176.35 381.13 168.97 372.01"/><polygon class="cls-19" points="199.04 372.01 193.57 381.3 200.53 390.91 206.41 381.13 199.04 372.01"/><polygon class="cls-19" points="229.1 372.01 223.64 381.3 230.59 390.91 236.48 381.13 229.1 372.01"/><polygon class="cls-19" points="259.17 372.01 253.7 381.3 260.66 390.91 266.54 381.13 259.17 372.01"/><polygon class="cls-19" points="349.36 372.01 343.9 381.3 350.85 390.91 356.74 381.13 349.36 372.01"/><polygon class="cls-19" points="379.43 372.01 373.96 381.3 380.92 390.91 386.8 381.13 379.43 372.01"/><polygon class="cls-19" points="78.78 408.1 73.31 417.39 80.27 426.99 86.15 417.21 78.78 408.1"/><polygon class="cls-19" points="108.84 408.1 103.38 417.39 110.33 426.99 116.22 417.21 108.84 408.1"/><polygon class="cls-19" points="138.91 408.1 133.44 417.39 140.4 426.99 146.28 417.21 138.91 408.1"/><polygon class="cls-19" points="168.97 408.1 163.51 417.39 170.46 426.99 176.35 417.21 168.97 408.1"/><polygon class="cls-19" points="199.04 408.1 193.57 417.39 200.53 426.99 206.41 417.21 199.04 408.1"/><polygon class="cls-19" points="229.1 408.1 223.64 417.39 230.59 426.99 236.48 417.21 229.1 408.1"/><polygon class="cls-19" points="259.17 408.1 253.7 417.39 260.66 426.99 266.54 417.21 259.17 408.1"/><polygon class="cls-19" points="289.23 408.1 283.77 417.39 290.72 426.99 296.61 417.21 289.23 408.1"/><polygon class="cls-19" points="319.3 408.1 313.83 417.39 320.79 426.99 326.67 417.21 319.3 408.1"/><polygon class="cls-19" points="349.36 408.1 343.9 417.39 350.85 426.99 356.74 417.21 349.36 408.1"/><polygon class="cls-19" points="379.43 408.1 373.96 417.39 380.92 426.99 386.8 417.21 379.43 408.1"/><polygon class="cls-19" points="409.49 408.1 404.03 417.39 410.98 426.99 416.87 417.21 409.49 408.1"/><polygon class="cls-19" points="48.71 444.18 43.25 453.47 50.2 463.08 56.09 453.29 48.71 444.18"/><polygon class="cls-19" points="78.78 444.18 73.31 453.47 80.27 463.08 86.15 453.29 78.78 444.18"/><polygon class="cls-19" points="108.84 444.18 103.38 453.47 110.33 463.08 116.22 453.29 108.84 444.18"/><polygon class="cls-19" points="138.91 444.18 133.44 453.47 140.4 463.08 146.28 453.29 138.91 444.18"/><polygon class="cls-19" points="168.97 444.18 163.51 453.47 170.46 463.08 176.35 453.29 168.97 444.18"/><polygon class="cls-19" points="199.04 444.18 193.57 453.47 200.53 463.08 206.41 453.29 199.04 444.18"/><polygon class="cls-19" points="229.1 444.18 223.64 453.47 230.59 463.08 236.48 453.29 229.1 444.18"/><polygon class="cls-19" points="259.17 444.18 253.7 453.47 260.66 463.08 266.54 453.29 259.17 444.18"/><polygon class="cls-19" points="289.23 444.18 283.77 453.47 290.72 463.08 296.61 453.29 289.23 444.18"/><polygon class="cls-19" points="319.3 444.18 313.83 453.47 320.79 463.08 326.67 453.29 319.3 444.18"/><polygon class="cls-19" points="349.36 444.18 343.9 453.47 350.85 463.08 356.74 453.29 349.36 444.18"/><polygon class="cls-19" points="379.43 444.18 373.96 453.47 380.92 463.08 386.8 453.29 379.43 444.18"/><polygon class="cls-19" points="409.49 444.18 404.03 453.47 410.98 463.08 416.87 453.29 409.49 444.18"/><polygon class="cls-19" points="48.71 480.26 43.25 489.56 50.2 499.16 56.09 489.38 48.71 480.26"/><polygon class="cls-19" points="78.78 480.26 73.31 489.56 80.27 499.16 86.15 489.38 78.78 480.26"/><polygon class="cls-19" points="108.84 480.26 103.38 489.56 110.33 499.16 116.22 489.38 108.84 480.26"/><polygon class="cls-19" points="138.91 480.26 133.44 489.56 140.4 499.16 146.28 489.38 138.91 480.26"/><polygon class="cls-19" points="168.97 480.26 163.51 489.56 170.46 499.16 176.35 489.38 168.97 480.26"/><polygon class="cls-19" points="199.04 480.26 193.57 489.56 200.53 499.16 206.41 489.38 199.04 480.26"/><polygon class="cls-19" points="229.1 480.26 223.64 489.56 230.59 499.16 236.48 489.38 229.1 480.26"/><polygon class="cls-19" points="259.17 480.26 253.7 489.56 260.66 499.16 266.54 489.38 259.17 480.26"/><polygon class="cls-19" points="289.23 480.26 283.77 489.56 290.72 499.16 296.61 489.38 289.23 480.26"/><polygon class="cls-19" points="319.3 480.26 313.83 489.56 320.79 499.16 326.67 489.38 319.3 480.26"/><polygon class="cls-19" points="349.36 480.26 343.9 489.56 350.85 499.16 356.74 489.38 349.36 480.26"/><polygon class="cls-19" points="379.43 480.26 373.96 489.56 380.92 499.16 386.8 489.38 379.43 480.26"/><polygon class="cls-19" points="409.49 480.26 404.03 489.56 410.98 499.16 416.87 489.38 409.49 480.26"/><polygon class="cls-19" points="48.71 516.35 43.25 525.64 50.2 535.24 56.09 525.46 48.71 516.35"/><polygon class="cls-19" points="78.78 516.35 73.31 525.64 80.27 535.24 86.15 525.46 78.78 516.35"/><polygon class="cls-19" points="108.84 516.35 103.38 525.64 110.33 535.24 116.22 525.46 108.84 516.35"/><polygon class="cls-19" points="138.91 516.35 133.44 525.64 140.4 535.24 146.28 525.46 138.91 516.35"/><polygon class="cls-19" points="168.97 516.35 163.51 525.64 170.46 535.24 176.35 525.46 168.97 516.35"/><polygon class="cls-19" points="199.04 516.35 193.57 525.64 200.53 535.24 206.41 525.46 199.04 516.35"/><polygon class="cls-19" points="229.1 516.35 223.64 525.64 230.59 535.24 236.48 525.46 229.1 516.35"/><polygon class="cls-19" points="259.17 516.35 253.7 525.64 260.66 535.24 266.54 525.46 259.17 516.35"/><polygon class="cls-19" points="289.23 516.35 283.77 525.64 290.72 535.24 296.61 525.46 289.23 516.35"/><polygon class="cls-19" points="319.3 516.35 313.83 525.64 320.79 535.24 326.67 525.46 319.3 516.35"/><polygon class="cls-19" points="349.36 516.35 343.9 525.64 350.85 535.24 356.74 525.46 349.36 516.35"/><polygon class="cls-19" points="379.43 516.35 373.96 525.64 380.92 535.24 386.8 525.46 379.43 516.35"/><polygon class="cls-19" points="409.49 516.35 404.03 525.64 410.98 535.24 416.87 525.46 409.49 516.35"/><polygon class="cls-19" points="18.65 552.43 13.18 561.72 20.14 571.33 26.02 561.55 18.65 552.43"/><polygon class="cls-19" points="48.71 552.43 43.25 561.72 50.2 571.33 56.09 561.55 48.71 552.43"/><polygon class="cls-19" points="78.78 552.43 73.31 561.72 80.27 571.33 86.15 561.55 78.78 552.43"/><polygon class="cls-19" points="108.84 552.43 103.38 561.72 110.33 571.33 116.22 561.55 108.84 552.43"/><polygon class="cls-19" points="138.91 552.43 133.44 561.72 140.4 571.33 146.28 561.55 138.91 552.43"/><polygon class="cls-19" points="168.97 552.43 163.51 561.72 170.46 571.33 176.35 561.55 168.97 552.43"/><polygon class="cls-19" points="199.04 552.43 193.57 561.72 200.53 571.33 206.41 561.55 199.04 552.43"/><polygon class="cls-19" points="229.1 552.43 223.64 561.72 230.59 571.33 236.48 561.55 229.1 552.43"/><polygon class="cls-19" points="259.17 552.43 253.7 561.72 260.66 571.33 266.54 561.55 259.17 552.43"/><polygon class="cls-19" points="289.23 552.43 283.77 561.72 290.72 571.33 296.61 561.55 289.23 552.43"/><polygon class="cls-19" points="319.3 552.43 313.83 561.72 320.79 571.33 326.67 561.55 319.3 552.43"/><polygon class="cls-19" points="349.36 552.43 343.9 561.72 350.85 571.33 356.74 561.55 349.36 552.43"/><polygon class="cls-19" points="379.43 552.43 373.96 561.72 380.92 571.33 386.8 561.55 379.43 552.43"/><polygon class="cls-19" points="409.49 552.43 404.03 561.72 410.98 571.33 416.87 561.55 409.49 552.43"/><polygon class="cls-19" points="18.65 588.52 13.18 597.81 20.14 607.41 26.02 597.63 18.65 588.52"/><polygon class="cls-19" points="48.71 588.52 43.25 597.81 50.2 607.41 56.09 597.63 48.71 588.52"/><polygon class="cls-19" points="78.78 588.52 73.31 597.81 80.27 607.41 86.15 597.63 78.78 588.52"/><polygon class="cls-19" points="108.84 588.52 103.38 597.81 110.33 607.41 116.22 597.63 108.84 588.52"/><polygon class="cls-19" points="138.91 588.52 133.44 597.81 140.4 607.41 146.28 597.63 138.91 588.52"/><polygon class="cls-19" points="168.97 588.52 163.51 597.81 170.46 607.41 176.35 597.63 168.97 588.52"/><polygon class="cls-19" points="199.04 588.52 193.57 597.81 200.53 607.41 206.41 597.63 199.04 588.52"/><polygon class="cls-19" points="229.1 588.52 223.64 597.81 230.59 607.41 236.48 597.63 229.1 588.52"/><polygon class="cls-19" points="259.17 588.52 253.7 597.81 260.66 607.41 266.54 597.63 259.17 588.52"/><polygon class="cls-19" points="289.23 588.52 283.77 597.81 290.72 607.41 296.61 597.63 289.23 588.52"/><polygon class="cls-19" points="319.3 588.52 313.83 597.81 320.79 607.41 326.67 597.63 319.3 588.52"/><polygon class="cls-19" points="349.36 588.52 343.9 597.81 350.85 607.41 356.74 597.63 349.36 588.52"/><polygon class="cls-19" points="379.43 588.52 373.96 597.81 380.92 607.41 386.8 597.63 379.43 588.52"/><polygon class="cls-19" points="409.49 588.52 404.03 597.81 410.98 607.41 416.87 597.63 409.49 588.52"/><polygon class="cls-19" points="439.56 588.52 434.09 597.81 441.05 607.41 446.93 597.63 439.56 588.52"/><polygon class="cls-19" points="18.65 624.6 13.18 633.89 20.14 643.5 26.02 633.72 18.65 624.6"/><polygon class="cls-19" points="48.71 624.6 43.25 633.89 50.2 643.5 56.09 633.72 48.71 624.6"/><polygon class="cls-19" points="78.78 624.6 73.31 633.89 80.27 643.5 86.15 633.72 78.78 624.6"/><polygon class="cls-19" points="108.84 624.6 103.38 633.89 110.33 643.5 116.22 633.72 108.84 624.6"/><polygon class="cls-19" points="138.91 624.6 133.44 633.89 140.4 643.5 146.28 633.72 138.91 624.6"/><polygon class="cls-19" points="168.97 624.6 163.51 633.89 170.46 643.5 176.35 633.72 168.97 624.6"/><polygon class="cls-19" points="199.04 624.6 193.57 633.89 200.53 643.5 206.41 633.72 199.04 624.6"/><polygon class="cls-19" points="229.1 624.6 223.64 633.89 230.59 643.5 236.48 633.72 229.1 624.6"/><polygon class="cls-19" points="259.17 624.6 253.7 633.89 260.66 643.5 266.54 633.72 259.17 624.6"/><polygon class="cls-19" points="289.23 624.6 283.77 633.89 290.72 643.5 296.61 633.72 289.23 624.6"/><polygon class="cls-19" points="18.65 660.68 13.18 669.98 20.14 679.58 26.02 669.8 18.65 660.68"/><polygon class="cls-19" points="48.71 660.68 43.25 669.98 50.2 679.58 56.09 669.8 48.71 660.68"/><polygon class="cls-19" points="78.78 660.68 73.31 669.98 80.27 679.58 86.15 669.8 78.78 660.68"/><polygon class="cls-19" points="108.84 660.68 103.38 669.98 110.33 679.58 116.22 669.8 108.84 660.68"/><polygon class="cls-19" points="138.91 660.68 133.44 669.98 140.4 679.58 146.28 669.8 138.91 660.68"/><polygon class="cls-19" points="168.97 660.68 163.51 669.98 170.46 679.58 176.35 669.8 168.97 660.68"/><polygon class="cls-19" points="199.04 660.68 193.57 669.98 200.53 679.58 206.41 669.8 199.04 660.68"/><polygon class="cls-19" points="229.1 660.68 223.64 669.98 230.59 679.58 236.48 669.8 229.1 660.68"/><polygon class="cls-19" points="259.17 660.68 253.7 669.98 260.66 679.58 266.54 669.8 259.17 660.68"/><polygon class="cls-19" points="289.23 660.68 283.77 669.98 290.72 679.58 296.61 669.8 289.23 660.68"/><polygon class="cls-19" points="78.78 696.77 73.31 706.06 80.27 715.67 86.15 705.88 78.78 696.77"/><polygon class="cls-19" points="108.84 696.77 103.38 706.06 110.33 715.67 116.22 705.88 108.84 696.77"/><polygon class="cls-19" points="138.91 696.77 133.44 706.06 140.4 715.67 146.28 705.88 138.91 696.77"/><polygon class="cls-19" points="168.97 696.77 163.51 706.06 170.46 715.67 176.35 705.88 168.97 696.77"/><polygon class="cls-19" points="199.04 696.77 193.57 706.06 200.53 715.67 206.41 705.88 199.04 696.77"/><polygon class="cls-19" points="229.1 696.77 223.64 706.06 230.59 715.67 236.48 705.88 229.1 696.77"/><polygon class="cls-19" points="259.17 696.77 253.7 706.06 260.66 715.67 266.54 705.88 259.17 696.77"/><polygon class="cls-19" points="289.23 696.77 283.77 706.06 290.72 715.67 296.61 705.88 289.23 696.77"/><polygon class="cls-19" points="78.78 732.85 73.31 742.15 80.27 751.75 86.15 741.97 78.78 732.85"/><polygon class="cls-19" points="108.84 732.85 103.38 742.15 110.33 751.75 116.22 741.97 108.84 732.85"/><polygon class="cls-19" points="138.91 732.85 133.44 742.15 140.4 751.75 146.28 741.97 138.91 732.85"/><polygon class="cls-19" points="168.97 732.85 163.51 742.15 170.46 751.75 176.35 741.97 168.97 732.85"/><polygon class="cls-19" points="199.04 732.85 193.57 742.15 200.53 751.75 206.41 741.97 199.04 732.85"/><polygon class="cls-19" points="229.1 732.85 223.64 742.15 230.59 751.75 236.48 741.97 229.1 732.85"/><polygon class="cls-19" points="259.17 732.85 253.7 742.15 260.66 751.75 266.54 741.97 259.17 732.85"/><polygon class="cls-19" points="289.23 732.85 283.77 742.15 290.72 751.75 296.61 741.97 289.23 732.85"/><polygon class="cls-19" points="78.78 768.94 73.31 778.23 80.27 787.83 86.15 778.05 78.78 768.94"/><polygon class="cls-19" points="108.84 768.94 103.38 778.23 110.33 787.83 116.22 778.05 108.84 768.94"/><polygon class="cls-19" points="138.91 768.94 133.44 778.23 140.4 787.83 146.28 778.05 138.91 768.94"/><polygon class="cls-19" points="168.97 768.94 163.51 778.23 170.46 787.83 176.35 778.05 168.97 768.94"/><polygon class="cls-19" points="199.04 768.94 193.57 778.23 200.53 787.83 206.41 778.05 199.04 768.94"/><polygon class="cls-19" points="229.1 768.94 223.64 778.23 230.59 787.83 236.48 778.05 229.1 768.94"/><polygon class="cls-19" points="259.17 768.94 253.7 778.23 260.66 787.83 266.54 778.05 259.17 768.94"/><polygon class="cls-19" points="289.23 768.94 283.77 778.23 290.72 787.83 296.61 778.05 289.23 768.94"/><polygon class="cls-19" points="78.78 805.02 73.31 814.31 80.27 823.92 86.15 814.14 78.78 805.02"/><polygon class="cls-19" points="108.84 805.02 103.38 814.31 110.33 823.92 116.22 814.14 108.84 805.02"/><polygon class="cls-19" points="138.91 805.02 133.44 814.31 140.4 823.92 146.28 814.14 138.91 805.02"/><polygon class="cls-19" points="168.97 805.02 163.51 814.31 170.46 823.92 176.35 814.14 168.97 805.02"/><polygon class="cls-19" points="199.04 805.02 193.57 814.31 200.53 823.92 206.41 814.14 199.04 805.02"/><polygon class="cls-19" points="229.1 805.02 223.64 814.31 230.59 823.92 236.48 814.14 229.1 805.02"/><polygon class="cls-19" points="259.17 805.02 253.7 814.31 260.66 823.92 266.54 814.14 259.17 805.02"/><polygon class="cls-19" points="289.23 805.02 283.77 814.31 290.72 823.92 296.61 814.14 289.23 805.02"/><polygon class="cls-19" points="319.3 805.02 313.83 814.31 320.79 823.92 326.67 814.14 319.3 805.02"/><polygon class="cls-19" points="108.84 841.11 103.38 850.4 110.33 860 116.22 850.22 108.84 841.11"/><polygon class="cls-19" points="138.91 841.11 133.44 850.4 140.4 860 146.28 850.22 138.91 841.11"/><polygon class="cls-19" points="168.97 841.11 163.51 850.4 170.46 860 176.35 850.22 168.97 841.11"/><polygon class="cls-19" points="199.04 841.11 193.57 850.4 200.53 860 206.41 850.22 199.04 841.11"/><polygon class="cls-19" points="229.1 841.11 223.64 850.4 230.59 860 236.48 850.22 229.1 841.11"/><polygon class="cls-19" points="259.17 841.11 253.7 850.4 260.66 860 266.54 850.22 259.17 841.11"/><polygon class="cls-19" points="289.23 841.11 283.77 850.4 290.72 860 296.61 850.22 289.23 841.11"/><polygon class="cls-19" points="319.3 841.11 313.83 850.4 320.79 860 326.67 850.22 319.3 841.11"/></g><path class="cls-21" d="m372.29,224.96c.1-1.21,2.29-2.32,2.27-2.9-.73-21.33-1.39-48.99-17.98-63.32-19.86-17.16-55.72-9.96-80.32-14.08-26.33-4.41-71.17-15.07-81.37,19.54-3.73,12.64,3.08,26.85,1.85,40.14-.7,7.54-1.9,27.11-1.85,27.3-5.35-19.09-16.01-8.52-18.82-7.63-10.73,3.39-11.45,21.77-10.61,25.78,2.09,9.92,8.07,11.36,17.67,15.81,1.61.75,9.4-.33,11.76.25,4.07,11.91,2.58,19.98,6.1,33.86,5.35,21.1,9.68,45.31,18.27,47.13.5.61,2.65,24.85.73,30.2,0,.33,0,.67,0,1,6.58,2.65,13.71,3.92,20.72,4.69,8.2.9,16.5,17.74,24.68,18.81,17.17,2.26,24.64,2.74,34.54,2.11,10.14-.64,23.47-5.51,32.18-10.75,3.35-2.02,4.92-31.91,5.2-31.97,2.68-2.47,25.88-14.2,29.26-36.99,3.71-24.98,1.44-41.28-1.82-55.19,0-.15-.01-.32-.01-.47,10.55.34,20.82-5.62,26.28-17.15,5.51-11.64-5.76-24.98-18.73-26.2Z"/><path class="cls-2" d="m231.49,327.8c-.1-.05-.2-.1-.31-.16.09.06.19.12.28.18,0,0,.03-.03.03-.03Z"/><path class="cls-13" d="m299.76,295.16c-1.17,0-2.42-.13-3.73-.38-8.73-1.71-19.38-9.17-22.1-18.71l3.82-1.09c2.27,7.96,11.66,14.45,19.04,15.9,2.24.44,6.31.79,8.36-1.82,1.43-1.82,2.99-6.66-2.54-18.63-.88-1.26-5.51-8.51-5.15-20.69l3.98.12c-.34,11.7,4.45,18.32,4.5,18.39l.21.35c4.97,10.69,5.69,18.4,2.14,22.92-1.89,2.4-4.85,3.65-8.53,3.65Z"/><path class="cls-1" d="m256.42,240.93c.07.54.24,1.08.52,1.58,1.16,2.04,3.77,2.76,5.81,1.6,2.05-1.16,2.76-3.76,1.6-5.8-.02-.04-.06-.07-.08-.12-.86-.06-6.21,1.68-7.85,2.74Z"/><path class="cls-1" d="m317.74,238.53c-.29.46-.5.98-.59,1.55-.39,2.32,1.17,4.51,3.49,4.9,2.32.39,4.52-1.17,4.91-3.49,0-.05,0-.09,0-.14-.63-.59-5.87-2.62-7.82-2.83Z"/><path class="cls-10" d="m519.68,920.33s-22.58-26.5-23.64-41.91c-4.13-59.86,8.85-109.59,15.36-172.34,7.72-74.37-.39-186.96,51.73-244.69,31.63-35.04,69.37-37.1,116.8-48.77,19.23,28.85,20.97,47.89,89.33,57.05-10.24,68.39-40.06,149.21-46.96,219.34-7.09,72.1-21.13,158.22-17.69,231.36l-184.93-.04Z"/><path class="cls-2" d="m811.48,360.93c.1-.05.2-.1.31-.16-.09.06-.19.12-.28.18,0,0-.03-.03-.03-.03Z"/><path class="cls-13" d="m764.15,306.47c-3.85,0-7.96-1.91-11.6-5.52l2.8-2.82c3.79,3.75,8.18,5.22,11.48,3.84,3.73-1.56,5.84-6.52,5.81-13.61l3.98-.02c.04,8.78-2.97,15.08-8.25,17.29-1.34.56-2.76.84-4.22.84Z"/><path class="cls-22" d="m861.25,138.33c-16.51-12.99-77.99-20.67-78.55-23.37-2.45-11.84-22.33-18.16-32.56-18.16-26.68,1.41-40.89,5.36-67.82,15.41l-.23.09c-30.12,11.28-57.48,28.75-75.58,54.18-18.03,25.33-24.45,47.46-28.53,77.42-3.42,25.08-10.8,38.72-7.48,64.46,19.71,18.35,115.57,37.21,136.05,42.33,9.86-15.91,9.86-25.29,16.5-42.55l7.44-79.17c18.4-11.48,38.93-47.45,57.94-65.39,7.6,3.03,14.19,16.45,15.65,25.83,3.23,20.75,20.71,39.68,29.28,47.28,35.24,31.24,7.32,95.01,29.4,137.75,22.65-28.48,70.57-25.82,93.42-47.02-26.33-61.59-39.74-145.66-94.92-189.08Z"/><path class="cls-13" d="m764.44,333.57c-6.49,0-13.49-1.19-18.32-3.61l1.78-3.55c9.45,4.72,26.24,3.75,29.51.39l2.85,2.77c-2.59,2.65-8.92,4-15.82,4Z"/><ellipse class="cls-26" cx="721.63" cy="412.68" rx="11.69" ry="11.67"/><ellipse class="cls-26" cx="738.45" cy="424.29" rx="11.69" ry="11.67"/><ellipse class="cls-26" cx="760.7" cy="430.51" rx="11.69" ry="11.67"/><ellipse class="cls-26" cx="782.71" cy="430.51" rx="11.69" ry="11.67"/><ellipse class="cls-26" cx="805.03" cy="427.95" rx="11.69" ry="11.67"/><path class="cls-9" d="m573.07,635.15c1.93,0,1.93-3,0-3s-1.93,3,0,3h0Z"/><path class="cls-16" d="m766.91,734.14c-6.64-1-16.26,3.77-23.83,5.53-.02-.28-.03-.56-.05-.83-.96-19.49-1.26-39.02-.64-58.51.35-10.88,1.65-21.82,4.58-32.39,1.17-4.2,3.56-8.04,4.99-12.19.89-2.58,4.17-4.79,5.6-7.04-3.24.26-15.04-3.87-22.76-3.63-6.31.2-19.31.06-19.66.08-6.33.26-12.65.66-18.97,1.2-12.52,1.06-24.96,2.74-37.35,4.78-8.61,1.42-17.38,1.8-26.07,1.11-1.43.12-11.63-1.52-15.24-2.29-4.87-.47-19.2-5.31-18.35-5.05-3.01-1.67-17.04-8.34-22.58-9.45-10.53-2.11-18.18-4.04-28.99-3.58-4.92.21-10.06.09-15.24.04-7.71-.06-15.49.04-22.72,1.67,0,0,0,0-.01,0-3.95.89-7.85,2.68-11.52,3.71-7.95,2.23-16.61.59-24.76,2.1-15.08,2.78-30.05,2.95-44.9,6.3-10.03,2.26-60.86-3.54-60.98-3.45-1.06.77-33.05-5.36-48.14-5.13-6.24.09-12.08-.6-17.36-4.06-2.77-1.81-5.38-1.39-7.91.42-2.15,1.54-4.23,1.6-6.91.98-4.82-1.11-9.84-.55-14.78-.31.03,2.53,1.84,4.35,3.14,6.08,4.95,6.63,7.39,14.19,9.81,21.94,2.18,6.98-8.11,12.31-6.85,19.42,1.44,8.18,3.63,113.27,5.3,117.03,1.7,3.82,28.91,12.66,29.31,12.83.75,1.89,18.92,141.97,19.09,145.2l131.99-16.23h236.22c-.05-3.5-.02-7.02.13-10.59.61-14.88,8.27-49.05,8.38-51.44,5.24-18.04,1.72-36.68,10.57-54.34,3.26-6.52,14.97-17.88,15.41-18.04,7.55-2.81,25.56-3.01,26.24-3.51.57-.29,1.13-.62,1.68-.99,0-.02,0-.17,0-.37,11.86-10.87,4.93-32.41,4.16-46.95Z"/><polygon class="cls-3" points="459.32 601.38 459.32 601.37 459.32 601.38 459.32 601.38"/><path class="cls-2" d="m459.31,601.34c-.1-.05-.21-.11-.31-.16.09.06.19.12.28.18,0,0,.03-.03.03-.03Z"/><path class="cls-4" d="m817.54,754.31c.18.08.36.15.54.23-.08.18-.12.46-.24.51-.13.05-.35-.13-.53-.2.08-.18.16-.36.23-.54Z"/><path class="cls-14" d="m586.9,403.68c-25,6.68-47.13,14.2-64.04,0-19.34-.17-61.58,3.15-78.62,6.84-13.09,19.22,3.18,55.8-10.18,76.14,9.53,61.07,32.87,112.35,7.29,165.2,52.06,135.49,116.85,53.55,132.05,5.84-.8-2.88-3.11-41.86-3.09-42.8,1.5-11.66,9.79-22.46,14.07-34.13,2.95-8.06,5.98-16.08,8.93-24.14.97-2.65,1.9-5.3,2.85-7.96.22-3.3.29-6.65.19-10.06,1.57-8.71,9.84-36.74,15.24-47.3.74-2.71,1.58-5.4,2.55-8.05.97-2.65,2.13-5.26,3.47-7.76-24.32,17.77,4.92-32.11-30.7-71.82Z"/><path class="cls-18" d="m556.63,497.83c-2.88.01-5.02-2.12-5.07-5.04-.04-2.77,2.07-4.8,4.99-4.79,2.8,0,5.1,1.9,5.16,4.24.07,3.09-2.19,5.58-5.08,5.6Z"/><path class="cls-18" d="m484.37,495.58c-2.88.01-5.02-2.12-5.07-5.04-.04-2.77,2.07-4.8,4.99-4.79,2.8,0,5.1,1.9,5.16,4.24.07,3.09-2.19,5.58-5.08,5.6Z"/><path class="cls-15" d="m624.39,392.71c-5.04-9.58-12.1-16.92-23.57-18.36-1.97-.25-2.37-1.08-2.42-2.85-.17-5.73-1.38-11.27-3.62-16.57-8.51-20.12-23.95-32.95-43.78-40.93-14.09-5.67-28.66-6.66-43.37-2.65-9.94,2.7-18.47,7.38-21.81,18.09-.53,1.7-1.76,1.78-3.16,1.93-8.4.93-16.65,2.58-24.59,5.51-7.7,2.85-15.17,6.16-21.01,12.19-2.92,3.02-4.21,6.51-1.99,10.43,1.01,1.79.61,2.69-1.05,3.45-4.25,1.93-7.75,4.87-10.88,8.25-8.35,9-15.28,18.92-17.69,31.18-1.76,8.92-1.09,17.99.05,26.96,1.27,9.93,3.9,19.6,5.76,29.42,1.2,1.25,2.73,1.27,4.35,1.45,7.86.88,13.68,3.46,15.05,12.79.48,3.25.19,6.34-.17,9.5-.21,1.84-.1,3.64,2.04,4.15,2.21.53,3.55-.97,4.18-2.78.63-1.84,4.26-18.53,4.11-22.11.79-4-.35-38.09,10.72-45.54,8.51-5.72,29.31-8.21,32.36-8.15,9.12.18,33.88,1.19,35.08,1.33,1.99.23,4.95.74,5.67,2.95.31.96.74,7.1.77,7.25,1.08.98,44.97-1.24,57.97-4.08,2.79-.61,3.72-.17,4.19,2.62,1.75,10.4,7.06,19.24,12.61,27.98,3.11,4.9,7.18,9.48,5.7,16.11-1.28,5.72,9.44,18.24,10.25,16.24,2.02-4.95,5.39-8.79,9.73-11.82,1.63-1.14,6.11-17.18,6.48-21.58,1.54-18.08.71-35.87-7.97-52.37Z"/><path class="cls-15" d="m553.24,547.75c-5.89-2.92-9.22-9.52-16.67-10.44-2.28,3.81-5.57,6.65-9.84,8.49-1.94.84-4.1,1.61-6.66,1.61-2.32,0-4.97-.64-8.08-2.46-1.92-1.12-4.72-3.32-7.38-5.99-5.08,1.77-10.15,4.61-15.03,5.97-14.3,3.98-13.11-3.28-28.32-2.52.91,20.59,31.77,22.54,62.66,21.97,27.2-.5,41.06,2.84,56.93-14.82-12.5-5.1-16.86,3.51-27.6-1.81Z"/><path class="cls-15" d="m536.57,537.31c1.7-2.84,2.84-6.22,3.41-10.12l-3.94-.57c-.66,4.54-2.17,8.14-4.53,10.9,1.89-.35,3.56-.4,5.06-.21Z"/><path class="cls-15" d="m501.2,527.2l-3.82,1.09c1.01,3.55,4.02,7.46,7.23,10.68,1.5-.52,3-.95,4.49-1.22-3.39-3.09-6.95-7.23-7.89-10.54Z"/><path class="cls-15" d="m520.07,547.41c2.56,0,4.72-.78,6.66-1.61,4.28-1.84,7.56-4.69,9.84-8.49-1.5-.18-3.17-.14-5.06.21-1.68,1.97-3.78,3.52-6.36,4.64-3.18,1.37-6.21,2.26-11.15-.63-1.29-.75-3.07-2.12-4.9-3.79-1.49.27-2.99.7-4.49,1.22,2.66,2.67,5.46,4.87,7.38,5.99,3.11,1.82,5.76,2.46,8.08,2.46Z"/><path class="cls-13" d="m366.87,231.62c.04-.43.08-.87.12-1.3.08-.98.18-1.97.26-2.96-6.26,2.02-18.19,5.39-29.63,8.46-2.68-6.07-9.56-10.41-17.62-10.41s-14.44,4.02-17.32,9.73c-6.4-3.25-17.56-1.8-24.29,2.03-1.8-7.62-9.38-13.36-18.42-13.36-8.22,0-15.21,4.75-17.78,11.34-7.35-.55-42.4-6.05-46.06-7.27l-1.24,3.77c3.07,1.03,36.32,6.45,46.34,7.37-.06.55-.09,1.1-.09,1.66,0,9.29,8.45,16.86,18.83,16.86s18.19-7.02,18.78-15.85c5.25-4.03,17.36-6.01,22.66-2.7-.15.8-.24,1.61-.24,2.45,0,8.83,8.45,16.01,18.83,16.01s18.83-7.18,18.83-16.01c0-.61-.05-1.2-.13-1.79,7.12-1.91,20.08-5.45,28.16-8.02Zm-106.9,21.94c-8.21,0-14.9-5.78-14.9-12.89s6.68-12.89,14.9-12.89,14.9,5.78,14.9,12.89-6.68,12.89-14.9,12.89Zm60.03-.09c-8.21,0-14.9-5.4-14.9-12.04s6.68-12.04,14.9-12.04,14.9,5.4,14.9,12.04-6.68,12.04-14.9,12.04Z"/><path class="cls-12" d="m382.84,169.34c-2.66-15.66-5.91-20.1-21.23-32.28-7.24-13.02-21.1-11.87-29.99-20.21-6.81-3.7-21.03-4.56-28.47-4.9-18.68-2.09-12.92-12.25-43.16-9.8-13.34,3.01-26.74,7.42-40.54,7.96-9.79.61-20.62,11.28-28.34,15.89-24.37,17.56-25.37,56.86-12.69,82.03,3.21,5.92,7.69,11.23,12.42,16.23,3.34,3.53,3.81,7.49,3.89,11.9.06,4.49,1.85,18.32,3.88,22.53,18.39,4.83-28.29-117.15,38.77-101.45,13.78,4.88,27.09,14.69,42.36,8.84,37.31-17.36,82.5-2.4,83.26,44.98-.14,11.74-8.61,39.18-.45,38.2,4.54-4.03,3.85-17.63,9.79-23.17,11.65-15.59,13.47-37.94,10.51-56.74Z"/><path class="cls-25" d="m358.29,309.94c1.05-2.74.43-5.47-.84-8.02-1.13-2.28-3.65-4.51-3.09-7.07,2.23-10.1-8.46-14.81-17.83-16.19-20.55-3.02-46.75,2.66-66.5,8.5-1.97.58-4.59,1.66-7.57,2.9.67-1.79,1.32-3.52,1.98-5.12,3.24-7.93,13.78-37.51-7.74-35.01-25.12,4.21-46.65,39.25-46.09,54.74-20.86,43.14-48.63,156.74-39.05,169.83,15.77,21.55,67.13,20.38,93.84-72.96,6.78-23.7,20.13-28.37,42.36-36.24,5.94-2.1,10.55-5.96,16.35-7.85,1.2-.39,2.37-.69,3.53-.94,5.27-1.16,10.09-1.4,14.67-5.41,5.5-4.82,11.28-8.48,14.28-16.86.15-7.97-4.11-12.93-2.14-17.28,1.1-2.44,2.88-4.53,3.84-7.03Z"/><path class="cls-7" d="m273.98,148.26c-16-3.05-20.93-11.99-33.07-11.68-6.29.16-12.32,1.13-18.62.7,5.42,2.25,15.32,1.16,21.08,1.5,5.46.32,21.53,12.38,30.61,9.48Z"/><path class="cls-7" d="m211.86,141.19c-10.19,12.68-21.97,5.06-27.38,15.91-2.8,5.62-3.21,19.17-6.54,24.53,4.53-3.73,6.86-19.28,9.85-24.2,2.84-4.66,20.87-3.97,24.06-16.24Z"/><path class="cls-7" d="m345.48,155.21c-15.79-4-20.17-13.21-32.31-13.62-6.29-.21-12.37.4-18.63-.4,5.28,2.57,15.23,2.07,20.95,2.75,5.43.65,23.71,10.61,29.99,11.28Z"/><path class="cls-7" d="m292.11,125.3c1.27.27,2.54.5,3.82.7-3.28-3.2-6.57-5.87-11.67-7.26-6.07-1.65-12.13-2.45-18.04-4.66,4.54,3.71,14.35,5.5,19.76,7.48,1.4.51,3.58,1.92,6.13,3.74Z"/><path class="cls-7" d="m371.19,187.3c.69,1.09,1.42,2.16,2.17,3.22,0-4.57-.38-8.79-2.95-13.4-3.06-5.49-6.72-10.37-9.26-16.13.52,5.83,6.08,14.08,8.45,19.33.61,1.36,1.12,3.9,1.6,6.99Z"/><path class="cls-7" d="m346.04,135.55c1.24.4,2.49.76,3.75,1.1-2.95-3.51-5.96-6.5-10.91-8.42-5.9-2.28-11.87-3.72-17.54-6.54,4.16,4.15,13.77,6.97,18.98,9.5,1.35.66,3.38,2.28,5.74,4.35Z"/><path class="cls-7" d="m225.33,118.16c1.1-.7,11.94-3.04,13-3.8-4.59.05-18.58,2.08-23.21,4.68-5.51,3.1-10.42,6.78-16.2,9.37,5.85-.57,14.14-6.19,19.41-8.6,1.36-.62,3.91-1.16,7.01-1.66Z"/><path class="cls-13" d="m369.01,260.76c-.38,0-.76-.12-1.09-.36-.8-.6-.96-1.73-.36-2.53.56-.74,1.23-1.23,1.77-1.61.83-.6,1.11-.8,1.14-1.65.07-1.79-1.18-4.2-2.63-5.06-.86-.51-1.14-1.62-.63-2.48.51-.86,1.62-1.14,2.48-.63,2.59,1.54,4.53,5.19,4.4,8.31-.11,2.61-1.63,3.71-2.64,4.44-.41.29-.76.55-.99.86-.36.47-.9.72-1.45.72Z"/><path class="cls-13" d="m189.55,252.14c-.17,0-.35-.02-.52-.08-2.89-.87-5.65-3.95-6.28-7.01-.53-2.56.69-3.99,1.49-4.94.32-.38.61-.71.76-1.07.39-.92,1.45-1.35,2.37-.96.92.39,1.35,1.45.96,2.37-.36.86-.9,1.49-1.32,1.99-.66.78-.88,1.04-.71,1.88.36,1.75,2.16,3.79,3.78,4.28.96.29,1.5,1.29,1.21,2.25-.24.78-.95,1.29-1.73,1.29Z"/><path class="cls-8" d="m245.85,525.86s.02-.05.04-.07c1.69-5.55,22.55-73.05,24.93-81.56,11.35-40.55,9.41-46.32,8.11-53.28-3.98,6.29-39.6,56.83-43.11,63.28-8.88,16.31-15.45,33.63-23.98,50.06-13.03,25.09-26.15,48.97-37.11,75.1-12.4,29.56-23.31,62.43-40.75,89.46-8.59,13.31-20.38,25.29-32.34,35.61-6.01,5.19-13.02,12.39-18.54,22.1,9.56,2.83,20.9,1.76,30.6-2,8.77-3.4,18.74-5.23,27.03-10.05,9.41-5.46,16.64-16.36,23.87-24.44,15.39-17.21,25.59-39.05,34.33-60.21,5.7-13.8,12.12-26.22,19.77-39.84,11.5-20.51,20.36-41.84,27.18-64.15,0,0-.01,0-.01,0Z"/><path class="cls-8" d="m32.28,597.82c-1.97.62-3.89,1.41-5.71,2.4-3.36,1.82-6.42,4.2-9.33,6.65-2.91,2.45-5.69,5.05-8.52,7.58-1.42,1.27-2.85,2.53-4.32,3.74-.34.28-.7.55-1.05.83-2.64,11.32-5.49,24.87-1.34,37.97,6.5.3,18.22-10.58,23.25-15.27,7.36-6.87,11.71-17.48,16.36-26.28,2.98-5.64,5.98-10.93,9.16-16.01-2.65-.37-5.3-.7-7.96-.96-3.51-.34-7.02-.57-10.55-.64Z"/><path class="cls-30" d="m267.57,380.44c-3.11-1.25-6.22-2.51-9.31-3.78-5.33-2.19-10.41-4.75-15.69-7.02-5.91-2.54-11.95-4.93-18.23-6.88-6.13-1.91-12.54-3.43-19.18-4.01-3.13-.28-6.23-.22-9.41-.12-3.5.12-6.99.56-10.39,1.49-11.46,3.12-19.54,10.86-25.02,19.41-33,35.39-82.96,152.91-91.59,169.74-13.67,26.67-41.02,49.85-59.27,74.62-20.94,28.41,5.57,57.4,30.68,80.22,78.53,71.36,121.32-49.45,144.99-91.01,30.32-53.23,52.5-110.75,75.75-166.04,5.83-13.88,12.15-28,18.28-42.26,4.2-9.76-.78-20.03-11.61-24.37Z"/><g class="cls-32"><polygon class="cls-19" points="170.02 391.21 161.43 397.74 164.21 409.26 173.38 402.43 170.02 391.21"/><polygon class="cls-19" points="197.84 402.59 189.25 409.12 192.03 420.63 201.2 413.81 197.84 402.59"/><polygon class="cls-19" points="225.66 413.96 217.07 420.49 219.85 432.01 229.01 425.19 225.66 413.96"/><polygon class="cls-19" points="253.48 425.34 244.89 431.87 247.67 443.39 256.83 436.56 253.48 425.34"/><polygon class="cls-19" points="281.3 436.71 272.71 443.24 275.49 454.76 284.65 447.94 281.3 436.71"/><polygon class="cls-19" points="309.12 448.09 300.53 454.62 303.31 466.14 312.47 459.31 309.12 448.09"/><polygon class="cls-19" points="100.67 401.85 92.08 408.38 94.86 419.89 104.02 413.07 100.67 401.85"/><polygon class="cls-19" points="128.49 413.22 119.89 419.75 122.68 431.27 131.84 424.45 128.49 413.22"/><polygon class="cls-19" points="156.3 424.6 147.71 431.13 150.5 442.65 159.66 435.82 156.3 424.6"/><polygon class="cls-19" points="184.12 435.97 175.53 442.5 178.32 454.02 187.48 447.2 184.12 435.97"/><polygon class="cls-19" points="211.94 447.35 203.35 453.88 206.14 465.4 215.3 458.57 211.94 447.35"/><polygon class="cls-19" points="239.76 458.73 231.17 465.26 233.96 476.77 243.12 469.95 239.76 458.73"/><polygon class="cls-19" points="267.58 470.1 258.99 476.63 261.78 488.15 270.94 481.33 267.58 470.1"/><polygon class="cls-19" points="295.4 481.48 286.81 488.01 289.6 499.53 298.76 492.7 295.4 481.48"/><polygon class="cls-19" points="142.59 457.99 134 464.52 136.78 476.04 145.95 469.21 142.59 457.99"/><polygon class="cls-19" points="170.41 469.36 161.82 475.89 164.6 487.41 173.77 480.59 170.41 469.36"/><polygon class="cls-19" points="198.23 480.74 189.64 487.27 192.42 498.79 201.58 491.96 198.23 480.74"/><polygon class="cls-19" points="226.05 492.12 217.46 498.65 220.24 510.16 229.4 503.34 226.05 492.12"/><polygon class="cls-19" points="253.87 503.49 245.28 510.02 248.06 521.54 257.22 514.71 253.87 503.49"/><polygon class="cls-19" points="281.69 514.87 273.09 521.4 275.88 532.92 285.04 526.09 281.69 514.87"/><polygon class="cls-19" points="101.06 480 92.46 486.53 95.25 498.05 104.41 491.22 101.06 480"/><polygon class="cls-19" points="128.87 491.38 120.28 497.91 123.07 509.42 132.23 502.6 128.87 491.38"/><polygon class="cls-19" points="156.69 502.75 148.1 509.28 150.89 520.8 160.05 513.98 156.69 502.75"/><polygon class="cls-19" points="184.51 514.13 175.92 520.66 178.71 532.18 187.87 525.35 184.51 514.13"/><polygon class="cls-19" points="212.33 525.5 203.74 532.03 206.53 543.55 215.69 536.73 212.33 525.5"/><polygon class="cls-19" points="240.15 536.88 231.56 543.41 234.35 554.93 243.51 548.1 240.15 536.88"/><polygon class="cls-19" points="267.97 548.26 259.38 554.79 262.16 566.3 271.33 559.48 267.97 548.26"/><polygon class="cls-19" points="87.34 513.39 78.75 519.92 81.53 531.44 90.7 524.61 87.34 513.39"/><polygon class="cls-19" points="115.16 524.76 106.57 531.29 109.35 542.81 118.52 535.99 115.16 524.76"/><polygon class="cls-19" points="142.98 536.14 134.39 542.67 137.17 554.19 146.33 547.36 142.98 536.14"/><polygon class="cls-19" points="170.8 547.52 162.21 554.05 164.99 565.56 174.15 558.74 170.8 547.52"/><polygon class="cls-19" points="198.62 558.89 190.03 565.42 192.81 576.94 201.97 570.12 198.62 558.89"/><polygon class="cls-19" points="226.44 570.27 217.84 576.8 220.63 588.32 229.79 581.49 226.44 570.27"/><polygon class="cls-19" points="254.25 581.64 245.66 588.17 248.45 599.69 257.61 592.87 254.25 581.64"/><polygon class="cls-19" points="73.62 546.78 65.03 553.31 67.82 564.83 76.98 558 73.62 546.78"/><polygon class="cls-19" points="101.44 558.15 92.85 564.68 95.64 576.2 104.8 569.38 101.44 558.15"/><polygon class="cls-19" points="129.26 569.53 120.67 576.06 123.46 587.58 132.62 580.75 129.26 569.53"/><polygon class="cls-19" points="157.08 580.91 148.49 587.44 151.28 598.95 160.44 592.13 157.08 580.91"/><polygon class="cls-19" points="184.9 592.28 176.31 598.81 179.1 610.33 188.26 603.5 184.9 592.28"/><polygon class="cls-19" points="212.72 603.66 204.13 610.19 206.91 621.71 216.08 614.88 212.72 603.66"/><polygon class="cls-19" points="240.54 615.03 231.95 621.56 234.73 633.08 243.9 626.26 240.54 615.03"/><polygon class="cls-19" points="32.09 568.79 23.5 575.32 26.28 586.84 35.45 580.01 32.09 568.79"/><polygon class="cls-19" points="59.91 580.17 51.32 586.7 54.1 598.21 63.27 591.39 59.91 580.17"/><polygon class="cls-19" points="87.73 591.54 79.14 598.07 81.92 609.59 91.08 602.76 87.73 591.54"/><polygon class="cls-19" points="115.55 602.92 106.96 609.45 109.74 620.97 118.9 614.14 115.55 602.92"/><polygon class="cls-19" points="143.37 614.29 134.78 620.82 137.56 632.34 146.72 625.52 143.37 614.29"/><polygon class="cls-19" points="171.19 625.67 162.59 632.2 165.38 643.72 174.54 636.89 171.19 625.67"/><polygon class="cls-19" points="199.01 637.05 190.41 643.58 193.2 655.09 202.36 648.27 199.01 637.05"/><polygon class="cls-19" points="226.82 648.42 218.23 654.95 221.02 666.47 230.18 659.65 226.82 648.42"/><polygon class="cls-19" points="18.37 602.18 9.78 608.71 12.57 620.23 21.73 613.4 18.37 602.18"/><polygon class="cls-19" points="46.19 613.55 37.6 620.08 40.39 631.6 49.55 624.78 46.19 613.55"/><polygon class="cls-19" points="74.01 624.93 65.42 631.46 68.21 642.98 77.37 636.15 74.01 624.93"/><polygon class="cls-19" points="101.83 636.31 93.24 642.84 96.03 654.35 105.19 647.53 101.83 636.31"/><polygon class="cls-19" points="129.65 647.68 121.06 654.21 123.85 665.73 133.01 658.91 129.65 647.68"/><polygon class="cls-19" points="157.47 659.06 148.88 665.59 151.67 677.11 160.83 670.28 157.47 659.06"/><polygon class="cls-19" points="185.29 670.43 176.7 676.96 179.48 688.48 188.65 681.66 185.29 670.43"/><polygon class="cls-19" points="213.11 681.81 204.52 688.34 207.3 699.86 216.47 693.03 213.11 681.81"/><polygon class="cls-19" points="4.66 635.57 -3.93 642.1 -1.15 653.62 8.02 646.79 4.66 635.57"/><polygon class="cls-19" points="32.48 646.94 23.89 653.47 26.67 664.99 35.84 658.17 32.48 646.94"/><polygon class="cls-19" points="60.3 658.32 51.71 664.85 54.49 676.37 63.65 669.54 60.3 658.32"/><polygon class="cls-19" points="88.12 669.7 79.53 676.23 82.31 687.74 91.47 680.92 88.12 669.7"/><polygon class="cls-19" points="115.94 681.07 107.35 687.6 110.13 699.12 119.29 692.29 115.94 681.07"/><polygon class="cls-19" points="143.76 692.45 135.16 698.98 137.95 710.5 147.11 703.67 143.76 692.45"/><polygon class="cls-19" points="171.57 703.82 162.98 710.35 165.77 721.87 174.93 715.05 171.57 703.82"/><polygon class="cls-19" points="199.39 715.2 190.8 721.73 193.59 733.25 202.75 726.42 199.39 715.2"/><polygon class="cls-19" points="18.76 680.33 10.17 686.86 12.96 698.38 22.12 691.55 18.76 680.33"/><polygon class="cls-19" points="46.58 691.71 37.99 698.24 40.78 709.76 49.94 702.93 46.58 691.71"/><polygon class="cls-19" points="74.4 703.08 65.81 709.61 68.6 721.13 77.76 714.31 74.4 703.08"/><polygon class="cls-19" points="102.22 714.46 93.63 720.99 96.42 732.51 105.58 725.68 102.22 714.46"/><polygon class="cls-19" points="130.04 725.84 121.45 732.37 124.23 743.88 133.4 737.06 130.04 725.84"/><polygon class="cls-19" points="157.86 737.21 149.27 743.74 152.05 755.26 161.22 748.44 157.86 737.21"/><polygon class="cls-19" points="185.68 748.59 177.09 755.12 179.87 766.64 189.03 759.81 185.68 748.59"/><polygon class="cls-19" points="32.87 725.1 24.28 731.63 27.06 743.14 36.22 736.32 32.87 725.1"/><polygon class="cls-19" points="60.69 736.47 52.1 743 54.88 754.52 64.04 747.7 60.69 736.47"/><polygon class="cls-19" points="88.51 747.85 79.91 754.38 82.7 765.9 91.86 759.07 88.51 747.85"/><polygon class="cls-19" points="116.32 759.22 107.73 765.75 110.52 777.27 119.68 770.45 116.32 759.22"/><polygon class="cls-19" points="144.14 770.6 135.55 777.13 138.34 788.65 147.5 781.82 144.14 770.6"/><polygon class="cls-19" points="171.96 781.98 163.37 788.51 166.16 800.03 175.32 793.2 171.96 781.98"/><polygon class="cls-19" points="46.97 769.86 38.38 776.39 41.17 787.91 50.33 781.08 46.97 769.86"/><polygon class="cls-19" points="74.79 781.24 66.2 787.77 68.98 799.29 78.15 792.46 74.79 781.24"/><polygon class="cls-19" points="102.61 792.61 94.02 799.14 96.8 810.66 105.97 803.84 102.61 792.61"/><polygon class="cls-19" points="130.43 803.99 121.84 810.52 124.62 822.04 133.79 815.21 130.43 803.99"/><polygon class="cls-19" points="158.25 815.37 149.66 821.9 152.44 833.41 161.6 826.59 158.25 815.37"/><polygon class="cls-19" points="33.26 803.25 24.66 809.78 27.45 821.3 36.61 814.47 33.26 803.25"/><polygon class="cls-19" points="61.08 814.63 52.48 821.16 55.27 832.67 64.43 825.85 61.08 814.63"/><polygon class="cls-19" points="88.89 826 80.3 832.53 83.09 844.05 92.25 837.23 88.89 826"/><polygon class="cls-19" points="116.71 837.38 108.12 843.91 110.91 855.43 120.07 848.6 116.71 837.38"/><polygon class="cls-19" points="144.53 848.75 135.94 855.28 138.73 866.8 147.89 859.98 144.53 848.75"/><polygon class="cls-19" points="47.36 848.01 38.77 854.54 41.55 866.06 50.72 859.24 47.36 848.01"/><polygon class="cls-19" points="75.18 859.39 66.59 865.92 69.37 877.44 78.54 870.61 75.18 859.39"/><polygon class="cls-19" points="103 870.77 94.41 877.3 97.19 888.81 106.35 881.99 103 870.77"/></g><path class="cls-11" d="m451.48,544.48c-.94-6.08-2.1-12.44-2.99-17.26-.01-.08-.03-.18-.04-.26-.07-.21-.13-.42-.21-.62,0,0,.07,0,.11,0-1.23-8.11-1.26-27.71-2.05-29.95-1.38-3.93-2.17-8.09-2.99-12.15-1.1-5.48-1.98-11.01-2.79-16.54-9.92-21.95.16-59.98-18.44-51.3-17.42,8.13-17.62,51.54-16.05,63.35,1.02,7.72,6.1,25.19,5.72,27.43-.31,1.8-1.67,3.04-3.25,3.79-2.12,1.01-4.53,1.36-6.84,1.6-2.72.27-5.46.32-8.19.34-9.45.05-18.83.83-28.2,2.02-6.12.78-12.3,1.41-18.3,2.9-4.2,1.04-8.36,2.25-12.51,3.46-5.13,1.49-10.25,3.01-15.38,4.46-5.37,1.53-10.76,3-16.19,4.32-4.95,1.2-9.95,2.3-15,3.04-3.18.47-12.37.65-12.77.61-15.77,2.25-31.62,3.88-47.48,5.4-9.1,2.66-18.39,4.64-27.67,6.59-9.43,1.99-18.88,3.96-28.14,6.66-9.01,2.63-17.86,5.98-26,10.69-.27.16-.54.32-.81.48-8.21,4.87-15.52,11.13-21.47,18.59-2.2,2.76-6.97,12.19-7.28,14.01-1.26,7.28,2.03,21.42,2.03,21.42,0,0,6,30.37,8.2,33.95,1.94,9.3,63.42,51.85,79.02,58.05,10.25,4.07,20.7,7.72,31.13,11.42,8.37,2.96,43.33,12.5,45.89,13.1,9.09,2.13,18.3,3.94,27.09,7,.96.33,1.82.88,2.73,1.33.33-3.43.23-4.93.23-7.35,0-15.03-1.26-29.59-3.89-44.45-1.38-7.81-2.94-15.61-4.46-23.39-1.32-6.76-3.42-13.48-5.73-20.11-2.56-7.37-5.13-14.55-10.36-20.85-.99-1.2-2.27-2.43-2.91-3.94,23.08-3.96,48.07-12.91,57.55-15.96,22.03-7.1,87.27-17.37,99.37-39.52,3.48-4.06,6.31-8.57,7.89-13.57.91-2.9,1.33-5.83,1.43-8.77Z"/><path class="cls-19" d="m173.22,388.28c-.21,0-.43-.04-.64-.12-.94-.35-1.41-1.4-1.05-2.33l8.29-21.86c.35-.93,1.4-1.4,2.33-1.05.94.35,1.41,1.4,1.05,2.33l-8.29,21.86c-.27.72-.96,1.17-1.69,1.17Z"/><path class="cls-19" d="m187.15,392.94c-.21,0-.43-.04-.64-.12-.94-.35-1.41-1.39-1.05-2.33l10.59-27.97c.35-.93,1.4-1.4,2.33-1.05.94.35,1.41,1.39,1.05,2.33l-10.59,27.97c-.27.72-.96,1.17-1.69,1.17Z"/><path class="cls-19" d="m197.69,396.24c-.23,0-.46-.04-.69-.14-.92-.38-1.36-1.44-.98-2.36l12.23-29.56c.38-.92,1.44-1.36,2.36-.98.92.38,1.36,1.44.98,2.36l-12.23,29.56c-.29.7-.96,1.12-1.67,1.12Z"/><path class="cls-19" d="m212.03,400.72c-.24,0-.47-.05-.71-.14-.92-.39-1.35-1.45-.96-2.37l13.17-31.04c.39-.92,1.45-1.35,2.37-.96.92.39,1.35,1.45.96,2.37l-13.17,31.04c-.29.69-.96,1.1-1.67,1.1Z"/><path class="cls-19" d="m224.93,403.85c-.26,0-.52-.06-.78-.18-.9-.43-1.29-1.51-.86-2.41l13.97-29.35c.43-.9,1.51-1.28,2.41-.86.9.43,1.29,1.51.86,2.41l-13.97,29.35c-.31.65-.96,1.03-1.64,1.03Z"/><path class="cls-19" d="m236.38,409.25c-.26,0-.53-.06-.79-.18-.9-.43-1.28-1.51-.84-2.41l14.41-29.75c.44-.9,1.52-1.27,2.42-.84.9.43,1.28,1.51.84,2.41l-14.41,29.75c-.31.64-.96,1.02-1.63,1.02Z"/><path class="cls-19" d="m249.93,413.49c-.24,0-.49-.05-.72-.15-.92-.4-1.33-1.46-.93-2.38l12.77-29.16c.4-.91,1.47-1.33,2.38-.93.92.4,1.33,1.46.93,2.38l-12.77,29.16c-.3.68-.96,1.08-1.66,1.08Z"/><path class="cls-19" d="m264.51,419.68c-.22,0-.44-.04-.66-.12-.93-.36-1.39-1.41-1.03-2.34l10.52-26.93c.36-.93,1.41-1.39,2.34-1.03.93.36,1.39,1.41,1.03,2.34l-10.52,26.93c-.28.71-.96,1.15-1.69,1.15Z"/><path class="cls-20" d="m312.35,742.3c-1.19,8.67-2.17,44.28-22.3,41.71-14.97-1.91-9.58-42.03-8.81-50.36,13.07,3.41,21.65,3.83,31.11,8.65Z"/><path class="cls-20" d="m766.91,734.14c.98,9.26,8.38,40.93-5.5,48.09-8.64,4.46-25.05-31.45-29.01-38.83,9.82-2.9,19.75-5.16,34.51-9.26Z"/><path class="cls-12" d="m216.79,155.83c22.39.35,42.06,25.5,64.05,24.35,8.56-.45,13.42-6.2,20.4-9.55,7.65-3.67,21.68-6.55,30.18-6.13,26.81,1.33,24.32,28.55,33.71,45.21,1.74,3.08,3.81,10.56,6.79,2.66,1.75-4.63-5.29-16.44-7.02-20.97-5.07-13.35-22.77-30.44-36.56-34.76-7.48-2.34-17.62-4.51-25.51-3.44-6.96.94-13.28,6.13-20.45,6.93-10.01,1.12-19.2-4.45-28.52-6.93-9.15-2.44-13.56-.26-22.28.89"/><ellipse class="cls-24" cx="746.12" cy="487.99" rx="5.47" ry="5.46"/><ellipse class="cls-24" cx="740.65" cy="515.76" rx="5.47" ry="5.46"/><ellipse class="cls-24" cx="721.63" cy="613.56" rx="5.47" ry="5.46"/><path class="cls-23" d="m597.07,309.72l-5.82-1.6c2.47-8.97,5.13-20.52,7.94-32.75,7.74-33.68,17.37-75.6,30.55-95.41,7.03-10.57,26.72-36.82,57.71-52.34,30.96-15.5,63.42-15.91,96.48-1.21l-2.46,5.5c-31.33-13.93-62.06-13.57-91.32,1.09-29.7,14.87-48.63,40.12-55.39,50.29-12.57,18.89-22.07,60.22-29.7,93.43-2.82,12.29-5.49,23.9-8,33Z"/><path class="cls-23" d="m928.68,331.52c-6.66-18.19-13.74-41.61-20.59-64.25-11.25-37.2-22.88-75.67-32.34-89.89-21.68-32.6-63.55-36.78-97.6-36.78v-6.02c35.56,0,79.36,4.49,102.63,39.47,9.95,14.96,21.19,52.13,33.09,91.48,6.82,22.56,13.88,45.9,20.48,63.92l-5.67,2.06Z"/><path class="cls-23" d="m894.78,318.71c-4.37-13.54-7.42-26.79-10.37-39.59-8.54-37.05-15.92-69.05-51.22-85.88l2.6-5.43c37.92,18.08,45.6,51.39,54.5,89.96,2.92,12.68,5.95,25.8,10.24,39.1l-5.74,1.84Z"/><path class="cls-23" d="m643.16,329.61l-5.82-1.59c5.32-19.43,11.71-42.12,18.69-63.17l5.73,1.89c-6.94,20.91-13.3,43.52-18.6,62.86Z"/><path class="cls-23" d="m672.79,336.09l-5.81-1.63c5.47-19.35,10.36-35.33,14.95-48.88l5.72,1.93c-4.56,13.44-9.42,29.33-14.85,48.58Z"/><path class="cls-23" d="m699.72,343.17l-5.8-1.65c5.41-18.9,10.27-34.53,14.88-47.77l5.7,1.97c-4.57,13.14-9.4,28.66-14.78,47.45Z"/><path class="cls-23" d="m658.22,204.78l-5.59-2.27c24.53-60.18,69.88-57.25,96.96-55.49,4.06.26,7.89.51,11.11.51v6.02c-3.41,0-7.34-.25-11.5-.52-27.12-1.75-68.09-4.41-90.98,51.75Z"/><path class="cls-25" d="m851.29,243.87s0,0,0,0c-.44-2.9-1.76-7.29-3.45-11.41,0-.02-.01-.05-.02-.07-.28-.91-.66-1.74-1.11-2.5-1.01-2.17-2.11-4.14-3.21-5.61-15.99-16.1-75.27-47.34-106.83-38.2-1.47,1.17-2.55,2.73-3.03,4.58-.65,2.45-.35,5.06.29,7.48.79,2.98,2.12,5.8,3.68,8.44.97,1.64,2.05,3.24,3.22,4.79-17.96-2.21-38.51-3.47-52.98.39-9.14,2.44-19.2,8.23-15.82,17.66.85,2.38-1.39,4.83-2.25,7.15-.97,2.6-.18,4.98.1,7.8.58,5.86,4.06,8.7,5.44,10.9,2.47,3.94-2,4.6-.93,12.22,4.21,11.99,9.31,11.97,16.14,14.47,8.11,2.97,109.52,11.52,109.52,11.52,0,0,7.48,118.78,30.51,140.72,23.04,21.94,37.22-42.99,43.79-54.27,7.69-13.19-5.61-77.18-23.05-136.04Z"/><path class="cls-10" d="m900.8,685.18c21.98,19.94,63.51,11.57,77.45-23.27,17.41-43.52-28.44-155.3-32.59-169.5-12.17-41.61-6.92-40.69-48.48-151.43-3.27-11.08-9.12-21.64-19.12-27.25-2.96-1.66-6.11-2.77-9.35-3.49-2.93-.65-5.8-1.23-8.77-1.42-6.3-.41-12.59.34-18.7,1.59-6.26,1.28-12.38,3.11-18.42,5.16-5.39,1.82-10.67,4.03-16.09,5.75-3.15,1-6.3,1.98-9.47,2.95-11,3.36-6.51,59.33-4.01,76.8,10.16,70.99,16.17,136.8,54.21,196.07,23.55,36.68,13.7,52.09,53.32,88.03Z"/><path class="cls-11" d="m909.63,590.13c-8.19-6.97-17.65-12.28-27.49-16.55-10.27-4.46-41.04-11.57-44.98-11.86-1.53-.11-124.65-38.1-134.95-43.38-6.09-3.12-53.87-25.99-57.08-28.37-10.94-8.09-11.8-32.75-12.77-44.89-1.02-12.82-12.44-51.6-26.53-47.24-18.85,5.84-5.03,26.62-5.54,45.83.41,6.02,2.51,21.95,2.62,27.98.42,24.08-18.22,56.9-12.57,79.76,6.76,27.33,58.57,15.07,73.75,17.59,16.34,2.72,35.04,16.75,50,24.53,16.51,8.58,32.04,20.71,48.47,30.37-.09.03-11.71,9.47-11.71,9.47-4.55,3.92-14.58,22.5-16.07,26.02-12.49,29.63-4.83,61.94-3.88,78.85.1,1.74.23,3.61,1.5,5.15,3.38-.75,32.11-8.31,41.98-11.52,21.62-7.35,84.81-32.83,95.49-38.2,8.26-4.15,16.38-6.76,25.16-14.54,7.11-9.35,13.15-19.48,17.6-30.44,5.84-14.4,8.91-30.01,9.04-45.61-1.16-6.13-7.52-9.12-12.04-12.97Z"/></g></g></g></svg>