<svg width="83" height="56" viewBox="0 0 83 56" fill="none" xmlns="http://www.w3.org/2000/svg">
<g clip-path="url(#clip0_4851_139192)">
<path d="M40.5808 40.395C36.8081 43.2602 31.8564 48.7577 30.7246 49.5264C29.4277 50.6679 21.5286 54.3484 21.0098 48.9208C20.8919 47.8026 26.8575 41.0006 26.8575 41.0006C26.8575 41.0006 20.8212 47.36 19.7601 48.0589C16.4118 50.3184 11.9789 51.8792 11.9317 47.8492C11.9317 46.6146 21.2456 35.5031 20.8448 35.5963C20.609 35.6429 10.8942 46.7544 9.83311 47.2669C8.30044 48.0356 6.57913 47.8725 5.32942 46.4516C3.93823 44.8675 4.64561 43.1437 5.32942 41.6063C6.72061 38.578 15.6808 26.162 15.6808 26.162C15.6808 26.162 8.04107 33.9657 6.43766 34.6179C5.07004 35.1537 3.72601 35.6895 2.42914 34.7344C1.13226 33.7793 1.01436 32.3584 1.3209 30.9141C1.83965 28.5381 9.52658 19.6862 11.2007 18.1953" fill="#E1EBF7"/>
<path d="M55.8598 14.2556C56.1899 14.3721 58.8072 15.0942 61.2123 15.5135C63.5231 15.9096 65.0794 15.3039 66.3527 13.813C68.239 11.5302 65.268 8.61837 62.6743 7.77977C62.6743 7.77977 41.547 -0.885787 29.6629 1.63002C28.366 1.90955 17.8731 2.9811 13.7231 8.9445C12.1905 11.1575 11.4123 13.7898 11.766 16.3754C12.0018 18.1458 12.5913 21.1275 21.2686 25.3205C21.2686 25.3205 40.7453 38.645 42.6788 40.5086C42.8439 40.6716 53.7612 51.7365 55.1996 52.9012C55.9305 53.5069 63.0515 56.8613 64.1598 52.9245C64.3956 52.0859 54.7751 40.7648 54.7751 40.7648C54.7751 40.7648 64.4663 51.7132 65.2444 52.3655C67.7203 54.3921 70.0547 56.5119 71.5638 52.8546C71.941 51.9462 61.0001 38.2956 61.0001 38.2956C61.0001 38.2956 72.8135 52.2956 73.3086 52.5984C74.4876 53.2972 75.8552 53.3438 77.0106 52.3422C78.2839 51.2473 77.9067 49.8497 77.4822 48.5685C76.6805 46.0992 67.5788 33.5202 67.5788 33.5202C67.5788 33.5202 76.0675 42.4187 77.27 43.0477C78.3075 43.5834 79.345 44.1192 80.5004 43.467C81.6322 42.838 81.9623 41.7199 81.7737 40.6017C80.972 36.0593 64.089 21.7332 55.8598 14.2091" fill="#E1EBF7"/>
<path d="M82.9297 40.395C82.2459 36.5281 73.2149 28.1887 61.4723 17.6829C61.0243 17.2869 60.5763 16.8676 60.1283 16.4949C60.4112 16.5414 60.7178 16.6113 61.0007 16.6579C63.6416 17.1005 65.6223 16.4483 67.2493 14.5381C68.051 13.5598 68.3104 12.3484 67.9567 11.1371C67.3436 9.04062 65.0093 7.29353 63.1229 6.68787C62.2504 6.33845 41.524 -2.09416 29.4041 0.468237C29.2862 0.491532 29.074 0.538121 28.7911 0.58471C25.82 1.07389 16.7655 2.51815 12.757 8.2719C10.9885 10.8343 10.234 13.7461 10.6112 16.5182C10.6348 16.7278 10.682 16.9375 10.7291 17.1471C10.6348 17.1937 10.5169 17.2403 10.4462 17.3102C9.00783 18.5681 0.802143 27.7228 0.165496 30.6579C-0.306095 32.8709 0.212655 34.5481 1.72175 35.6429C3.53737 36.994 5.37658 36.2719 6.88567 35.6662C7.1922 35.5498 7.61663 35.2469 8.13538 34.8509C6.36692 37.4832 4.78709 39.9291 4.24476 41.1172C3.60811 42.5614 2.52345 45.0073 4.43339 47.197C5.96606 48.9441 8.2297 49.3401 10.3519 48.2919C10.4698 48.2453 10.5877 48.1521 10.7527 48.0123C10.8235 49.8759 11.7195 50.7145 12.4504 51.0872C14.6669 52.2519 18.086 50.4583 19.878 49.3401C20.1845 51.3667 21.3635 52.2286 22.3303 52.6013C22.9198 52.8343 23.58 52.9275 24.2638 52.9275C27.2112 52.9275 30.6067 51.1338 31.3612 50.435C31.8564 50.0855 32.7053 49.2702 34.2851 47.7095C36.2894 45.7062 39.0246 42.9807 41.2646 41.2802C41.359 41.2103 41.4297 41.1172 41.4769 41.024C41.5948 41.1172 41.7127 41.2336 41.7834 41.3035L42.1371 41.6762C47.1124 46.7078 53.2902 52.8809 54.3749 53.7894C55.1766 54.4416 59.7746 56.6546 62.7692 55.7461C63.8303 55.42 64.6084 54.7444 65.0328 53.7661C66.4948 54.9541 67.886 56.0023 69.3243 56.0023C69.5601 56.0023 69.7959 55.979 70.0317 55.9092C71.0692 55.6529 71.8709 54.8609 72.484 53.4865C72.5547 53.5564 72.5783 53.5797 72.6254 53.5797C74.3467 54.6047 76.2567 54.4649 77.7186 53.207C79.6521 51.5531 78.9212 49.3634 78.5439 48.1987C78.261 47.3601 77.1763 45.5431 75.8323 43.4466C76.2095 43.7494 76.4925 43.9824 76.6811 44.0756C77.7894 44.6579 79.322 45.4499 81.0433 44.4716C82.5053 43.6563 83.1891 42.1421 82.9061 40.395H82.9297ZM32.6345 46.1022C31.5499 47.197 30.3945 48.3152 29.9465 48.6413C29.0976 49.3867 25.1127 51.2037 23.2027 50.4583C22.7783 50.2952 22.2831 49.9691 22.1652 49.014C22.401 48.1987 25.2306 44.6113 27.73 41.7461C28.1544 41.2569 28.1073 40.5348 27.6357 40.1155C27.1641 39.6962 26.4331 39.7195 25.9851 40.1854C23.0612 43.2603 19.6894 46.6845 19.0763 47.0805C16.4118 48.8742 14.2661 49.4333 13.5351 49.0373C13.1814 48.8509 13.1107 48.2686 13.0635 48.0123C13.3936 47.0573 17.3078 42.0722 19.2178 39.6729C21.2928 37.0329 22.1652 35.4566 21.8351 34.9441C21.5757 34.5481 21.0806 34.3385 20.5854 34.4316C20.271 34.4937 19.0134 35.7439 16.8127 38.182C14.4311 40.8143 9.99817 45.7295 9.29078 46.1954C8.60697 46.5448 7.3101 46.9175 6.20186 45.6596C5.40016 44.7511 5.61237 43.796 6.3905 42.0722C7.45158 39.7661 13.5587 31.0772 16.624 26.8143C16.9777 26.3251 16.8834 25.6263 16.4118 25.2536C15.9402 24.8576 15.2328 24.9042 14.8084 25.3468C11.2479 28.9807 6.86209 33.1504 5.96606 33.5464C4.50413 34.1288 3.79675 34.3152 3.11294 33.8027C2.61777 33.43 2.09902 32.8243 2.45271 31.1704C2.85356 29.3767 9.2672 21.7361 11.5544 19.4766C12.7098 21.4799 15.1857 23.7162 20.5854 26.3018C24.924 29.2835 35.0868 36.2719 39.6612 39.6496C37.3269 41.4433 34.6388 44.1454 32.6345 46.1255V46.1022ZM79.9115 42.4449C79.3692 42.7478 78.874 42.5614 77.8365 42.0256C77.082 41.5598 72.4604 36.9241 68.4519 32.7311C68.0274 32.2885 67.32 32.2419 66.8485 32.638C66.3769 33.034 66.2825 33.7095 66.6362 34.222C70.1024 39.0206 75.8323 47.2669 76.3746 48.9441C76.8698 50.435 76.8462 50.9707 76.2567 51.4832C75.5729 52.0889 74.7948 52.1122 74.0874 51.7162C73.4036 51.1105 66.2825 42.7012 61.9439 37.5531C61.5195 37.0639 60.7885 36.994 60.2933 37.39C59.7982 37.786 59.7039 38.5082 60.1047 39.0206C64.6556 44.6812 69.5365 51.1338 70.3382 52.7644C70.0788 53.3002 69.7959 53.6263 69.5601 53.6729C68.9235 53.836 67.3908 52.6013 66.3061 51.7162L66.0232 51.4832C65.4101 50.9474 59.3502 44.1687 55.6718 39.999C55.436 39.7428 55.1058 39.603 54.7757 39.603C54.4928 39.603 54.2334 39.6962 53.9976 39.8825C53.5024 40.3018 53.4553 41.024 53.8561 41.5132C57.8175 46.1721 62.0854 51.4832 62.8871 52.9042C62.7456 53.207 62.5098 53.3934 62.1561 53.5098C60.2462 54.1388 56.4499 52.3917 55.9311 51.9957C55.5539 51.6929 53.6439 49.9225 43.882 40.0689L43.5047 39.6729C41.5476 37.786 23.9337 25.7195 21.7879 24.2752C13.4644 20.2686 13.1342 17.6363 12.9456 16.2153C12.6391 14.0256 13.2757 11.6729 14.7141 9.59968C17.0013 6.33845 21.8587 4.07889 29.1919 2.89087C29.5456 2.84428 29.7814 2.79769 29.9465 2.7511C41.3354 0.351765 62.0382 8.76108 62.3448 8.87755C63.8774 9.36674 65.4101 10.6945 65.7402 11.8127C65.8817 12.3018 65.811 12.6746 65.4808 13.0706C64.4198 14.3052 63.2644 14.6779 61.4487 14.3751C59.4445 14.0256 57.2752 13.4433 56.5442 13.2336C56.2141 13.024 55.7896 12.9774 55.436 13.1404C55.0115 13.3268 54.7286 13.7461 54.7286 14.212V14.2586C54.7286 14.6779 54.9644 15.0739 55.3416 15.2835C56.6857 16.5182 58.2655 17.9158 59.9396 19.43C67.4615 26.1621 80.053 37.4366 80.6425 40.791C80.784 41.5597 80.5482 42.1188 79.9587 42.4449H79.9115Z" fill="#408CFF"/>
</g>
<defs>
<clipPath id="clip0_4851_139192">
<rect width="83" height="56" fill="white"/>
</clipPath>
</defs>
</svg>
